<svg xmlns="http://www.w3.org/2000/svg" xmlns:xlink="http://www.w3.org/1999/xlink" width="500" zoomAndPan="magnify" viewBox="0 0 375 374.999991" height="500" preserveAspectRatio="xMidYMid meet" version="1.0"><defs><g/><clipPath id="72973c4b18"><path d="M 165 132 L 185 132 L 185 148.726562 L 165 148.726562 Z M 165 132 " clip-rule="nonzero"/></clipPath><clipPath id="6f2b73dcef"><path d="M 314 132 L 334.289062 132 L 334.289062 148 L 314 148 Z M 314 132 " clip-rule="nonzero"/></clipPath><clipPath id="e5de7a0f0c"><path d="M 12.664062 231 L 33 231 L 33 248 L 12.664062 248 Z M 12.664062 231 " clip-rule="nonzero"/></clipPath><clipPath id="eaab4a0ff0"><path d="M 123 252 L 142 252 L 142 267.59375 L 123 267.59375 Z M 123 252 " clip-rule="nonzero"/></clipPath></defs><g fill="#000000" fill-opacity="1"><g transform="translate(65.189765, 237.928813)"><g><path d="M 0 -10.1875 L 0 -61.15625 L 10.1875 -61.15625 L 10.1875 -71.359375 L 20.390625 -71.359375 L 20.390625 -81.546875 L 50.96875 -81.546875 L 50.96875 -71.359375 L 61.15625 -71.359375 L 61.15625 -61.15625 L 71.359375 -61.15625 L 71.359375 -10.1875 L 50.96875 -10.1875 L 50.96875 -30.578125 L 20.390625 -30.578125 L 20.390625 -10.1875 Z M 20.390625 -40.765625 L 50.96875 -40.765625 L 50.96875 -61.15625 L 40.765625 -61.15625 L 40.765625 -71.359375 L 30.578125 -71.359375 L 30.578125 -61.15625 L 20.390625 -61.15625 Z M 20.390625 -40.765625 "/></g></g></g><g fill="#000000" fill-opacity="1"><g transform="translate(146.728731, 237.928813)"><g><path d="M 10.1875 -40.765625 L 10.1875 -50.96875 L 71.359375 -50.96875 L 71.359375 -40.765625 Z M 10.1875 -40.765625 "/></g></g></g><g fill="#000000" fill-opacity="1"><g transform="translate(228.267696, 237.928813)"><g><path d="M 10.1875 -10.1875 L 10.1875 -81.546875 L 30.578125 -81.546875 L 30.578125 -20.390625 L 71.359375 -20.390625 L 71.359375 -10.1875 Z M 10.1875 -10.1875 "/></g></g></g><g clip-path="url(#72973c4b18)"><path fill="#c5030e" d="M 181.746094 139.753906 C 181.714844 139.765625 181.683594 139.777344 181.65625 139.785156 C 181.578125 140.613281 181.257812 141.410156 180.730469 142.078125 C 180.203125 142.746094 179.472656 143.289062 178.589844 143.597656 C 178.523438 143.625 177.253906 144.078125 175.980469 144.503906 C 174.707031 144.933594 173.421875 145.335938 173.351562 145.355469 C 172.113281 145.734375 170.84375 145.585938 169.816406 145.035156 C 168.789062 144.488281 168.007812 143.546875 167.699219 142.363281 C 167.386719 141.179688 167.589844 139.980469 168.140625 138.996094 C 168.695312 138.011719 169.605469 137.234375 170.757812 136.878906 C 170.824219 136.859375 172.023438 136.488281 173.214844 136.09375 C 174.40625 135.699219 175.589844 135.28125 175.652344 135.253906 C 176.476562 134.964844 177.332031 134.929688 178.132812 135.105469 C 178.933594 135.285156 179.683594 135.675781 180.289062 136.246094 L 180.359375 136.214844 C 181.15625 135.898438 181.953125 135.582031 182.742188 135.253906 C 181.851562 134.046875 180.679688 133.164062 179.433594 132.691406 C 178.1875 132.21875 176.863281 132.152344 175.613281 132.601562 C 175.53125 132.636719 173.96875 133.203125 172.390625 133.722656 C 170.816406 134.25 169.226562 134.726562 169.140625 134.753906 C 167.609375 135.207031 166.4375 136.332031 165.730469 137.808594 C 165.027344 139.285156 164.792969 141.113281 165.199219 142.988281 C 165.613281 144.859375 166.71875 146.390625 168.164062 147.316406 C 169.605469 148.246094 171.386719 148.566406 173.097656 148.058594 C 173.195312 148.027344 174.964844 147.488281 176.71875 146.894531 C 178.472656 146.308594 180.214844 145.671875 180.308594 145.632812 C 181.695312 145.132812 182.785156 144.152344 183.460938 142.929688 C 184.140625 141.707031 184.402344 140.242188 184.191406 138.761719 C 183.378906 139.105469 182.5625 139.429688 181.746094 139.753906 " fill-opacity="1" fill-rule="nonzero"/></g><path fill="#c5030e" d="M 191.6875 134.59375 L 192.285156 134.277344 C 192.683594 134.070312 193.078125 133.851562 193.472656 133.640625 L 193.542969 133.601562 C 193.703125 133.515625 193.832031 133.390625 193.929688 133.253906 C 194.199219 132.871094 194.234375 132.339844 193.976562 131.890625 C 193.71875 131.441406 193.25 131.195312 192.796875 131.21875 C 192.628906 131.226562 192.464844 131.273438 192.308594 131.355469 L 192.242188 131.394531 C 191.859375 131.601562 191.476562 131.8125 191.089844 132.011719 L 190.511719 132.320312 L 189.925781 132.617188 C 189.753906 132.707031 189.582031 132.796875 189.40625 132.882812 C 187.285156 133.949219 185.117188 134.929688 182.925781 135.847656 L 182.386719 136.070312 C 181.597656 136.390625 180.8125 136.707031 180.019531 137.011719 L 179.867188 137.070312 C 179.730469 137.125 179.609375 137.199219 179.503906 137.296875 C 179.148438 137.628906 179.015625 138.175781 179.203125 138.691406 C 179.394531 139.199219 179.855469 139.523438 180.34375 139.535156 C 180.492188 139.539062 180.640625 139.515625 180.785156 139.460938 L 180.929688 139.40625 C 181.742188 139.09375 182.546875 138.769531 183.351562 138.441406 L 183.902344 138.214844 C 186.148438 137.273438 188.371094 136.269531 190.554688 135.171875 C 190.734375 135.082031 190.910156 134.992188 191.085938 134.902344 L 191.6875 134.59375 " fill-opacity="1" fill-rule="nonzero"/><path fill="#c5030e" d="M 225.183594 124.625 C 225.121094 123.292969 224.652344 122.050781 223.746094 121.085938 C 223.679688 121.019531 222.542969 119.816406 221.433594 118.574219 C 220.324219 117.335938 219.253906 116.070312 219.195312 116 C 218.171875 114.777344 216.671875 114.148438 215.039062 114.089844 C 213.402344 114.03125 211.628906 114.542969 210.074219 115.660156 C 208.523438 116.785156 207.558594 118.40625 207.28125 120.101562 C 207.238281 120.351562 207.214844 120.605469 207.203125 120.859375 C 207.472656 120.710938 207.746094 120.558594 208.011719 120.40625 C 208.183594 120.3125 208.351562 120.214844 208.511719 120.121094 L 209.078125 119.796875 L 209.640625 119.464844 C 209.917969 119.304688 210.195312 119.132812 210.460938 118.96875 C 210.511719 118.941406 210.5625 118.910156 210.609375 118.878906 C 210.871094 118.4375 211.214844 118.039062 211.640625 117.703125 C 212.601562 116.949219 213.78125 116.65625 214.90625 116.773438 C 216.03125 116.890625 217.105469 117.414062 217.890625 118.332031 C 217.933594 118.382812 218.75 119.335938 219.585938 120.269531 C 220.425781 121.207031 221.277344 122.125 221.324219 122.175781 C 221.921875 122.820312 222.292969 123.585938 222.449219 124.390625 C 222.605469 125.195312 222.542969 126.039062 222.261719 126.824219 L 222.320312 126.878906 C 222.921875 127.484375 223.53125 128.085938 224.148438 128.679688 C 224.902344 127.382812 225.242188 125.957031 225.183594 124.625 " fill-opacity="1" fill-rule="nonzero"/><path fill="#c5030e" d="M 219.769531 129.199219 C 218.980469 129.457031 218.121094 129.480469 217.296875 129.261719 C 216.476562 129.046875 215.6875 128.589844 215.054688 127.90625 C 215.003906 127.851562 214.082031 126.871094 213.183594 125.871094 C 212.28125 124.871094 211.402344 123.855469 211.355469 123.796875 C 211.109375 123.503906 210.902344 123.191406 210.734375 122.867188 L 210.53125 122.984375 C 210.371094 123.078125 210.1875 123.183594 210.003906 123.285156 C 209.480469 123.578125 208.953125 123.871094 208.417969 124.160156 C 208.527344 124.324219 208.648438 124.484375 208.777344 124.636719 C 208.84375 124.714844 210.042969 126.125 211.285156 127.5 C 212.523438 128.875 213.796875 130.21875 213.871094 130.292969 C 214.882812 131.363281 216.214844 131.972656 217.605469 132.109375 C 219 132.246094 220.445312 131.902344 221.71875 131.121094 C 221.082031 130.511719 220.457031 129.890625 219.835938 129.269531 C 219.8125 129.246094 219.789062 129.222656 219.769531 129.199219 " fill-opacity="1" fill-rule="nonzero"/><path fill="#c5030e" d="M 210.261719 122.523438 L 210.519531 122.375 L 210.847656 122.1875 L 210.988281 122.101562 L 211.429688 121.84375 C 211.816406 121.617188 212.199219 121.378906 212.585938 121.144531 L 212.652344 121.105469 C 212.808594 121.011719 212.929688 120.882812 213.023438 120.738281 C 213.273438 120.34375 213.28125 119.8125 213 119.375 C 212.722656 118.941406 212.242188 118.714844 211.792969 118.761719 C 211.625 118.777344 211.460938 118.832031 211.3125 118.921875 L 211.246094 118.960938 C 211.238281 118.96875 211.226562 118.976562 211.214844 118.980469 C 210.957031 119.136719 210.699219 119.296875 210.4375 119.453125 C 210.335938 119.515625 210.230469 119.578125 210.125 119.640625 L 209.5625 119.972656 L 208.992188 120.300781 C 208.824219 120.394531 208.65625 120.492188 208.488281 120.585938 C 208.132812 120.785156 207.777344 120.984375 207.421875 121.179688 C 207.25 121.273438 207.082031 121.367188 206.910156 121.457031 C 205.347656 122.300781 203.761719 123.101562 202.15625 123.863281 L 201.628906 124.113281 C 200.859375 124.472656 200.085938 124.828125 199.308594 125.167969 L 199.164062 125.234375 C 199.027344 125.292969 198.910156 125.378906 198.808594 125.476562 C 198.472656 125.824219 198.363281 126.382812 198.578125 126.882812 C 198.792969 127.382812 199.269531 127.683594 199.757812 127.671875 C 199.90625 127.671875 200.054688 127.640625 200.195312 127.578125 L 200.335938 127.515625 C 201.132812 127.164062 201.921875 126.800781 202.707031 126.4375 L 203.246094 126.179688 C 204.734375 125.472656 206.210938 124.734375 207.667969 123.957031 C 207.824219 123.871094 207.984375 123.789062 208.140625 123.703125 C 208.675781 123.414062 209.210938 123.121094 209.742188 122.820312 C 209.917969 122.722656 210.089844 122.621094 210.261719 122.523438 " fill-opacity="1" fill-rule="nonzero"/><path fill="#c5030e" d="M 275.242188 122.578125 C 275.304688 121.242188 275.773438 120 276.683594 119.035156 C 276.746094 118.972656 277.886719 117.765625 278.992188 116.523438 C 280.101562 115.289062 281.171875 114.019531 281.230469 113.949219 C 282.253906 112.726562 283.753906 112.097656 285.386719 112.035156 C 287.023438 111.980469 288.796875 112.492188 290.351562 113.609375 C 291.902344 114.734375 292.867188 116.355469 293.144531 118.050781 C 293.1875 118.300781 293.210938 118.554688 293.222656 118.804688 C 292.953125 118.65625 292.683594 118.507812 292.414062 118.355469 C 292.242188 118.261719 292.074219 118.160156 291.914062 118.070312 L 291.347656 117.746094 L 290.785156 117.414062 C 290.507812 117.25 290.234375 117.082031 289.964844 116.917969 C 289.914062 116.886719 289.867188 116.859375 289.816406 116.828125 C 289.554688 116.386719 289.210938 115.988281 288.785156 115.652344 C 287.824219 114.898438 286.644531 114.605469 285.519531 114.722656 C 284.394531 114.839844 283.320312 115.363281 282.539062 116.28125 C 282.492188 116.332031 281.675781 117.285156 280.839844 118.222656 C 280.003906 119.15625 279.148438 120.078125 279.101562 120.125 C 278.507812 120.769531 278.132812 121.535156 277.976562 122.34375 C 277.824219 123.148438 277.882812 123.988281 278.164062 124.773438 L 278.109375 124.828125 C 277.503906 125.433594 276.898438 126.035156 276.277344 126.628906 C 275.523438 125.332031 275.183594 123.90625 275.242188 122.578125 " fill-opacity="1" fill-rule="nonzero"/><path fill="#c5030e" d="M 280.65625 127.148438 C 281.445312 127.40625 282.304688 127.429688 283.128906 127.210938 C 283.953125 126.996094 284.738281 126.539062 285.375 125.855469 C 285.425781 125.800781 286.34375 124.820312 287.242188 123.820312 C 288.144531 122.820312 289.023438 121.800781 289.070312 121.746094 C 289.320312 121.453125 289.523438 121.140625 289.691406 120.816406 L 289.898438 120.933594 C 290.054688 121.027344 290.238281 121.128906 290.425781 121.234375 C 290.945312 121.527344 291.472656 121.820312 292.007812 122.109375 C 291.898438 122.273438 291.777344 122.433594 291.648438 122.585938 C 291.585938 122.664062 290.382812 124.074219 289.144531 125.449219 C 287.90625 126.824219 286.628906 128.167969 286.558594 128.242188 C 285.546875 129.316406 284.210938 129.925781 282.820312 130.058594 C 281.429688 130.195312 279.980469 129.851562 278.710938 129.070312 C 279.347656 128.464844 279.972656 127.84375 280.59375 127.21875 C 280.613281 127.195312 280.636719 127.171875 280.65625 127.148438 " fill-opacity="1" fill-rule="nonzero"/><path fill="#c5030e" d="M 290.050781 120.390625 L 289.8125 120.21875 L 289.503906 119.996094 L 289.371094 119.898438 L 288.960938 119.59375 C 288.597656 119.328125 288.242188 119.050781 287.886719 118.777344 L 287.820312 118.730469 C 287.675781 118.621094 287.570312 118.480469 287.492188 118.328125 C 287.285156 117.90625 287.332031 117.378906 287.65625 116.972656 C 287.980469 116.570312 288.480469 116.398438 288.925781 116.488281 C 289.089844 116.523438 289.246094 116.59375 289.386719 116.703125 L 289.445312 116.746094 C 289.453125 116.753906 289.464844 116.761719 289.472656 116.769531 C 289.714844 116.953125 289.957031 117.136719 290.195312 117.320312 C 290.292969 117.390625 290.390625 117.464844 290.488281 117.539062 L 291.015625 117.929688 L 291.546875 118.3125 C 291.703125 118.425781 291.859375 118.542969 292.019531 118.652344 C 292.351562 118.890625 292.683594 119.125 293.015625 119.355469 C 293.175781 119.464844 293.335938 119.578125 293.496094 119.6875 C 294.960938 120.6875 296.457031 121.648438 297.972656 122.578125 L 298.46875 122.878906 C 299.195312 123.316406 299.925781 123.75 300.664062 124.171875 L 300.804688 124.253906 C 300.933594 124.328125 301.039062 124.421875 301.128906 124.535156 C 301.425781 124.914062 301.476562 125.480469 301.210938 125.957031 C 300.945312 126.429688 300.441406 126.679688 299.957031 126.617188 C 299.808594 126.597656 299.664062 126.554688 299.53125 126.476562 L 299.398438 126.398438 C 298.644531 125.96875 297.898438 125.523438 297.152344 125.078125 L 296.640625 124.765625 C 295.234375 123.90625 293.847656 123.015625 292.476562 122.089844 C 292.332031 121.988281 292.183594 121.890625 292.039062 121.789062 C 291.535156 121.445312 291.03125 121.097656 290.535156 120.742188 C 290.371094 120.625 290.210938 120.507812 290.050781 120.390625 " fill-opacity="1" fill-rule="nonzero"/><path fill="#c5030e" d="M 207.75 127.386719 L 207.746094 127.320312 C 207.742188 127.300781 207.730469 127.285156 207.71875 127.269531 C 207.640625 127.144531 207.574219 127.003906 207.503906 126.855469 C 207.21875 126.269531 206.9375 125.585938 206.613281 124.871094 L 206.265625 125.203125 C 206.210938 125.257812 206.152344 125.3125 206.09375 125.367188 L 205.875 125.566406 C 205.535156 125.882812 205.1875 126.179688 204.839844 126.488281 C 204.957031 126.902344 205 127.332031 204.980469 127.765625 C 204.960938 128.203125 204.875 128.644531 204.71875 129.0625 C 204.640625 129.277344 204.546875 129.484375 204.4375 129.6875 C 204.328125 129.890625 204.203125 130.085938 204.058594 130.273438 C 203.777344 130.65625 203.425781 131 203.023438 131.296875 C 202.964844 131.34375 201.832031 132.171875 200.679688 132.949219 C 200.390625 133.144531 200.101562 133.339844 199.828125 133.515625 C 199.554688 133.695312 199.296875 133.859375 199.078125 134.003906 C 198.628906 134.285156 198.320312 134.476562 198.289062 134.496094 C 197.878906 134.75 197.441406 134.929688 197.007812 135.050781 C 196.566406 135.164062 196.125 135.214844 195.691406 135.203125 C 195.257812 135.191406 194.835938 135.117188 194.433594 134.988281 C 194.035156 134.855469 193.65625 134.664062 193.3125 134.421875 C 193.269531 134.453125 193.222656 134.480469 193.175781 134.507812 C 192.78125 134.71875 192.386719 134.925781 191.996094 135.132812 C 191.597656 135.335938 191.207031 135.539062 190.808594 135.738281 C 191.300781 136.308594 191.867188 136.78125 192.488281 137.148438 C 193.109375 137.519531 193.777344 137.773438 194.476562 137.914062 C 195.867188 138.191406 197.359375 137.976562 198.679688 137.195312 C 198.769531 137.140625 200.417969 136.152344 202.027344 135.058594 C 202.433594 134.792969 202.832031 134.507812 203.210938 134.246094 C 203.585938 133.980469 203.9375 133.722656 204.238281 133.503906 C 204.84375 133.054688 205.261719 132.746094 205.304688 132.707031 C 205.621094 132.464844 205.914062 132.199219 206.171875 131.914062 C 206.433594 131.621094 206.664062 131.3125 206.863281 130.992188 C 207.058594 130.664062 207.226562 130.324219 207.359375 129.976562 C 207.496094 129.628906 207.59375 129.265625 207.664062 128.902344 C 207.695312 128.722656 207.722656 128.539062 207.738281 128.355469 C 207.757812 128.171875 207.765625 127.988281 207.765625 127.804688 C 207.765625 127.710938 207.761719 127.617188 207.757812 127.527344 L 207.75 127.386719 " fill-opacity="1" fill-rule="nonzero"/><path fill="#c5030e" d="M 190.242188 131.757812 C 190.621094 131.558594 190.996094 131.363281 191.371094 131.160156 C 191.417969 131.136719 191.464844 131.113281 191.515625 131.09375 C 191.496094 130.679688 191.527344 130.265625 191.613281 129.867188 C 191.699219 129.46875 191.832031 129.082031 192.019531 128.722656 C 192.199219 128.363281 192.429688 128.023438 192.707031 127.726562 C 192.976562 127.421875 193.300781 127.160156 193.660156 126.9375 C 193.691406 126.917969 193.964844 126.75 194.359375 126.503906 C 194.554688 126.375 194.78125 126.230469 195.023438 126.078125 C 195.265625 125.921875 195.515625 125.75 195.769531 125.582031 C 196.777344 124.90625 197.753906 124.199219 197.800781 124.15625 C 198.128906 123.914062 198.484375 123.730469 198.84375 123.59375 C 199.027344 123.523438 199.210938 123.46875 199.402344 123.429688 C 199.589844 123.382812 199.78125 123.351562 199.972656 123.332031 C 200.164062 123.3125 200.359375 123.308594 200.554688 123.316406 C 200.746094 123.320312 200.941406 123.335938 201.132812 123.363281 C 201.519531 123.421875 201.90625 123.527344 202.273438 123.679688 C 202.601562 123.390625 202.933594 123.113281 203.253906 122.8125 L 203.507812 122.578125 C 203.617188 122.480469 203.714844 122.386719 203.820312 122.289062 L 204.421875 121.695312 C 204.136719 121.480469 203.824219 121.304688 203.484375 121.175781 C 203.144531 121.046875 202.785156 120.976562 202.386719 120.9375 C 202.289062 120.929688 202.1875 120.925781 202.078125 120.925781 C 202.027344 120.925781 201.972656 120.925781 201.917969 120.925781 L 201.878906 120.925781 L 201.847656 120.917969 L 201.789062 120.902344 C 201.625 120.863281 201.460938 120.828125 201.300781 120.800781 C 200.980469 120.742188 200.660156 120.703125 200.34375 120.6875 C 199.089844 120.632812 197.921875 120.929688 196.953125 121.660156 C 196.921875 121.6875 196.59375 121.929688 196.117188 122.28125 C 195.875 122.453125 195.597656 122.652344 195.296875 122.867188 C 194.992188 123.074219 194.675781 123.300781 194.34375 123.519531 C 193.042969 124.394531 191.667969 125.214844 191.59375 125.257812 C 190.5 125.90625 189.730469 126.9375 189.300781 128.183594 C 189.082031 128.804688 188.953125 129.480469 188.917969 130.179688 C 188.882812 130.882812 188.941406 131.609375 189.105469 132.339844 C 189.488281 132.148438 189.863281 131.953125 190.242188 131.757812 " fill-opacity="1" fill-rule="nonzero"/><path fill="#c5030e" d="M 229.628906 134.953125 C 229.832031 135.050781 230.035156 135.15625 230.242188 135.246094 L 230.867188 135.527344 L 231.488281 135.808594 L 232.117188 136.070312 L 232.195312 136.101562 C 232.363281 136.171875 232.539062 136.199219 232.710938 136.191406 C 232.828125 136.1875 232.941406 136.164062 233.050781 136.125 C 233.164062 136.082031 233.265625 136.023438 233.363281 135.953125 C 233.554688 135.808594 233.707031 135.609375 233.800781 135.367188 C 233.894531 135.125 233.914062 134.878906 233.871094 134.648438 C 233.851562 134.53125 233.816406 134.421875 233.769531 134.320312 C 233.71875 134.21875 233.660156 134.117188 233.582031 134.035156 C 233.472656 133.90625 233.335938 133.804688 233.175781 133.738281 L 233.109375 133.707031 L 232.511719 133.460938 L 231.917969 133.195312 L 231.328125 132.925781 C 231.132812 132.839844 230.9375 132.742188 230.742188 132.648438 L 230.226562 132.394531 C 229.960938 132.269531 229.699219 132.132812 229.441406 131.996094 L 228.660156 131.585938 L 227.886719 131.160156 L 227.503906 130.945312 L 227.121094 130.722656 L 226.363281 130.273438 L 225.609375 129.808594 C 225.109375 129.503906 224.621094 129.171875 224.125 128.851562 C 223.964844 128.746094 223.808594 128.636719 223.648438 128.527344 C 223.300781 128.289062 222.953125 128.054688 222.613281 127.804688 C 222.273438 127.558594 221.929688 127.316406 221.59375 127.0625 L 221.464844 126.964844 C 221.347656 126.878906 221.21875 126.816406 221.082031 126.78125 C 220.617188 126.660156 220.082031 126.828125 219.742188 127.261719 C 219.410156 127.691406 219.375 128.257812 219.628906 128.679688 C 219.707031 128.808594 219.808594 128.921875 219.933594 129.015625 L 220.058594 129.109375 C 220.40625 129.375 220.761719 129.628906 221.121094 129.882812 C 221.472656 130.140625 221.835938 130.390625 222.199219 130.636719 C 222.363281 130.75 222.527344 130.867188 222.695312 130.976562 L 223.46875 131.480469 C 223.597656 131.566406 223.726562 131.652344 223.855469 131.734375 L 224.246094 131.976562 L 225.03125 132.464844 L 226.226562 133.167969 L 226.632812 133.390625 L 227.441406 133.839844 L 228.257812 134.269531 C 228.535156 134.410156 228.804688 134.554688 229.085938 134.6875 L 229.628906 134.953125 " fill-opacity="1" fill-rule="nonzero"/><path fill="#c5030e" d="M 246.726562 140.484375 L 246.554688 140.472656 L 246.207031 140.441406 L 245.511719 140.382812 C 245.277344 140.359375 245.046875 140.347656 244.816406 140.3125 C 244.589844 140.675781 244.300781 141.003906 243.964844 141.285156 C 243.796875 141.421875 243.613281 141.550781 243.421875 141.667969 C 243.324219 141.726562 243.222656 141.78125 243.121094 141.832031 C 243.019531 141.878906 242.917969 141.921875 242.8125 141.964844 C 242.386719 142.128906 241.921875 142.238281 241.4375 142.28125 C 241.378906 142.285156 241.316406 142.292969 241.257812 142.296875 C 241.195312 142.296875 241.132812 142.296875 241.074219 142.296875 C 240.949219 142.296875 240.828125 142.289062 240.703125 142.28125 C 240.453125 142.261719 240.203125 142.226562 239.949219 142.171875 C 239.910156 142.160156 239.535156 142.089844 239.003906 141.953125 C 238.734375 141.886719 238.425781 141.808594 238.097656 141.726562 C 238.015625 141.707031 237.929688 141.6875 237.847656 141.664062 C 237.761719 141.640625 237.675781 141.617188 237.59375 141.59375 C 237.421875 141.542969 237.25 141.496094 237.078125 141.445312 C 236.730469 141.34375 236.382812 141.25 236.0625 141.144531 C 235.742188 141.042969 235.441406 140.945312 235.179688 140.859375 C 234.917969 140.773438 234.699219 140.703125 234.539062 140.648438 C 234.382812 140.589844 234.285156 140.554688 234.265625 140.546875 C 233.800781 140.371094 233.367188 140.148438 232.992188 139.871094 C 232.617188 139.585938 232.292969 139.261719 232.027344 138.910156 C 231.894531 138.734375 231.777344 138.546875 231.675781 138.355469 C 231.574219 138.160156 231.488281 137.964844 231.414062 137.761719 C 231.273438 137.359375 231.191406 136.941406 231.179688 136.527344 C 231.128906 136.507812 231.078125 136.484375 231.027344 136.460938 L 229.804688 135.871094 L 228.601562 135.246094 C 228.25 136.703125 228.394531 138.222656 229.046875 139.523438 C 229.367188 140.183594 229.820312 140.773438 230.375 141.289062 C 230.648438 141.550781 230.960938 141.777344 231.289062 141.980469 C 231.457031 142.085938 231.628906 142.179688 231.804688 142.269531 C 231.980469 142.359375 232.160156 142.445312 232.351562 142.515625 C 232.40625 142.535156 232.90625 142.71875 233.636719 142.984375 C 234 143.113281 234.433594 143.246094 234.886719 143.398438 C 235.117188 143.46875 235.351562 143.550781 235.59375 143.621094 C 235.835938 143.691406 236.082031 143.761719 236.328125 143.832031 C 236.574219 143.902344 236.820312 143.972656 237.0625 144.042969 C 237.304688 144.113281 237.546875 144.167969 237.78125 144.226562 C 238.253906 144.339844 238.691406 144.453125 239.074219 144.539062 C 239.847656 144.699219 240.378906 144.8125 240.433594 144.824219 C 240.535156 144.84375 240.636719 144.863281 240.738281 144.878906 C 240.84375 144.894531 240.945312 144.90625 241.046875 144.914062 C 241.25 144.933594 241.457031 144.945312 241.65625 144.945312 C 241.859375 144.945312 242.058594 144.941406 242.257812 144.925781 C 242.453125 144.910156 242.648438 144.890625 242.839844 144.847656 C 243.226562 144.773438 243.601562 144.667969 243.957031 144.53125 C 244.316406 144.394531 244.652344 144.234375 244.972656 144.027344 C 245.613281 143.625 246.164062 143.121094 246.609375 142.535156 C 247.050781 141.933594 247.386719 141.253906 247.601562 140.523438 L 246.902344 140.492188 L 246.726562 140.484375 " fill-opacity="1" fill-rule="nonzero"/><path fill="#c5030e" d="M 232.636719 133.019531 C 232.6875 133.042969 232.734375 133.070312 232.78125 133.09375 C 233.097656 132.828125 233.445312 132.605469 233.808594 132.429688 C 233.988281 132.339844 234.171875 132.265625 234.363281 132.203125 C 234.550781 132.140625 234.742188 132.09375 234.9375 132.050781 C 235.324219 131.96875 235.71875 131.9375 236.109375 131.96875 C 236.5 131.996094 236.894531 132.0625 237.277344 132.207031 C 237.289062 132.214844 237.371094 132.246094 237.5 132.292969 C 237.628906 132.339844 237.808594 132.394531 238.023438 132.464844 C 238.234375 132.535156 238.476562 132.617188 238.738281 132.703125 C 239 132.789062 239.28125 132.863281 239.5625 132.945312 C 239.703125 132.988281 239.84375 133.027344 239.980469 133.066406 C 240.050781 133.085938 240.117188 133.109375 240.183594 133.128906 C 240.253906 133.144531 240.320312 133.160156 240.386719 133.179688 C 240.652344 133.246094 240.902344 133.308594 241.117188 133.359375 C 241.546875 133.476562 241.84375 133.53125 241.875 133.539062 C 242.261719 133.617188 242.617188 133.761719 242.949219 133.941406 C 243.28125 134.113281 243.585938 134.335938 243.863281 134.597656 C 244.140625 134.863281 244.390625 135.148438 244.605469 135.46875 C 244.820312 135.792969 244.996094 136.144531 245.132812 136.523438 L 245.453125 136.566406 L 245.777344 136.589844 L 246.417969 136.644531 C 246.632812 136.664062 246.847656 136.6875 247.0625 136.699219 L 247.707031 136.722656 C 247.558594 136.003906 247.328125 135.339844 247.035156 134.726562 C 246.746094 134.105469 246.394531 133.546875 246.003906 133.078125 C 245.953125 133.019531 245.90625 132.960938 245.855469 132.90625 C 245.804688 132.847656 245.753906 132.789062 245.703125 132.734375 C 245.597656 132.621094 245.492188 132.515625 245.382812 132.414062 C 245.167969 132.214844 244.9375 132.035156 244.699219 131.886719 C 244.460938 131.730469 244.214844 131.589844 243.957031 131.484375 C 243.828125 131.429688 243.695312 131.382812 243.5625 131.347656 C 243.492188 131.328125 243.425781 131.308594 243.355469 131.292969 C 243.289062 131.273438 243.21875 131.257812 243.148438 131.242188 C 243.109375 131.234375 242.734375 131.152344 242.191406 131.039062 C 241.917969 130.980469 241.605469 130.894531 241.273438 130.8125 C 241.105469 130.769531 240.933594 130.734375 240.757812 130.683594 C 240.585938 130.632812 240.410156 130.582031 240.230469 130.527344 C 240.054688 130.476562 239.878906 130.429688 239.703125 130.378906 C 239.53125 130.328125 239.359375 130.265625 239.195312 130.210938 C 238.867188 130.101562 238.554688 130.007812 238.289062 129.910156 C 237.753906 129.714844 237.386719 129.578125 237.347656 129.566406 C 237.207031 129.515625 237.070312 129.464844 236.929688 129.425781 C 236.789062 129.386719 236.644531 129.351562 236.5 129.328125 C 236.214844 129.277344 235.917969 129.265625 235.625 129.261719 C 235.035156 129.265625 234.421875 129.390625 233.816406 129.585938 C 232.605469 130.003906 231.394531 130.773438 230.394531 131.894531 L 231.511719 132.472656 L 232.636719 133.019531 " fill-opacity="1" fill-rule="nonzero"/><path fill="#c5030e" d="M 209.5625 127.285156 L 209.5625 127.28125 C 209.5625 127.28125 209.566406 127.285156 209.5625 127.277344 C 209.558594 127.285156 209.554688 127.289062 209.554688 127.289062 C 209.554688 127.289062 209.558594 127.285156 209.5625 127.285156 " fill-opacity="1" fill-rule="nonzero"/><path fill="#c5030e" d="M 209.5625 127.277344 C 209.5625 127.277344 209.558594 127.277344 209.558594 127.273438 C 209.5625 127.277344 209.5625 127.277344 209.5625 127.277344 " fill-opacity="1" fill-rule="nonzero"/><path fill="#c5030e" d="M 255.328125 139.472656 L 255.5 139.449219 L 255.667969 139.417969 L 256.339844 139.296875 L 257.015625 139.167969 C 257.125 139.148438 257.238281 139.128906 257.351562 139.105469 L 257.683594 139.027344 L 257.765625 139.007812 C 257.945312 138.96875 258.101562 138.886719 258.238281 138.78125 C 258.609375 138.488281 258.785156 137.988281 258.65625 137.484375 C 258.527344 136.984375 258.144531 136.621094 257.710938 136.511719 C 257.550781 136.472656 257.382812 136.46875 257.214844 136.507812 L 257.140625 136.527344 L 256.828125 136.597656 C 256.726562 136.621094 256.621094 136.636719 256.515625 136.660156 L 255.882812 136.773438 L 255.253906 136.890625 L 255.09375 136.921875 L 254.9375 136.941406 L 254.617188 136.984375 L 254.054688 137.066406 C 251.753906 137.371094 249.425781 137.453125 247.109375 137.316406 C 246.917969 137.3125 246.730469 137.289062 246.539062 137.273438 C 246.128906 137.238281 245.714844 137.207031 245.304688 137.164062 L 244.070312 137.003906 L 243.914062 136.984375 C 243.773438 136.964844 243.632812 136.96875 243.496094 137 C 243.035156 137.105469 242.644531 137.511719 242.542969 138.050781 C 242.445312 138.585938 242.683594 139.097656 243.109375 139.359375 C 243.238281 139.4375 243.382812 139.496094 243.539062 139.519531 L 243.695312 139.539062 L 245.011719 139.707031 C 245.453125 139.753906 245.894531 139.789062 246.335938 139.828125 C 246.539062 139.84375 246.742188 139.867188 246.945312 139.871094 C 249.425781 140.019531 251.921875 139.929688 254.386719 139.605469 L 254.988281 139.519531 L 255.328125 139.472656 " fill-opacity="1" fill-rule="nonzero"/><path fill="#c5030e" d="M 271.605469 133.921875 C 271.210938 134.15625 270.824219 134.398438 270.417969 134.613281 C 270.480469 135.464844 270.265625 136.335938 269.800781 137.117188 C 269.5625 137.496094 269.261719 137.847656 268.90625 138.164062 C 268.726562 138.320312 268.535156 138.46875 268.332031 138.601562 C 268.230469 138.671875 268.125 138.738281 268.015625 138.796875 C 267.90625 138.855469 267.792969 138.910156 267.675781 138.960938 C 267.640625 138.976562 267.296875 139.128906 266.800781 139.347656 C 266.550781 139.457031 266.265625 139.582031 265.957031 139.71875 C 265.644531 139.839844 265.3125 139.972656 264.980469 140.101562 C 264.648438 140.230469 264.3125 140.359375 264 140.480469 C 263.683594 140.59375 263.382812 140.695312 263.125 140.78125 C 262.605469 140.957031 262.246094 141.078125 262.210938 141.089844 C 261.972656 141.175781 261.730469 141.222656 261.488281 141.257812 C 261.25 141.292969 261.011719 141.3125 260.773438 141.316406 C 260.304688 141.320312 259.851562 141.277344 259.417969 141.140625 C 258.988281 141.007812 258.585938 140.824219 258.230469 140.589844 C 258.050781 140.472656 257.882812 140.34375 257.730469 140.203125 C 257.652344 140.132812 257.578125 140.058594 257.507812 139.984375 C 257.433594 139.902344 257.363281 139.824219 257.300781 139.738281 C 257.246094 139.753906 257.191406 139.765625 257.136719 139.777344 L 255.792969 140.027344 C 255.570312 140.070312 255.339844 140.09375 255.117188 140.128906 L 254.4375 140.222656 C 254.722656 140.917969 255.117188 141.550781 255.609375 142.097656 C 255.734375 142.234375 255.863281 142.367188 255.996094 142.492188 C 256.132812 142.613281 256.273438 142.730469 256.417969 142.839844 C 256.707031 143.058594 257.019531 143.25 257.351562 143.417969 C 257.683594 143.582031 258.035156 143.726562 258.394531 143.832031 C 258.753906 143.929688 259.128906 144 259.511719 144.035156 C 259.894531 144.070312 260.292969 144.082031 260.683594 144.042969 C 261.074219 144 261.472656 143.921875 261.863281 143.8125 C 261.890625 143.804688 262.035156 143.761719 262.265625 143.695312 C 262.382812 143.660156 262.519531 143.621094 262.675781 143.578125 C 262.828125 143.527344 262.996094 143.46875 263.183594 143.40625 C 263.550781 143.28125 263.976562 143.136719 264.429688 142.980469 C 264.546875 142.941406 264.660156 142.902344 264.777344 142.863281 C 264.890625 142.820312 265.007812 142.773438 265.125 142.730469 C 265.355469 142.640625 265.59375 142.546875 265.832031 142.457031 C 266.066406 142.363281 266.300781 142.269531 266.535156 142.179688 C 266.652344 142.132812 266.765625 142.085938 266.878906 142.042969 C 266.996094 141.996094 267.101562 141.945312 267.210938 141.898438 C 267.644531 141.707031 268.050781 141.527344 268.40625 141.371094 C 269.113281 141.066406 269.578125 140.820312 269.628906 140.800781 C 269.996094 140.621094 270.335938 140.417969 270.652344 140.1875 C 270.8125 140.074219 270.964844 139.953125 271.109375 139.832031 C 271.25 139.699219 271.386719 139.5625 271.511719 139.421875 C 272.023438 138.863281 272.425781 138.230469 272.699219 137.554688 C 273.226562 136.175781 273.261719 134.652344 272.78125 133.214844 L 271.605469 133.921875 " fill-opacity="1" fill-rule="nonzero"/><path fill="#c5030e" d="M 255.171875 136.277344 L 256.386719 136.050781 C 256.441406 136.042969 256.492188 136.035156 256.542969 136.03125 C 256.566406 135.929688 256.59375 135.835938 256.625 135.734375 C 256.652344 135.636719 256.6875 135.539062 256.722656 135.441406 C 256.789062 135.25 256.871094 135.0625 256.960938 134.882812 C 257.144531 134.527344 257.367188 134.195312 257.625 133.90625 C 257.882812 133.628906 258.171875 133.347656 258.492188 133.136719 C 258.65625 133.027344 258.824219 132.929688 259 132.851562 C 259.179688 132.765625 259.363281 132.703125 259.554688 132.632812 C 259.585938 132.621094 259.875 132.527344 260.296875 132.382812 C 260.507812 132.3125 260.75 132.234375 261.007812 132.144531 C 261.265625 132.046875 261.539062 131.9375 261.808594 131.832031 C 262.082031 131.730469 262.355469 131.625 262.609375 131.523438 C 262.863281 131.414062 263.101562 131.308594 263.304688 131.21875 C 263.714844 131.039062 263.996094 130.917969 264.027344 130.902344 C 264.117188 130.863281 264.210938 130.828125 264.300781 130.796875 C 264.394531 130.761719 264.484375 130.726562 264.578125 130.699219 C 264.761719 130.640625 264.953125 130.597656 265.140625 130.570312 C 265.519531 130.511719 265.902344 130.507812 266.289062 130.554688 C 267.046875 130.625 267.800781 130.898438 268.464844 131.347656 C 268.65625 131.242188 268.847656 131.144531 269.039062 131.03125 L 269.597656 130.695312 L 270.71875 130.023438 C 269.652344 129.007812 268.398438 128.328125 267.179688 128.039062 C 266.5625 127.878906 265.953125 127.8125 265.367188 127.859375 C 265.222656 127.871094 265.078125 127.894531 264.933594 127.914062 C 264.789062 127.933594 264.644531 127.960938 264.503906 127.996094 C 264.222656 128.0625 263.949219 128.160156 263.683594 128.292969 C 263.644531 128.308594 263.292969 128.496094 262.769531 128.714844 C 262.507812 128.828125 262.210938 128.960938 261.886719 129.101562 C 261.808594 129.136719 261.726562 129.175781 261.644531 129.210938 C 261.5625 129.242188 261.476562 129.273438 261.390625 129.304688 C 261.222656 129.371094 261.050781 129.4375 260.878906 129.503906 C 260.707031 129.570312 260.535156 129.640625 260.363281 129.703125 C 260.277344 129.738281 260.195312 129.773438 260.113281 129.800781 C 260.027344 129.832031 259.945312 129.859375 259.863281 129.886719 C 259.535156 129.996094 259.230469 130.097656 258.964844 130.1875 C 258.832031 130.234375 258.710938 130.273438 258.601562 130.3125 C 258.488281 130.34375 258.390625 130.371094 258.308594 130.394531 C 258.144531 130.441406 258.042969 130.46875 258.023438 130.472656 C 257.746094 130.550781 257.480469 130.660156 257.230469 130.800781 C 257.167969 130.835938 257.105469 130.871094 257.046875 130.902344 C 256.984375 130.9375 256.921875 130.972656 256.863281 131.011719 C 256.742188 131.085938 256.628906 131.171875 256.515625 131.257812 C 256.289062 131.4375 256.074219 131.640625 255.875 131.867188 C 255.675781 132.089844 255.484375 132.324219 255.308594 132.585938 C 255.136719 132.847656 254.972656 133.125 254.824219 133.425781 C 254.753906 133.574219 254.683594 133.726562 254.617188 133.886719 C 254.550781 134.039062 254.488281 134.195312 254.429688 134.359375 C 254.195312 135.003906 254.027344 135.710938 253.949219 136.453125 L 254.5625 136.367188 C 254.765625 136.339844 254.96875 136.320312 255.171875 136.277344 " fill-opacity="1" fill-rule="nonzero"/><path fill="#c5030e" d="M 303.351562 134.886719 C 302.464844 134.804688 301.570312 134.445312 300.808594 133.820312 C 300.777344 133.796875 300.5 133.566406 300.089844 133.230469 C 299.890625 133.0625 299.660156 132.867188 299.410156 132.65625 C 299.164062 132.445312 298.90625 132.21875 298.644531 131.996094 C 297.609375 131.09375 296.617188 130.152344 296.5625 130.101562 C 295.871094 129.441406 295.417969 128.632812 295.21875 127.792969 C 295.117188 127.371094 295.078125 126.945312 295.105469 126.523438 C 295.128906 126.105469 295.210938 125.691406 295.359375 125.300781 C 295.316406 125.261719 295.277344 125.226562 295.242188 125.1875 C 294.632812 124.542969 294.03125 123.890625 293.441406 123.230469 C 292.597656 124.472656 292.199219 125.917969 292.292969 127.332031 C 292.386719 128.746094 292.976562 130.125 294.066406 131.183594 C 294.140625 131.257812 295.507812 132.578125 296.953125 133.835938 C 297.316406 134.152344 297.675781 134.464844 298.023438 134.757812 C 298.195312 134.902344 298.363281 135.042969 298.523438 135.175781 C 298.683594 135.308594 298.835938 135.433594 298.976562 135.550781 C 299.121094 135.667969 299.253906 135.773438 299.371094 135.871094 C 299.488281 135.96875 299.59375 136.050781 299.683594 136.121094 C 299.859375 136.261719 299.96875 136.347656 299.992188 136.363281 C 301.210938 137.34375 302.714844 137.773438 304.167969 137.675781 C 304.53125 137.652344 304.886719 137.597656 305.242188 137.507812 C 305.597656 137.421875 305.945312 137.300781 306.277344 137.152344 C 306.945312 136.855469 307.574219 136.433594 308.125 135.910156 C 307.355469 135.417969 306.605469 134.898438 305.863281 134.371094 C 305.117188 134.792969 304.238281 134.976562 303.351562 134.886719 " fill-opacity="1" fill-rule="nonzero"/><path fill="#c5030e" d="M 298.105469 122.695312 C 298.496094 122.566406 298.902344 122.488281 299.308594 122.464844 C 299.714844 122.445312 300.125 122.472656 300.519531 122.554688 C 301.308594 122.722656 302.054688 123.089844 302.667969 123.679688 C 302.71875 123.722656 303.605469 124.566406 304.519531 125.371094 C 304.75 125.570312 304.980469 125.769531 305.195312 125.957031 C 305.414062 126.140625 305.617188 126.316406 305.792969 126.464844 C 306.152344 126.761719 306.398438 126.964844 306.421875 126.984375 C 306.738281 127.246094 307.007812 127.539062 307.230469 127.863281 C 307.457031 128.179688 307.632812 128.53125 307.765625 128.894531 C 307.898438 129.257812 307.980469 129.644531 308.019531 130.035156 C 308.054688 130.421875 308.046875 130.820312 307.984375 131.214844 C 308.160156 131.347656 308.339844 131.46875 308.519531 131.59375 C 308.699219 131.71875 308.875 131.847656 309.054688 131.96875 C 309.417969 132.210938 309.777344 132.457031 310.144531 132.691406 C 310.378906 131.996094 310.511719 131.296875 310.5625 130.613281 C 310.585938 130.269531 310.585938 129.933594 310.5625 129.605469 C 310.546875 129.273438 310.503906 128.953125 310.441406 128.640625 C 310.1875 127.394531 309.601562 126.316406 308.636719 125.546875 C 308.570312 125.496094 307.34375 124.519531 306.15625 123.46875 C 304.964844 122.421875 303.816406 121.304688 303.75 121.246094 C 302.839844 120.359375 301.644531 119.886719 300.335938 119.796875 C 299.027344 119.710938 297.601562 120.003906 296.28125 120.703125 C 296.84375 121.335938 297.417969 121.957031 298 122.570312 C 298.039062 122.609375 298.070312 122.652344 298.105469 122.695312 " fill-opacity="1" fill-rule="nonzero"/><path fill="#c5030e" d="M 280.53125 126.851562 L 280.59375 126.796875 C 280.726562 126.675781 280.828125 126.53125 280.894531 126.375 C 281.078125 125.941406 280.996094 125.417969 280.652344 125.03125 C 280.308594 124.644531 279.804688 124.5 279.367188 124.617188 C 279.207031 124.660156 279.054688 124.738281 278.921875 124.855469 L 278.867188 124.90625 L 276.859375 126.566406 L 276.402344 126.917969 L 275.003906 127.996094 L 273.566406 129.015625 C 273.09375 129.367188 272.59375 129.679688 272.105469 130 L 271.367188 130.480469 L 271.183594 130.601562 L 270.996094 130.714844 L 270.617188 130.941406 L 270.125 131.234375 L 269.585938 131.558594 L 269.316406 131.71875 L 269.042969 131.867188 L 267.941406 132.464844 L 267.800781 132.539062 C 267.671875 132.609375 267.5625 132.703125 267.476562 132.808594 C 267.164062 133.167969 267.085938 133.722656 267.328125 134.214844 C 267.566406 134.703125 268.0625 134.976562 268.558594 134.941406 C 268.707031 134.925781 268.851562 134.882812 268.992188 134.808594 L 269.128906 134.734375 L 270.285156 134.105469 L 270.578125 133.949219 L 270.859375 133.78125 L 271.421875 133.441406 L 271.941406 133.132812 L 272.335938 132.894531 L 272.535156 132.777344 L 272.726562 132.652344 L 273.5 132.148438 C 274.011719 131.8125 274.53125 131.484375 275.023438 131.121094 L 276.523438 130.054688 L 277.980469 128.9375 L 278.453125 128.570312 L 280.53125 126.851562 " fill-opacity="1" fill-rule="nonzero"/><g clip-path="url(#6f2b73dcef)"><path fill="#c5030e" d="M 333.839844 139.992188 C 333.632812 139.058594 333.277344 138.199219 332.847656 137.433594 C 332.632812 137.054688 332.398438 136.699219 332.15625 136.371094 C 331.910156 136.039062 331.652344 135.726562 331.390625 135.449219 C 331.257812 135.3125 331.125 135.179688 330.988281 135.058594 C 330.855469 134.933594 330.71875 134.8125 330.578125 134.699219 C 330.304688 134.480469 330.027344 134.300781 329.742188 134.136719 C 329.601562 134.058594 329.457031 133.988281 329.3125 133.933594 L 329.097656 133.847656 C 329.023438 133.820312 328.953125 133.796875 328.878906 133.777344 C 328.734375 133.734375 328.585938 133.703125 328.433594 133.683594 C 328.285156 133.660156 328.132812 133.640625 327.980469 133.640625 C 327.910156 133.648438 326.628906 133.628906 325.324219 133.453125 C 324.019531 133.277344 322.691406 132.941406 322.621094 132.914062 C 322.097656 132.777344 321.554688 132.746094 321 132.820312 C 320.726562 132.851562 320.445312 132.917969 320.164062 133.003906 C 319.882812 133.082031 319.597656 133.191406 319.316406 133.320312 C 319.03125 133.457031 318.75 133.601562 318.46875 133.773438 C 318.191406 133.945312 317.914062 134.140625 317.644531 134.355469 C 317.109375 134.777344 316.59375 135.289062 316.136719 135.875 C 316.273438 135.9375 316.410156 135.996094 316.546875 136.054688 C 316.699219 136.125 316.851562 136.191406 317.003906 136.253906 C 317.09375 136.292969 317.1875 136.332031 317.277344 136.367188 L 317.363281 136.402344 C 317.445312 136.433594 317.527344 136.46875 317.609375 136.5 L 317.828125 136.589844 L 318.175781 136.722656 L 318.398438 136.804688 C 318.425781 136.816406 318.453125 136.824219 318.480469 136.839844 L 318.480469 136.835938 C 318.625 136.691406 318.777344 136.558594 318.9375 136.4375 C 319.097656 136.3125 319.261719 136.199219 319.429688 136.09375 C 319.597656 135.992188 319.773438 135.898438 319.949219 135.820312 C 320.035156 135.78125 320.125 135.746094 320.214844 135.710938 C 320.304688 135.675781 320.394531 135.640625 320.484375 135.613281 C 320.851562 135.488281 321.21875 135.433594 321.59375 135.40625 C 321.78125 135.394531 321.964844 135.398438 322.152344 135.417969 C 322.339844 135.4375 322.527344 135.460938 322.710938 135.507812 C 322.769531 135.523438 323.847656 135.769531 324.921875 135.921875 C 326 136.078125 327.070312 136.121094 327.128906 136.125 C 327.257812 136.132812 327.386719 136.144531 327.511719 136.167969 C 327.636719 136.1875 327.757812 136.210938 327.878906 136.242188 C 328 136.273438 328.117188 136.308594 328.234375 136.355469 C 328.292969 136.378906 328.351562 136.402344 328.410156 136.429688 C 328.46875 136.453125 328.523438 136.476562 328.582031 136.503906 C 328.808594 136.609375 329.027344 136.742188 329.238281 136.894531 C 329.449219 137.050781 329.648438 137.210938 329.839844 137.402344 C 330.027344 137.589844 330.210938 137.796875 330.375 138.023438 C 330.539062 138.242188 330.6875 138.480469 330.820312 138.730469 C 331.082031 139.238281 331.273438 139.800781 331.347656 140.410156 C 331.417969 141.015625 331.359375 141.609375 331.175781 142.164062 C 331.082031 142.441406 330.960938 142.707031 330.804688 142.960938 C 330.652344 143.210938 330.464844 143.441406 330.253906 143.65625 C 330.042969 143.871094 329.800781 144.074219 329.539062 144.238281 C 329.273438 144.40625 328.988281 144.550781 328.679688 144.671875 C 328.605469 144.699219 328.523438 144.726562 328.445312 144.753906 C 328.367188 144.777344 328.289062 144.800781 328.207031 144.820312 C 328.046875 144.863281 327.878906 144.894531 327.710938 144.921875 C 327.539062 144.949219 327.367188 144.96875 327.191406 144.980469 C 327.019531 144.988281 326.839844 144.984375 326.660156 144.976562 C 326.582031 144.972656 325.089844 144.90625 323.625 144.679688 C 322.164062 144.46875 320.734375 144.132812 320.660156 144.109375 C 320.410156 144.050781 320.167969 143.980469 319.941406 143.886719 C 319.710938 143.792969 319.496094 143.683594 319.289062 143.5625 C 318.875 143.332031 318.519531 143.023438 318.214844 142.699219 C 318.136719 142.617188 318.066406 142.53125 317.996094 142.445312 C 317.929688 142.359375 317.863281 142.269531 317.804688 142.175781 C 317.6875 141.992188 317.578125 141.804688 317.488281 141.609375 C 317.398438 141.417969 317.324219 141.21875 317.269531 141.015625 C 317.210938 140.8125 317.171875 140.605469 317.148438 140.394531 C 317.121094 140.386719 317.097656 140.375 317.074219 140.367188 L 316.617188 140.195312 L 316.503906 140.152344 C 316.4375 140.128906 316.375 140.101562 316.308594 140.074219 L 315.867188 139.894531 C 315.425781 139.71875 314.996094 139.527344 314.5625 139.335938 C 314.4375 140.074219 314.4375 140.816406 314.5625 141.539062 C 314.628906 141.898438 314.726562 142.25 314.855469 142.589844 C 314.984375 142.929688 315.144531 143.269531 315.339844 143.578125 C 315.535156 143.890625 315.757812 144.191406 316.011719 144.476562 C 316.265625 144.75 316.550781 145.007812 316.859375 145.242188 C 317.488281 145.707031 318.21875 146.074219 319.03125 146.289062 C 319.140625 146.324219 321.179688 146.871094 323.3125 147.167969 C 323.578125 147.203125 323.84375 147.238281 324.109375 147.273438 C 324.242188 147.289062 324.371094 147.308594 324.5 147.320312 C 324.628906 147.332031 324.757812 147.34375 324.886719 147.359375 C 325.136719 147.378906 325.382812 147.402344 325.617188 147.425781 C 325.851562 147.449219 326.074219 147.453125 326.28125 147.464844 C 326.488281 147.476562 326.679688 147.484375 326.847656 147.496094 C 326.933594 147.5 327.015625 147.503906 327.089844 147.507812 C 327.167969 147.507812 327.238281 147.511719 327.300781 147.511719 C 327.554688 147.515625 327.714844 147.519531 327.742188 147.519531 C 328.003906 147.519531 328.265625 147.515625 328.519531 147.492188 C 328.777344 147.460938 329.027344 147.421875 329.273438 147.367188 C 329.761719 147.269531 330.230469 147.097656 330.664062 146.894531 C 331.101562 146.695312 331.503906 146.429688 331.863281 146.140625 C 332.042969 145.992188 332.214844 145.839844 332.375 145.679688 C 332.535156 145.511719 332.683594 145.339844 332.820312 145.160156 C 333.09375 144.800781 333.324219 144.421875 333.503906 144.011719 C 333.683594 143.601562 333.816406 143.171875 333.902344 142.734375 C 334.070312 141.855469 334.042969 140.929688 333.839844 139.992188 " fill-opacity="1" fill-rule="nonzero"/></g><path fill="#c5030e" d="M 314.953125 138.832031 L 315.554688 139.097656 C 315.757812 139.183594 315.960938 139.261719 316.164062 139.347656 C 316.367188 139.429688 316.566406 139.515625 316.773438 139.59375 L 317.390625 139.824219 L 317.546875 139.882812 C 317.691406 139.9375 317.839844 139.957031 317.984375 139.949219 C 318.484375 139.929688 318.9375 139.589844 319.105469 139.070312 C 319.273438 138.550781 319.125 138.011719 318.785156 137.695312 C 318.683594 137.601562 318.558594 137.53125 318.421875 137.476562 L 318.285156 137.425781 L 317.710938 137.210938 C 317.519531 137.136719 317.328125 137.054688 317.140625 136.980469 C 316.949219 136.902344 316.757812 136.828125 316.570312 136.742188 L 316.003906 136.496094 L 315.746094 136.382812 L 315.488281 136.261719 C 314.488281 135.800781 313.503906 135.289062 312.535156 134.75 C 311.570312 134.203125 310.617188 133.628906 309.683594 133.019531 C 309.597656 132.960938 309.511719 132.90625 309.425781 132.847656 L 309.207031 132.703125 L 308.949219 132.527344 C 308.339844 132.117188 307.742188 131.691406 307.144531 131.257812 C 307.046875 131.183594 306.945312 131.109375 306.847656 131.035156 L 306.789062 130.988281 C 306.742188 130.957031 306.699219 130.929688 306.652344 130.902344 C 306.550781 130.847656 306.441406 130.8125 306.332031 130.789062 C 305.886719 130.707031 305.390625 130.882812 305.070312 131.292969 C 304.753906 131.699219 304.707031 132.230469 304.917969 132.640625 C 304.984375 132.773438 305.078125 132.890625 305.191406 132.988281 C 305.210938 133.007812 305.234375 133.023438 305.253906 133.039062 L 305.316406 133.085938 C 305.4375 133.179688 305.5625 133.269531 305.6875 133.363281 C 306.289062 133.800781 306.894531 134.230469 307.511719 134.648438 L 307.8125 134.851562 L 308.007812 134.980469 C 308.109375 135.050781 308.210938 135.113281 308.3125 135.179688 C 309.28125 135.816406 310.277344 136.417969 311.292969 136.988281 C 312.308594 137.554688 313.34375 138.09375 314.40625 138.582031 L 314.675781 138.710938 L 314.953125 138.832031 " fill-opacity="1" fill-rule="nonzero"/><g clip-path="url(#e5de7a0f0c)"><path fill="#c5030e" d="M 29.621094 239.816406 C 29.589844 239.804688 29.558594 239.792969 29.527344 239.785156 C 29.453125 238.957031 29.128906 238.160156 28.605469 237.492188 C 28.078125 236.824219 27.347656 236.28125 26.464844 235.972656 C 26.398438 235.945312 25.128906 235.492188 23.855469 235.066406 C 22.582031 234.636719 21.296875 234.234375 21.226562 234.214844 C 19.988281 233.835938 18.71875 233.984375 17.691406 234.535156 C 16.664062 235.082031 15.882812 236.023438 15.574219 237.207031 C 15.261719 238.390625 15.464844 239.589844 16.015625 240.574219 C 16.570312 241.5625 17.480469 242.335938 18.632812 242.691406 C 18.699219 242.710938 19.898438 243.082031 21.089844 243.476562 C 22.28125 243.871094 23.464844 244.289062 23.527344 244.316406 C 24.351562 244.605469 25.207031 244.640625 26.007812 244.464844 C 26.808594 244.285156 27.558594 243.894531 28.164062 243.324219 L 28.234375 243.355469 C 29.03125 243.671875 29.828125 243.988281 30.617188 244.320312 C 29.726562 245.527344 28.554688 246.40625 27.308594 246.878906 C 26.0625 247.351562 24.738281 247.417969 23.488281 246.96875 C 23.40625 246.933594 21.84375 246.367188 20.265625 245.847656 C 18.691406 245.320312 17.101562 244.84375 17.011719 244.816406 C 15.484375 244.363281 14.3125 243.238281 13.605469 241.761719 C 12.902344 240.285156 12.667969 238.457031 13.074219 236.582031 C 13.488281 234.710938 14.59375 233.179688 16.039062 232.253906 C 17.480469 231.324219 19.261719 231.003906 20.972656 231.515625 C 21.070312 231.542969 22.839844 232.082031 24.59375 232.675781 C 26.347656 233.261719 28.089844 233.902344 28.183594 233.9375 C 29.570312 234.4375 30.660156 235.417969 31.335938 236.644531 C 32.015625 237.867188 32.277344 239.328125 32.066406 240.808594 C 31.253906 240.464844 30.4375 240.140625 29.621094 239.816406 " fill-opacity="1" fill-rule="nonzero"/></g><path fill="#c5030e" d="M 39.5625 244.976562 L 40.160156 245.292969 C 40.558594 245.5 40.953125 245.71875 41.347656 245.929688 L 41.417969 245.972656 C 41.578125 246.058594 41.707031 246.179688 41.804688 246.316406 C 42.074219 246.699219 42.109375 247.230469 41.851562 247.679688 C 41.59375 248.128906 41.125 248.375 40.671875 248.351562 C 40.503906 248.34375 40.339844 248.296875 40.183594 248.214844 L 40.117188 248.179688 C 39.734375 247.96875 39.351562 247.757812 38.964844 247.558594 L 38.386719 247.25 L 37.800781 246.953125 C 37.628906 246.863281 37.457031 246.773438 37.28125 246.6875 C 35.160156 245.621094 32.992188 244.640625 30.800781 243.722656 L 30.261719 243.5 C 29.472656 243.179688 28.6875 242.863281 27.894531 242.558594 L 27.742188 242.5 C 27.605469 242.449219 27.484375 242.371094 27.378906 242.273438 C 27.023438 241.941406 26.890625 241.394531 27.078125 240.878906 C 27.269531 240.371094 27.730469 240.050781 28.21875 240.035156 C 28.367188 240.03125 28.515625 240.054688 28.660156 240.109375 L 28.804688 240.164062 C 29.617188 240.476562 30.421875 240.800781 31.226562 241.128906 L 31.777344 241.355469 C 34.023438 242.296875 36.246094 243.300781 38.429688 244.398438 C 38.609375 244.488281 38.785156 244.578125 38.960938 244.667969 L 39.5625 244.976562 " fill-opacity="1" fill-rule="nonzero"/><path fill="#c5030e" d="M 73.058594 254.945312 C 72.996094 256.277344 72.527344 257.519531 71.621094 258.484375 C 71.554688 258.550781 70.417969 259.753906 69.308594 260.996094 C 68.199219 262.234375 67.128906 263.5 67.070312 263.570312 C 66.046875 264.792969 64.546875 265.421875 62.914062 265.480469 C 61.277344 265.542969 59.503906 265.027344 57.949219 263.910156 C 56.398438 262.785156 55.429688 261.164062 55.15625 259.46875 C 55.113281 259.21875 55.089844 258.964844 55.078125 258.710938 C 55.347656 258.863281 55.617188 259.011719 55.886719 259.164062 C 56.058594 259.257812 56.226562 259.355469 56.386719 259.449219 L 56.953125 259.773438 L 57.515625 260.105469 C 57.792969 260.269531 58.070312 260.4375 58.335938 260.601562 C 58.386719 260.628906 58.4375 260.660156 58.484375 260.691406 C 58.746094 261.132812 59.089844 261.53125 59.515625 261.867188 C 60.476562 262.621094 61.65625 262.914062 62.78125 262.796875 C 63.90625 262.679688 64.980469 262.15625 65.765625 261.238281 C 65.808594 261.1875 66.625 260.234375 67.460938 259.300781 C 68.300781 258.363281 69.152344 257.445312 69.199219 257.394531 C 69.796875 256.753906 70.167969 255.984375 70.324219 255.179688 C 70.480469 254.375 70.417969 253.53125 70.136719 252.75 L 70.191406 252.695312 C 70.796875 252.089844 71.40625 251.484375 72.023438 250.894531 C 72.777344 252.191406 73.117188 253.613281 73.058594 254.945312 " fill-opacity="1" fill-rule="nonzero"/><path fill="#c5030e" d="M 67.644531 250.371094 C 66.855469 250.113281 65.996094 250.089844 65.171875 250.308594 C 64.351562 250.523438 63.5625 250.980469 62.929688 251.664062 C 62.878906 251.71875 61.957031 252.699219 61.058594 253.699219 C 60.15625 254.699219 59.277344 255.71875 59.230469 255.773438 C 58.984375 256.066406 58.777344 256.378906 58.609375 256.703125 L 58.40625 256.585938 C 58.246094 256.492188 58.0625 256.386719 57.878906 256.285156 C 57.355469 255.992188 56.828125 255.699219 56.292969 255.410156 C 56.402344 255.246094 56.523438 255.085938 56.652344 254.933594 C 56.71875 254.855469 57.917969 253.445312 59.160156 252.070312 C 60.394531 250.695312 61.671875 249.351562 61.746094 249.28125 C 62.757812 248.207031 64.089844 247.597656 65.480469 247.460938 C 66.871094 247.328125 68.320312 247.667969 69.59375 248.449219 C 68.957031 249.058594 68.332031 249.679688 67.710938 250.300781 C 67.6875 250.324219 67.664062 250.347656 67.644531 250.371094 " fill-opacity="1" fill-rule="nonzero"/><path fill="#c5030e" d="M 58.136719 257.046875 L 58.394531 257.195312 L 58.863281 257.46875 L 59.304688 257.726562 C 59.691406 257.953125 60.074219 258.191406 60.460938 258.425781 L 60.527344 258.464844 C 60.683594 258.558594 60.804688 258.6875 60.898438 258.832031 C 61.148438 259.226562 61.15625 259.757812 60.875 260.195312 C 60.597656 260.628906 60.117188 260.855469 59.667969 260.808594 C 59.5 260.792969 59.335938 260.738281 59.1875 260.648438 L 59.121094 260.609375 C 59.113281 260.601562 59.101562 260.59375 59.089844 260.589844 C 58.832031 260.433594 58.574219 260.273438 58.3125 260.117188 C 58.210938 260.054688 58.105469 259.992188 58 259.933594 L 57.4375 259.597656 L 56.867188 259.273438 C 56.699219 259.175781 56.53125 259.078125 56.363281 258.984375 C 56.007812 258.785156 55.652344 258.585938 55.296875 258.390625 C 55.125 258.296875 54.957031 258.203125 54.785156 258.113281 C 53.222656 257.269531 51.632812 256.46875 50.03125 255.707031 L 49.503906 255.457031 C 48.734375 255.097656 47.960938 254.742188 47.183594 254.402344 L 47.039062 254.335938 C 46.902344 254.277344 46.785156 254.195312 46.683594 254.09375 C 46.347656 253.746094 46.238281 253.1875 46.453125 252.6875 C 46.667969 252.1875 47.144531 251.886719 47.632812 251.898438 C 47.78125 251.898438 47.929688 251.929688 48.070312 251.992188 L 48.210938 252.054688 C 49.003906 252.40625 49.792969 252.769531 50.582031 253.136719 L 51.121094 253.390625 C 52.609375 254.097656 54.085938 254.835938 55.542969 255.613281 C 55.699219 255.699219 55.859375 255.78125 56.015625 255.867188 C 56.550781 256.15625 57.085938 256.449219 57.617188 256.75 C 57.792969 256.847656 57.964844 256.949219 58.136719 257.046875 " fill-opacity="1" fill-rule="nonzero"/><g clip-path="url(#eaab4a0ff0)"><path fill="#c5030e" d="M 123.117188 256.996094 C 123.179688 258.328125 123.648438 259.570312 124.558594 260.535156 C 124.621094 260.597656 125.761719 261.804688 126.867188 263.046875 C 127.976562 264.285156 129.046875 265.550781 129.105469 265.621094 C 130.128906 266.84375 131.628906 267.472656 133.261719 267.535156 C 134.898438 267.59375 136.671875 267.082031 138.226562 265.960938 C 139.777344 264.839844 140.742188 263.214844 141.019531 261.519531 C 141.0625 261.269531 141.085938 261.015625 141.097656 260.765625 C 140.828125 260.914062 140.558594 261.0625 140.289062 261.214844 C 140.117188 261.3125 139.949219 261.410156 139.789062 261.5 L 139.222656 261.824219 L 138.660156 262.15625 C 138.382812 262.320312 138.105469 262.488281 137.839844 262.652344 C 137.789062 262.683594 137.742188 262.710938 137.691406 262.742188 C 137.429688 263.183594 137.085938 263.582031 136.660156 263.917969 C 135.699219 264.671875 134.519531 264.964844 133.394531 264.851562 C 132.269531 264.734375 131.195312 264.207031 130.414062 263.289062 C 130.367188 263.238281 129.550781 262.285156 128.714844 261.351562 C 127.878906 260.414062 127.023438 259.492188 126.976562 259.445312 C 126.382812 258.800781 126.007812 258.035156 125.851562 257.230469 C 125.699219 256.421875 125.757812 255.582031 126.039062 254.796875 L 125.984375 254.742188 C 125.378906 254.136719 124.769531 253.535156 124.152344 252.941406 C 123.398438 254.238281 123.058594 255.664062 123.117188 256.996094 " fill-opacity="1" fill-rule="nonzero"/></g><path fill="#c5030e" d="M 128.53125 252.421875 C 129.320312 252.164062 130.179688 252.140625 131.003906 252.359375 C 131.824219 252.574219 132.613281 253.03125 133.25 253.714844 C 133.300781 253.769531 134.21875 254.75 135.117188 255.75 C 136.019531 256.75 136.898438 257.769531 136.945312 257.824219 C 137.195312 258.117188 137.398438 258.429688 137.566406 258.753906 L 137.773438 258.636719 C 137.929688 258.546875 138.113281 258.441406 138.300781 258.335938 C 138.820312 258.042969 139.347656 257.75 139.882812 257.460938 C 139.773438 257.296875 139.652344 257.140625 139.523438 256.984375 C 139.457031 256.90625 138.257812 255.496094 137.019531 254.121094 C 135.78125 252.746094 134.503906 251.402344 134.433594 251.332031 C 133.421875 250.257812 132.085938 249.648438 130.695312 249.511719 C 129.304688 249.375 127.855469 249.71875 126.585938 250.5 C 127.222656 251.109375 127.84375 251.726562 128.46875 252.351562 C 128.488281 252.375 128.511719 252.398438 128.53125 252.421875 " fill-opacity="1" fill-rule="nonzero"/><path fill="#c5030e" d="M 137.921875 259.179688 L 137.6875 259.351562 L 137.378906 259.574219 L 137.246094 259.671875 L 136.835938 259.976562 C 136.472656 260.242188 136.117188 260.519531 135.761719 260.792969 L 135.695312 260.839844 C 135.550781 260.949219 135.445312 261.089844 135.367188 261.242188 C 135.160156 261.664062 135.207031 262.191406 135.53125 262.597656 C 135.851562 263 136.355469 263.171875 136.800781 263.082031 C 136.964844 263.046875 137.121094 262.976562 137.261719 262.867188 L 137.320312 262.824219 C 137.328125 262.816406 137.339844 262.808594 137.347656 262.800781 C 137.589844 262.617188 137.832031 262.433594 138.070312 262.25 C 138.167969 262.179688 138.265625 262.105469 138.363281 262.03125 L 138.890625 261.640625 L 139.421875 261.257812 C 139.578125 261.144531 139.734375 261.03125 139.894531 260.917969 C 140.226562 260.679688 140.558594 260.445312 140.890625 260.214844 C 141.050781 260.105469 141.210938 259.992188 141.371094 259.882812 C 142.835938 258.882812 144.332031 257.921875 145.847656 256.992188 L 146.34375 256.691406 C 147.070312 256.253906 147.800781 255.820312 148.539062 255.398438 L 148.679688 255.316406 C 148.804688 255.242188 148.914062 255.148438 149.003906 255.035156 C 149.300781 254.65625 149.351562 254.089844 149.085938 253.613281 C 148.820312 253.140625 148.316406 252.890625 147.832031 252.953125 C 147.683594 252.972656 147.539062 253.015625 147.40625 253.09375 L 147.273438 253.171875 C 146.519531 253.601562 145.773438 254.046875 145.027344 254.492188 L 144.515625 254.804688 C 143.109375 255.664062 141.722656 256.554688 140.351562 257.480469 C 140.207031 257.582031 140.058594 257.679688 139.914062 257.78125 C 139.410156 258.125 138.90625 258.476562 138.410156 258.828125 C 138.246094 258.945312 138.085938 259.0625 137.921875 259.179688 " fill-opacity="1" fill-rule="nonzero"/><path fill="#c5030e" d="M 55.625 252.183594 L 55.621094 252.25 C 55.617188 252.273438 55.601562 252.285156 55.59375 252.300781 C 55.515625 252.425781 55.449219 252.566406 55.378906 252.714844 C 55.09375 253.300781 54.8125 253.984375 54.488281 254.699219 L 54.140625 254.367188 C 54.085938 254.3125 54.027344 254.257812 53.964844 254.203125 L 53.75 254.007812 C 53.410156 253.691406 53.0625 253.390625 52.714844 253.085938 C 52.832031 252.667969 52.875 252.238281 52.855469 251.804688 C 52.835938 251.367188 52.75 250.925781 52.59375 250.507812 C 52.515625 250.296875 52.421875 250.085938 52.3125 249.882812 C 52.203125 249.679688 52.078125 249.484375 51.933594 249.296875 C 51.652344 248.914062 51.300781 248.574219 50.898438 248.273438 C 50.839844 248.226562 49.707031 247.398438 48.554688 246.621094 C 48.265625 246.425781 47.976562 246.230469 47.703125 246.054688 C 47.429688 245.875 47.171875 245.710938 46.953125 245.566406 C 46.503906 245.285156 46.195312 245.09375 46.164062 245.074219 C 45.753906 244.820312 45.316406 244.640625 44.882812 244.519531 C 44.441406 244.40625 44 244.355469 43.566406 244.367188 C 43.132812 244.378906 42.710938 244.453125 42.308594 244.582031 C 41.910156 244.714844 41.53125 244.90625 41.1875 245.148438 C 41.144531 245.117188 41.097656 245.089844 41.046875 245.0625 C 40.65625 244.851562 40.261719 244.644531 39.871094 244.4375 C 39.472656 244.234375 39.078125 244.03125 38.683594 243.832031 C 39.175781 243.261719 39.742188 242.789062 40.363281 242.421875 C 40.984375 242.050781 41.652344 241.796875 42.351562 241.65625 C 43.742188 241.378906 45.234375 241.59375 46.554688 242.375 C 46.644531 242.429688 48.289062 243.417969 49.902344 244.511719 C 50.308594 244.78125 50.707031 245.066406 51.085938 245.324219 C 51.460938 245.589844 51.8125 245.847656 52.113281 246.066406 C 52.71875 246.515625 53.136719 246.828125 53.179688 246.863281 C 53.496094 247.105469 53.789062 247.371094 54.046875 247.660156 C 54.308594 247.949219 54.539062 248.257812 54.738281 248.578125 C 54.933594 248.90625 55.101562 249.246094 55.234375 249.59375 C 55.371094 249.941406 55.46875 250.304688 55.539062 250.667969 C 55.570312 250.847656 55.597656 251.03125 55.613281 251.214844 C 55.632812 251.398438 55.640625 251.582031 55.640625 251.769531 C 55.640625 251.859375 55.636719 251.953125 55.632812 252.042969 L 55.625 252.183594 " fill-opacity="1" fill-rule="nonzero"/><path fill="#c5030e" d="M 38.117188 247.8125 C 38.492188 248.011719 38.871094 248.207031 39.246094 248.410156 C 39.292969 248.433594 39.339844 248.457031 39.390625 248.480469 C 39.367188 248.894531 39.402344 249.304688 39.488281 249.703125 C 39.574219 250.101562 39.707031 250.488281 39.894531 250.847656 C 40.074219 251.207031 40.304688 251.546875 40.582031 251.84375 C 40.851562 252.148438 41.175781 252.410156 41.535156 252.632812 C 41.566406 252.652344 41.839844 252.820312 42.234375 253.070312 C 42.429688 253.195312 42.65625 253.339844 42.898438 253.496094 C 43.140625 253.648438 43.390625 253.820312 43.644531 253.988281 C 44.652344 254.664062 45.628906 255.375 45.675781 255.414062 C 46.003906 255.65625 46.359375 255.839844 46.71875 255.976562 C 46.902344 256.046875 47.085938 256.101562 47.277344 256.144531 C 47.464844 256.1875 47.652344 256.21875 47.847656 256.238281 C 48.039062 256.257812 48.234375 256.261719 48.429688 256.253906 C 48.621094 256.25 48.816406 256.234375 49.007812 256.207031 C 49.394531 256.148438 49.78125 256.042969 50.148438 255.890625 C 50.476562 256.179688 50.808594 256.460938 51.128906 256.757812 L 51.382812 256.992188 C 51.492188 257.089844 51.589844 257.183594 51.695312 257.28125 L 52.296875 257.875 C 52.011719 258.089844 51.699219 258.265625 51.359375 258.394531 C 51.019531 258.523438 50.660156 258.597656 50.261719 258.632812 C 50.164062 258.640625 50.0625 258.648438 49.953125 258.648438 C 49.902344 258.648438 49.847656 258.648438 49.792969 258.644531 L 49.753906 258.644531 L 49.722656 258.652344 L 49.664062 258.667969 C 49.5 258.707031 49.335938 258.742188 49.175781 258.769531 C 48.855469 258.828125 48.535156 258.867188 48.21875 258.882812 C 46.964844 258.9375 45.796875 258.640625 44.828125 257.910156 C 44.796875 257.882812 44.464844 257.640625 43.992188 257.289062 C 43.75 257.117188 43.46875 256.917969 43.171875 256.703125 C 42.867188 256.496094 42.550781 256.269531 42.21875 256.054688 C 40.917969 255.175781 39.542969 254.355469 39.46875 254.3125 C 38.375 253.664062 37.605469 252.632812 37.175781 251.386719 C 36.957031 250.765625 36.828125 250.089844 36.792969 249.390625 C 36.757812 248.691406 36.816406 247.960938 36.980469 247.230469 C 37.363281 247.421875 37.738281 247.617188 38.117188 247.8125 " fill-opacity="1" fill-rule="nonzero"/><path fill="#c5030e" d="M 77.503906 244.617188 C 77.707031 244.519531 77.910156 244.414062 78.117188 244.324219 L 78.742188 244.042969 L 79.363281 243.761719 L 79.992188 243.5 L 80.070312 243.46875 C 80.238281 243.398438 80.414062 243.371094 80.585938 243.378906 C 80.703125 243.382812 80.816406 243.40625 80.925781 243.449219 C 81.035156 243.488281 81.140625 243.546875 81.238281 243.617188 C 81.429688 243.761719 81.582031 243.960938 81.675781 244.203125 C 81.769531 244.445312 81.789062 244.691406 81.746094 244.921875 C 81.726562 245.039062 81.691406 245.148438 81.644531 245.25 C 81.59375 245.355469 81.53125 245.453125 81.457031 245.539062 C 81.347656 245.664062 81.210938 245.765625 81.050781 245.832031 L 80.984375 245.863281 L 80.382812 246.109375 L 79.792969 246.375 L 79.203125 246.644531 C 79.007812 246.730469 78.8125 246.828125 78.617188 246.921875 L 78.101562 247.175781 C 77.835938 247.300781 77.574219 247.4375 77.316406 247.574219 L 76.535156 247.984375 L 75.761719 248.410156 L 75.378906 248.625 L 74.996094 248.847656 L 74.238281 249.296875 L 73.484375 249.761719 C 72.980469 250.066406 72.496094 250.398438 72 250.71875 C 71.839844 250.824219 71.683594 250.9375 71.523438 251.042969 C 71.175781 251.28125 70.828125 251.519531 70.488281 251.765625 C 70.148438 252.011719 69.804688 252.253906 69.46875 252.511719 L 69.339844 252.605469 C 69.222656 252.695312 69.09375 252.753906 68.957031 252.789062 C 68.492188 252.910156 67.957031 252.742188 67.617188 252.308594 C 67.285156 251.878906 67.25 251.3125 67.503906 250.890625 C 67.582031 250.761719 67.679688 250.648438 67.808594 250.554688 L 67.929688 250.460938 C 68.28125 250.195312 68.636719 249.941406 68.992188 249.6875 C 69.347656 249.429688 69.710938 249.179688 70.074219 248.933594 C 70.238281 248.820312 70.402344 248.707031 70.570312 248.59375 L 71.34375 248.089844 C 71.472656 248.003906 71.597656 247.917969 71.730469 247.835938 L 72.121094 247.59375 L 72.90625 247.105469 L 74.101562 246.402344 L 74.503906 246.179688 L 75.316406 245.730469 L 76.132812 245.300781 C 76.410156 245.160156 76.679688 245.015625 76.960938 244.882812 L 77.503906 244.617188 " fill-opacity="1" fill-rule="nonzero"/><path fill="#c5030e" d="M 94.601562 239.085938 L 94.429688 239.097656 L 94.082031 239.128906 L 93.386719 239.1875 C 93.152344 239.210938 92.921875 239.222656 92.691406 239.257812 C 92.464844 238.894531 92.175781 238.566406 91.839844 238.289062 C 91.667969 238.148438 91.488281 238.019531 91.296875 237.902344 C 91.199219 237.847656 91.097656 237.789062 90.996094 237.742188 C 90.894531 237.691406 90.792969 237.648438 90.6875 237.605469 C 90.261719 237.441406 89.796875 237.332031 89.3125 237.289062 C 89.253906 237.285156 89.191406 237.277344 89.132812 237.277344 C 89.070312 237.273438 89.007812 237.273438 88.949219 237.273438 C 88.824219 237.277344 88.703125 237.28125 88.578125 237.292969 C 88.328125 237.308594 88.078125 237.347656 87.824219 237.402344 C 87.785156 237.410156 87.410156 237.480469 86.875 237.617188 C 86.609375 237.683594 86.300781 237.761719 85.972656 237.84375 C 85.890625 237.863281 85.804688 237.882812 85.722656 237.90625 C 85.636719 237.929688 85.550781 237.953125 85.46875 237.976562 C 85.296875 238.027344 85.125 238.078125 84.953125 238.125 C 84.605469 238.226562 84.257812 238.320312 83.9375 238.425781 C 83.617188 238.527344 83.316406 238.628906 83.054688 238.710938 C 82.792969 238.796875 82.574219 238.867188 82.414062 238.925781 C 82.257812 238.980469 82.160156 239.015625 82.140625 239.023438 C 81.675781 239.199219 81.242188 239.421875 80.867188 239.699219 C 80.492188 239.984375 80.167969 240.308594 79.902344 240.660156 C 79.769531 240.835938 79.652344 241.023438 79.550781 241.21875 C 79.449219 241.410156 79.359375 241.605469 79.289062 241.808594 C 79.148438 242.210938 79.066406 242.628906 79.054688 243.046875 C 79.003906 243.0625 78.953125 243.085938 78.902344 243.109375 L 77.679688 243.699219 L 76.476562 244.324219 C 76.125 242.867188 76.269531 241.347656 76.921875 240.046875 C 77.242188 239.386719 77.695312 238.796875 78.25 238.28125 C 78.523438 238.019531 78.835938 237.792969 79.164062 237.589844 C 79.332031 237.484375 79.5 237.390625 79.679688 237.300781 C 79.855469 237.210938 80.035156 237.125 80.226562 237.054688 C 80.277344 237.035156 80.78125 236.855469 81.511719 236.589844 C 81.875 236.457031 82.308594 236.324219 82.761719 236.171875 C 82.992188 236.101562 83.222656 236.019531 83.46875 235.949219 C 83.710938 235.878906 83.953125 235.808594 84.203125 235.738281 C 84.449219 235.667969 84.695312 235.597656 84.9375 235.527344 C 85.179688 235.457031 85.421875 235.402344 85.65625 235.34375 C 86.125 235.230469 86.566406 235.117188 86.949219 235.03125 C 87.71875 234.871094 88.253906 234.757812 88.308594 234.75 C 88.410156 234.726562 88.511719 234.707031 88.613281 234.691406 C 88.714844 234.675781 88.820312 234.664062 88.921875 234.65625 C 89.125 234.636719 89.328125 234.628906 89.53125 234.625 C 89.734375 234.625 89.933594 234.632812 90.132812 234.644531 C 90.328125 234.660156 90.523438 234.683594 90.714844 234.722656 C 91.101562 234.796875 91.476562 234.902344 91.832031 235.039062 C 92.191406 235.175781 92.527344 235.335938 92.847656 235.542969 C 93.488281 235.945312 94.039062 236.449219 94.484375 237.035156 C 94.925781 237.636719 95.261719 238.316406 95.476562 239.046875 L 94.777344 239.078125 L 94.601562 239.085938 " fill-opacity="1" fill-rule="nonzero"/><path fill="#c5030e" d="M 80.511719 246.550781 C 80.5625 246.527344 80.609375 246.5 80.65625 246.476562 C 80.972656 246.742188 81.316406 246.96875 81.679688 247.140625 C 81.863281 247.230469 82.046875 247.304688 82.238281 247.367188 C 82.425781 247.429688 82.617188 247.476562 82.8125 247.519531 C 83.199219 247.601562 83.59375 247.632812 83.984375 247.601562 C 84.375 247.574219 84.769531 247.507812 85.152344 247.363281 C 85.164062 247.355469 85.246094 247.328125 85.375 247.277344 C 85.503906 247.230469 85.683594 247.175781 85.894531 247.105469 C 86.109375 247.035156 86.351562 246.953125 86.613281 246.867188 C 86.875 246.78125 87.15625 246.707031 87.4375 246.625 C 87.578125 246.582031 87.71875 246.542969 87.855469 246.503906 C 87.921875 246.484375 87.992188 246.460938 88.058594 246.441406 C 88.128906 246.425781 88.195312 246.410156 88.261719 246.390625 C 88.527344 246.324219 88.773438 246.261719 88.992188 246.210938 C 89.421875 246.097656 89.71875 246.039062 89.75 246.03125 C 90.132812 245.953125 90.492188 245.808594 90.824219 245.628906 C 91.15625 245.457031 91.460938 245.234375 91.738281 244.972656 C 92.015625 244.707031 92.265625 244.421875 92.480469 244.101562 C 92.691406 243.777344 92.871094 243.425781 93.007812 243.046875 L 93.328125 243.007812 L 93.652344 242.980469 L 94.292969 242.925781 C 94.507812 242.90625 94.722656 242.882812 94.9375 242.875 L 95.582031 242.847656 C 95.433594 243.566406 95.199219 244.230469 94.910156 244.84375 C 94.621094 245.464844 94.269531 246.023438 93.878906 246.492188 C 93.828125 246.550781 93.78125 246.609375 93.730469 246.667969 C 93.679688 246.722656 93.628906 246.78125 93.574219 246.839844 C 93.472656 246.949219 93.367188 247.054688 93.257812 247.15625 C 93.042969 247.359375 92.8125 247.535156 92.574219 247.683594 C 92.335938 247.839844 92.089844 247.980469 91.832031 248.085938 C 91.703125 248.140625 91.570312 248.1875 91.433594 248.222656 C 91.367188 248.246094 91.300781 248.261719 91.230469 248.277344 C 91.164062 248.296875 91.09375 248.3125 91.023438 248.328125 C 90.984375 248.335938 90.609375 248.417969 90.066406 248.53125 C 89.792969 248.589844 89.480469 248.675781 89.148438 248.757812 C 88.980469 248.800781 88.808594 248.835938 88.632812 248.886719 C 88.460938 248.9375 88.28125 248.988281 88.105469 249.042969 C 87.929688 249.09375 87.753906 249.144531 87.578125 249.191406 C 87.40625 249.242188 87.234375 249.304688 87.070312 249.359375 C 86.742188 249.46875 86.429688 249.566406 86.164062 249.660156 C 85.628906 249.855469 85.261719 249.992188 85.222656 250.007812 C 85.082031 250.054688 84.945312 250.105469 84.804688 250.144531 C 84.664062 250.183594 84.519531 250.21875 84.375 250.242188 C 84.089844 250.292969 83.792969 250.304688 83.5 250.308594 C 82.910156 250.304688 82.296875 250.179688 81.691406 249.984375 C 80.480469 249.566406 79.269531 248.796875 78.269531 247.675781 L 79.386719 247.097656 L 80.511719 246.550781 " fill-opacity="1" fill-rule="nonzero"/><path fill="#c5030e" d="M 57.4375 252.289062 C 57.4375 252.289062 57.441406 252.289062 57.4375 252.292969 C 57.433594 252.285156 57.429688 252.28125 57.429688 252.28125 C 57.429688 252.28125 57.433594 252.285156 57.4375 252.289062 " fill-opacity="1" fill-rule="nonzero"/><path fill="#c5030e" d="M 57.4375 252.292969 C 57.4375 252.292969 57.433594 252.292969 57.433594 252.296875 C 57.433594 252.292969 57.4375 252.292969 57.4375 252.292969 " fill-opacity="1" fill-rule="nonzero"/><path fill="#c5030e" d="M 103.203125 240.097656 L 103.375 240.121094 L 104.214844 240.277344 L 104.890625 240.402344 C 105 240.421875 105.113281 240.441406 105.226562 240.464844 L 105.558594 240.542969 L 105.640625 240.5625 C 105.816406 240.601562 105.976562 240.683594 106.113281 240.789062 C 106.484375 241.082031 106.660156 241.582031 106.53125 242.085938 C 106.402344 242.585938 106.019531 242.953125 105.585938 243.058594 C 105.425781 243.097656 105.257812 243.101562 105.085938 243.0625 L 105.015625 243.046875 L 104.703125 242.972656 C 104.601562 242.949219 104.496094 242.933594 104.390625 242.914062 L 103.757812 242.796875 L 103.128906 242.679688 L 102.96875 242.648438 L 102.8125 242.628906 L 102.492188 242.585938 L 101.929688 242.507812 C 99.628906 242.199219 97.300781 242.117188 94.984375 242.253906 C 94.792969 242.257812 94.605469 242.28125 94.414062 242.296875 C 94.003906 242.332031 93.589844 242.363281 93.179688 242.40625 L 91.945312 242.566406 L 91.789062 242.585938 C 91.648438 242.605469 91.507812 242.601562 91.371094 242.570312 C 90.910156 242.464844 90.519531 242.058594 90.417969 241.519531 C 90.320312 240.984375 90.558594 240.472656 90.984375 240.210938 C 91.113281 240.132812 91.257812 240.074219 91.414062 240.054688 L 91.570312 240.035156 L 92.886719 239.863281 C 93.328125 239.816406 93.769531 239.78125 94.210938 239.742188 C 94.414062 239.726562 94.617188 239.703125 94.820312 239.699219 C 97.300781 239.550781 99.796875 239.640625 102.261719 239.964844 L 102.863281 240.050781 L 103.203125 240.097656 " fill-opacity="1" fill-rule="nonzero"/><path fill="#c5030e" d="M 119.480469 245.648438 C 119.085938 245.414062 118.699219 245.171875 118.292969 244.957031 C 118.355469 244.105469 118.140625 243.234375 117.675781 242.453125 C 117.4375 242.074219 117.136719 241.722656 116.78125 241.40625 C 116.601562 241.25 116.410156 241.101562 116.207031 240.96875 C 116.105469 240.898438 116 240.835938 115.890625 240.773438 C 115.78125 240.714844 115.667969 240.660156 115.550781 240.609375 C 115.515625 240.59375 115.171875 240.441406 114.675781 240.222656 C 114.425781 240.113281 114.140625 239.988281 113.832031 239.851562 C 113.519531 239.730469 113.1875 239.601562 112.855469 239.46875 C 112.519531 239.339844 112.1875 239.210938 111.875 239.089844 C 111.558594 238.976562 111.257812 238.875 111 238.789062 C 110.480469 238.613281 110.121094 238.492188 110.082031 238.480469 C 109.847656 238.398438 109.605469 238.347656 109.363281 238.3125 C 109.125 238.277344 108.886719 238.257812 108.648438 238.253906 C 108.179688 238.25 107.726562 238.292969 107.292969 238.433594 C 106.863281 238.5625 106.460938 238.746094 106.105469 238.980469 C 105.925781 239.097656 105.757812 239.226562 105.605469 239.367188 C 105.527344 239.441406 105.453125 239.511719 105.382812 239.589844 C 105.308594 239.667969 105.238281 239.746094 105.175781 239.832031 C 105.121094 239.816406 105.066406 239.804688 105.011719 239.792969 L 103.667969 239.542969 C 103.445312 239.5 103.214844 239.476562 102.992188 239.441406 L 102.3125 239.347656 C 102.597656 238.652344 102.992188 238.019531 103.484375 237.472656 C 103.609375 237.335938 103.738281 237.203125 103.871094 237.078125 C 104.007812 236.957031 104.148438 236.839844 104.292969 236.730469 C 104.582031 236.515625 104.894531 236.320312 105.226562 236.152344 C 105.558594 235.988281 105.910156 235.84375 106.269531 235.738281 C 106.628906 235.640625 107.003906 235.574219 107.386719 235.535156 C 107.769531 235.5 108.167969 235.488281 108.558594 235.527344 C 108.949219 235.570312 109.347656 235.648438 109.738281 235.757812 C 109.765625 235.765625 109.910156 235.808594 110.140625 235.875 C 110.257812 235.910156 110.394531 235.949219 110.546875 235.996094 C 110.703125 236.046875 110.871094 236.101562 111.058594 236.164062 C 111.425781 236.289062 111.851562 236.433594 112.304688 236.589844 C 112.421875 236.628906 112.535156 236.667969 112.652344 236.707031 C 112.765625 236.75 112.882812 236.796875 113 236.839844 C 113.230469 236.929688 113.46875 237.023438 113.707031 237.117188 C 113.941406 237.207031 114.175781 237.300781 114.410156 237.390625 C 114.527344 237.4375 114.640625 237.484375 114.753906 237.527344 C 114.867188 237.574219 114.976562 237.625 115.085938 237.671875 C 115.519531 237.863281 115.925781 238.042969 116.28125 238.199219 C 116.988281 238.503906 117.453125 238.75 117.503906 238.769531 C 117.871094 238.949219 118.210938 239.152344 118.527344 239.382812 C 118.6875 239.496094 118.839844 239.617188 118.984375 239.738281 C 119.125 239.871094 119.257812 240.007812 119.386719 240.148438 C 119.898438 240.710938 120.300781 241.339844 120.574219 242.015625 C 121.101562 243.394531 121.136719 244.917969 120.65625 246.355469 L 119.480469 245.648438 " fill-opacity="1" fill-rule="nonzero"/><path fill="#c5030e" d="M 103.046875 243.292969 L 104.261719 243.519531 C 104.316406 243.527344 104.367188 243.535156 104.417969 243.539062 C 104.441406 243.640625 104.46875 243.738281 104.5 243.835938 C 104.527344 243.933594 104.5625 244.03125 104.59375 244.128906 C 104.664062 244.320312 104.746094 244.507812 104.835938 244.6875 C 105.019531 245.046875 105.242188 245.375 105.5 245.664062 C 105.757812 245.941406 106.046875 246.222656 106.367188 246.433594 C 106.527344 246.542969 106.699219 246.640625 106.875 246.722656 C 107.054688 246.804688 107.238281 246.867188 107.429688 246.9375 C 107.460938 246.949219 107.75 247.042969 108.171875 247.1875 C 108.382812 247.257812 108.625 247.335938 108.882812 247.425781 C 109.140625 247.527344 109.414062 247.632812 109.683594 247.738281 C 109.957031 247.84375 110.226562 247.949219 110.484375 248.046875 C 110.738281 248.15625 110.972656 248.261719 111.179688 248.351562 C 111.589844 248.53125 111.871094 248.65625 111.902344 248.667969 C 111.992188 248.707031 112.085938 248.742188 112.175781 248.773438 C 112.269531 248.808594 112.359375 248.84375 112.453125 248.871094 C 112.636719 248.929688 112.824219 248.972656 113.015625 249 C 113.394531 249.058594 113.777344 249.0625 114.164062 249.015625 C 114.921875 248.945312 115.675781 248.671875 116.339844 248.222656 C 116.53125 248.328125 116.722656 248.425781 116.910156 248.539062 L 117.472656 248.875 L 118.59375 249.546875 C 117.527344 250.5625 116.273438 251.242188 115.054688 251.53125 C 114.4375 251.691406 113.828125 251.757812 113.242188 251.710938 C 113.097656 251.699219 112.953125 251.679688 112.808594 251.65625 C 112.664062 251.636719 112.519531 251.609375 112.378906 251.574219 C 112.097656 251.507812 111.824219 251.410156 111.558594 251.277344 C 111.519531 251.261719 111.167969 251.074219 110.644531 250.855469 C 110.382812 250.742188 110.082031 250.609375 109.761719 250.46875 C 109.683594 250.433594 109.601562 250.394531 109.519531 250.363281 C 109.4375 250.328125 109.351562 250.296875 109.265625 250.265625 C 109.097656 250.199219 108.925781 250.132812 108.753906 250.066406 C 108.582031 250 108.410156 249.929688 108.238281 249.867188 C 108.152344 249.832031 108.070312 249.796875 107.988281 249.769531 C 107.902344 249.742188 107.820312 249.710938 107.738281 249.6875 C 107.410156 249.574219 107.105469 249.472656 106.839844 249.382812 C 106.707031 249.335938 106.582031 249.296875 106.476562 249.261719 C 106.363281 249.226562 106.265625 249.199219 106.183594 249.175781 C 106.019531 249.132812 105.917969 249.101562 105.898438 249.097656 C 105.621094 249.019531 105.355469 248.910156 105.105469 248.769531 C 105.042969 248.734375 104.980469 248.699219 104.921875 248.667969 C 104.859375 248.632812 104.796875 248.597656 104.738281 248.558594 C 104.617188 248.484375 104.503906 248.402344 104.390625 248.3125 C 104.164062 248.132812 103.949219 247.929688 103.75 247.703125 C 103.550781 247.480469 103.359375 247.246094 103.183594 246.984375 C 103.011719 246.722656 102.847656 246.445312 102.699219 246.144531 C 102.628906 245.996094 102.558594 245.84375 102.492188 245.683594 C 102.425781 245.53125 102.363281 245.375 102.304688 245.210938 C 102.070312 244.566406 101.902344 243.859375 101.824219 243.117188 L 102.4375 243.203125 C 102.640625 243.230469 102.84375 243.25 103.046875 243.292969 " fill-opacity="1" fill-rule="nonzero"/><path fill="#c5030e" d="M 151.226562 244.683594 C 150.339844 244.769531 149.445312 245.125 148.683594 245.75 C 148.652344 245.773438 148.375 246.003906 147.964844 246.339844 C 147.765625 246.507812 147.53125 246.707031 147.285156 246.914062 C 147.039062 247.125 146.78125 247.351562 146.519531 247.574219 C 145.484375 248.480469 144.492188 249.417969 144.4375 249.46875 C 143.746094 250.128906 143.292969 250.9375 143.09375 251.777344 C 142.992188 252.199219 142.953125 252.625 142.980469 253.046875 C 143.003906 253.464844 143.085938 253.878906 143.234375 254.273438 C 143.191406 254.308594 143.152344 254.34375 143.117188 254.382812 C 142.507812 255.027344 141.90625 255.679688 141.316406 256.339844 C 140.472656 255.097656 140.074219 253.652344 140.167969 252.238281 C 140.261719 250.824219 140.851562 249.445312 141.941406 248.386719 C 142.015625 248.3125 143.382812 246.992188 144.828125 245.734375 C 145.191406 245.421875 145.550781 245.105469 145.898438 244.8125 C 146.070312 244.667969 146.238281 244.527344 146.398438 244.394531 C 146.558594 244.261719 146.710938 244.136719 146.851562 244.019531 C 146.996094 243.902344 147.128906 243.796875 147.242188 243.699219 C 147.363281 243.605469 147.46875 243.519531 147.558594 243.449219 C 147.734375 243.308594 147.84375 243.222656 147.863281 243.207031 C 149.085938 242.226562 150.589844 241.796875 152.039062 241.894531 C 152.40625 241.917969 152.761719 241.972656 153.117188 242.0625 C 153.472656 242.148438 153.820312 242.269531 154.152344 242.417969 C 154.820312 242.714844 155.449219 243.136719 156 243.660156 C 155.230469 244.152344 154.480469 244.671875 153.734375 245.199219 C 152.992188 244.777344 152.113281 244.59375 151.226562 244.683594 " fill-opacity="1" fill-rule="nonzero"/><path fill="#c5030e" d="M 145.980469 256.875 C 146.371094 257.003906 146.777344 257.082031 147.183594 257.105469 C 147.589844 257.125 148 257.097656 148.394531 257.015625 C 149.183594 256.847656 149.929688 256.480469 150.542969 255.894531 C 150.59375 255.847656 151.480469 255.003906 152.394531 254.199219 C 152.625 254 152.855469 253.800781 153.070312 253.613281 C 153.289062 253.429688 153.492188 253.253906 153.667969 253.105469 C 154.027344 252.808594 154.273438 252.605469 154.296875 252.585938 C 154.613281 252.324219 154.882812 252.03125 155.105469 251.707031 C 155.332031 251.390625 155.507812 251.039062 155.640625 250.675781 C 155.773438 250.3125 155.855469 249.925781 155.894531 249.535156 C 155.929688 249.148438 155.921875 248.75 155.859375 248.355469 C 156.035156 248.222656 156.214844 248.101562 156.394531 247.976562 C 156.574219 247.851562 156.75 247.722656 156.929688 247.601562 C 157.292969 247.359375 157.652344 247.113281 158.019531 246.878906 C 158.253906 247.574219 158.386719 248.273438 158.4375 248.960938 C 158.460938 249.300781 158.460938 249.636719 158.4375 249.964844 C 158.421875 250.296875 158.378906 250.617188 158.316406 250.929688 C 158.0625 252.175781 157.476562 253.253906 156.511719 254.023438 C 156.445312 254.074219 155.21875 255.050781 154.03125 256.101562 C 152.839844 257.148438 151.691406 258.265625 151.625 258.328125 C 150.714844 259.210938 149.519531 259.683594 148.210938 259.773438 C 146.902344 259.859375 145.476562 259.566406 144.15625 258.867188 C 144.71875 258.234375 145.292969 257.613281 145.875 257 C 145.910156 256.960938 145.945312 256.917969 145.980469 256.875 " fill-opacity="1" fill-rule="nonzero"/><path fill="#c5030e" d="M 128.40625 252.71875 L 128.46875 252.773438 C 128.601562 252.894531 128.703125 253.039062 128.769531 253.195312 C 128.953125 253.628906 128.871094 254.152344 128.527344 254.539062 C 128.183594 254.925781 127.679688 255.070312 127.242188 254.953125 C 127.082031 254.910156 126.929688 254.832031 126.796875 254.714844 L 126.742188 254.664062 L 124.734375 253.003906 L 124.277344 252.652344 L 122.878906 251.574219 L 121.441406 250.554688 C 120.964844 250.207031 120.46875 249.890625 119.980469 249.570312 L 119.242188 249.089844 L 119.058594 248.96875 L 118.871094 248.855469 L 118.492188 248.628906 L 118 248.335938 L 117.191406 247.855469 L 116.917969 247.703125 L 115.816406 247.105469 L 115.675781 247.03125 C 115.546875 246.960938 115.4375 246.867188 115.347656 246.761719 C 115.039062 246.402344 114.960938 245.847656 115.203125 245.355469 C 115.441406 244.867188 115.9375 244.59375 116.433594 244.628906 C 116.582031 244.644531 116.726562 244.6875 116.867188 244.761719 L 117.003906 244.835938 L 118.160156 245.464844 L 118.453125 245.621094 L 118.734375 245.792969 L 119.296875 246.128906 L 119.816406 246.4375 L 120.210938 246.675781 L 120.410156 246.792969 L 120.601562 246.917969 L 121.375 247.421875 C 121.886719 247.757812 122.40625 248.085938 122.898438 248.449219 L 124.398438 249.515625 L 125.855469 250.632812 L 126.328125 251 L 128.40625 252.71875 " fill-opacity="1" fill-rule="nonzero"/><path fill="#c5030e" d="M 181.714844 239.578125 C 181.507812 240.511719 181.152344 241.375 180.722656 242.136719 C 180.507812 242.515625 180.273438 242.871094 180.03125 243.199219 C 179.785156 243.53125 179.527344 243.84375 179.265625 244.121094 C 179.132812 244.257812 179 244.390625 178.863281 244.511719 C 178.730469 244.636719 178.59375 244.757812 178.453125 244.871094 C 178.179688 245.089844 177.902344 245.269531 177.617188 245.433594 C 177.476562 245.511719 177.332031 245.582031 177.1875 245.640625 L 176.972656 245.722656 C 176.898438 245.75 176.828125 245.773438 176.753906 245.792969 C 176.609375 245.839844 176.460938 245.867188 176.308594 245.886719 C 176.160156 245.910156 176.007812 245.929688 175.855469 245.929688 C 175.785156 245.921875 174.503906 245.941406 173.199219 246.121094 C 171.894531 246.292969 170.566406 246.628906 170.496094 246.65625 C 169.972656 246.796875 169.429688 246.824219 168.875 246.75 C 168.601562 246.71875 168.320312 246.652344 168.035156 246.566406 C 167.757812 246.488281 167.472656 246.378906 167.191406 246.25 C 166.90625 246.113281 166.625 245.972656 166.34375 245.796875 C 166.066406 245.625 165.789062 245.429688 165.519531 245.214844 C 164.980469 244.792969 164.46875 244.28125 164.011719 243.695312 C 164.148438 243.632812 164.285156 243.574219 164.421875 243.515625 C 164.574219 243.445312 164.722656 243.378906 164.878906 243.316406 C 164.96875 243.277344 165.0625 243.242188 165.152344 243.203125 L 165.238281 243.167969 C 165.320312 243.136719 165.402344 243.101562 165.484375 243.070312 L 165.703125 242.980469 L 166.050781 242.847656 L 166.273438 242.765625 C 166.300781 242.753906 166.328125 242.746094 166.355469 242.730469 L 166.355469 242.734375 C 166.5 242.878906 166.652344 243.011719 166.8125 243.132812 C 166.96875 243.257812 167.136719 243.375 167.304688 243.476562 C 167.472656 243.578125 167.648438 243.671875 167.824219 243.75 C 167.910156 243.789062 168 243.828125 168.089844 243.859375 C 168.179688 243.894531 168.269531 243.929688 168.359375 243.957031 C 168.726562 244.082031 169.09375 244.136719 169.46875 244.164062 C 169.65625 244.175781 169.839844 244.171875 170.027344 244.152344 C 170.214844 244.132812 170.402344 244.109375 170.585938 244.0625 C 170.644531 244.046875 171.722656 243.800781 172.796875 243.648438 C 173.875 243.492188 174.945312 243.449219 175.003906 243.445312 C 175.132812 243.441406 175.261719 243.425781 175.386719 243.402344 C 175.511719 243.382812 175.632812 243.363281 175.753906 243.328125 C 175.875 243.296875 175.992188 243.261719 176.109375 243.214844 C 176.167969 243.191406 176.226562 243.167969 176.285156 243.140625 C 176.34375 243.117188 176.398438 243.09375 176.457031 243.066406 C 176.683594 242.960938 176.902344 242.832031 177.113281 242.675781 C 177.324219 242.519531 177.523438 242.359375 177.714844 242.167969 C 177.902344 241.980469 178.085938 241.773438 178.25 241.546875 C 178.414062 241.328125 178.5625 241.089844 178.695312 240.839844 C 178.957031 240.332031 179.148438 239.769531 179.222656 239.160156 C 179.292969 238.554688 179.234375 237.960938 179.050781 237.40625 C 178.957031 237.128906 178.835938 236.863281 178.679688 236.609375 C 178.527344 236.363281 178.339844 236.128906 178.128906 235.914062 C 177.917969 235.703125 177.675781 235.5 177.414062 235.332031 C 177.148438 235.164062 176.863281 235.019531 176.554688 234.902344 C 176.476562 234.871094 176.398438 234.84375 176.320312 234.816406 C 176.242188 234.792969 176.164062 234.769531 176.082031 234.75 C 175.921875 234.707031 175.753906 234.675781 175.585938 234.648438 C 175.414062 234.621094 175.242188 234.601562 175.066406 234.589844 C 174.894531 234.582031 174.714844 234.585938 174.535156 234.59375 C 174.457031 234.597656 172.964844 234.667969 171.5 234.890625 C 170.039062 235.101562 168.609375 235.4375 168.535156 235.460938 C 168.285156 235.519531 168.042969 235.59375 167.8125 235.683594 C 167.585938 235.78125 167.371094 235.886719 167.164062 236.007812 C 166.75 236.238281 166.394531 236.546875 166.089844 236.871094 C 166.011719 236.953125 165.941406 237.039062 165.871094 237.125 C 165.804688 237.210938 165.738281 237.304688 165.679688 237.394531 C 165.558594 237.578125 165.453125 237.765625 165.363281 237.960938 C 165.273438 238.152344 165.199219 238.351562 165.144531 238.554688 C 165.085938 238.757812 165.046875 238.964844 165.023438 239.175781 C 164.996094 239.1875 164.972656 239.195312 164.949219 239.203125 L 164.492188 239.375 L 164.378906 239.417969 C 164.3125 239.441406 164.25 239.46875 164.183594 239.496094 L 163.742188 239.675781 C 163.300781 239.851562 162.871094 240.042969 162.4375 240.234375 C 162.3125 239.496094 162.3125 238.753906 162.4375 238.03125 C 162.503906 237.671875 162.601562 237.320312 162.730469 236.980469 C 162.859375 236.640625 163.019531 236.300781 163.214844 235.992188 C 163.410156 235.679688 163.632812 235.378906 163.886719 235.09375 C 164.140625 234.820312 164.425781 234.5625 164.734375 234.328125 C 165.359375 233.863281 166.09375 233.496094 166.90625 233.28125 C 167.015625 233.246094 169.054688 232.699219 171.1875 232.402344 C 171.453125 232.367188 171.71875 232.332031 171.984375 232.296875 C 172.117188 232.28125 172.246094 232.265625 172.375 232.25 C 172.503906 232.238281 172.632812 232.226562 172.761719 232.214844 C 173.011719 232.191406 173.257812 232.167969 173.492188 232.148438 C 173.726562 232.125 173.949219 232.117188 174.15625 232.105469 C 174.363281 232.09375 174.554688 232.085938 174.722656 232.074219 C 174.808594 232.070312 174.890625 232.066406 174.964844 232.0625 C 175.042969 232.0625 175.109375 232.058594 175.171875 232.058594 C 175.429688 232.054688 175.589844 232.054688 175.617188 232.054688 C 175.878906 232.050781 176.140625 232.054688 176.394531 232.078125 C 176.652344 232.109375 176.902344 232.148438 177.148438 232.203125 C 177.636719 232.300781 178.105469 232.472656 178.539062 232.679688 C 178.976562 232.878906 179.378906 233.144531 179.738281 233.429688 C 179.917969 233.578125 180.089844 233.730469 180.25 233.890625 C 180.410156 234.058594 180.558594 234.230469 180.695312 234.410156 C 180.96875 234.773438 181.199219 235.148438 181.378906 235.558594 C 181.558594 235.96875 181.691406 236.398438 181.777344 236.835938 C 181.945312 237.714844 181.917969 238.640625 181.714844 239.578125 " fill-opacity="1" fill-rule="nonzero"/><path fill="#c5030e" d="M 162.828125 240.738281 L 163.429688 240.476562 C 163.628906 240.386719 163.835938 240.308594 164.039062 240.222656 C 164.242188 240.140625 164.441406 240.054688 164.648438 239.976562 L 165.265625 239.746094 L 165.421875 239.6875 C 165.566406 239.632812 165.714844 239.613281 165.859375 239.621094 C 166.359375 239.644531 166.8125 239.980469 166.980469 240.5 C 167.148438 241.019531 167 241.558594 166.660156 241.875 C 166.558594 241.96875 166.433594 242.039062 166.296875 242.09375 L 166.160156 242.144531 L 165.585938 242.363281 C 165.394531 242.433594 165.203125 242.515625 165.015625 242.589844 C 164.824219 242.667969 164.632812 242.742188 164.445312 242.828125 L 163.878906 243.074219 L 163.621094 243.1875 L 163.363281 243.308594 C 162.363281 243.769531 161.378906 244.28125 160.410156 244.820312 C 159.445312 245.367188 158.492188 245.941406 157.558594 246.550781 C 157.472656 246.609375 157.386719 246.664062 157.300781 246.722656 L 157.082031 246.871094 L 156.824219 247.042969 C 156.214844 247.453125 155.617188 247.878906 155.019531 248.316406 C 154.917969 248.386719 154.820312 248.460938 154.722656 248.535156 L 154.660156 248.582031 C 154.617188 248.613281 154.574219 248.640625 154.527344 248.667969 C 154.425781 248.722656 154.316406 248.757812 154.203125 248.78125 C 153.761719 248.863281 153.265625 248.6875 152.945312 248.277344 C 152.628906 247.871094 152.582031 247.339844 152.792969 246.929688 C 152.859375 246.800781 152.953125 246.679688 153.066406 246.582031 C 153.085938 246.5625 153.109375 246.546875 153.128906 246.53125 L 153.1875 246.484375 C 153.3125 246.390625 153.4375 246.300781 153.5625 246.207031 C 154.164062 245.769531 154.769531 245.339844 155.386719 244.921875 L 155.6875 244.722656 L 155.882812 244.589844 C 155.984375 244.519531 156.085938 244.457031 156.1875 244.390625 C 157.15625 243.753906 158.152344 243.152344 159.167969 242.582031 C 160.183594 242.015625 161.21875 241.476562 162.28125 240.988281 L 162.550781 240.859375 L 162.828125 240.738281 " fill-opacity="1" fill-rule="nonzero"/></svg>