<svg xmlns="http://www.w3.org/2000/svg" xmlns:xlink="http://www.w3.org/1999/xlink" width="500" zoomAndPan="magnify" viewBox="0 0 375 374.999991" height="500" preserveAspectRatio="xMidYMid meet" version="1.0"><defs><g/><clipPath id="0a2e7629bf"><path d="M 187.5 132 L 207 132 L 207 148.726562 L 187.5 148.726562 Z M 187.5 132 " clip-rule="nonzero"/></clipPath><clipPath id="b26613e3a2"><path d="M 12.664062 209 L 33 209 L 33 226 L 12.664062 226 Z M 12.664062 209 " clip-rule="nonzero"/></clipPath><clipPath id="326514744a"><path d="M 123 230 L 142 230 L 142 245.347656 L 123 245.347656 Z M 123 230 " clip-rule="nonzero"/></clipPath></defs><rect x="-37.5" width="450" fill="#ffffff" y="-37.499999" height="449.999989" fill-opacity="1"/><rect x="-37.5" width="450" fill="#ffffff" y="-37.499999" height="449.999989" fill-opacity="1"/><g fill="#000000" fill-opacity="1"><g transform="translate(12.761625, 199.449177)"><g><path d="M 0 -3.96875 L 0 -23.828125 L 3.96875 -23.828125 L 3.96875 -27.796875 L 7.9375 -27.796875 L 7.9375 -31.765625 L 19.859375 -31.765625 L 19.859375 -27.796875 L 23.828125 -27.796875 L 23.828125 -23.828125 L 27.796875 -23.828125 L 27.796875 -3.96875 L 19.859375 -3.96875 L 19.859375 -11.90625 L 7.9375 -11.90625 L 7.9375 -3.96875 Z M 7.9375 -15.890625 L 19.859375 -15.890625 L 19.859375 -23.828125 L 15.890625 -23.828125 L 15.890625 -27.796875 L 11.90625 -27.796875 L 11.90625 -23.828125 L 7.9375 -23.828125 Z M 7.9375 -15.890625 "/></g></g></g><g fill="#000000" fill-opacity="1"><g transform="translate(44.530061, 199.449177)"><g><path d="M 3.96875 -3.96875 L 3.96875 -7.9375 L 0 -7.9375 L 0 -23.828125 L 7.9375 -23.828125 L 7.9375 -7.9375 L 19.859375 -7.9375 L 19.859375 -23.828125 L 27.796875 -23.828125 L 27.796875 -3.96875 Z M 3.96875 -3.96875 "/></g></g></g><g fill="#000000" fill-opacity="1"><g transform="translate(76.298496, 199.449177)"><g><path d="M 11.90625 -3.96875 L 11.90625 -19.859375 L 3.96875 -19.859375 L 3.96875 -23.828125 L 11.90625 -23.828125 L 11.90625 -31.765625 L 19.859375 -31.765625 L 19.859375 -23.828125 L 27.796875 -23.828125 L 27.796875 -19.859375 L 19.859375 -19.859375 L 19.859375 -3.96875 Z M 11.90625 -3.96875 "/></g></g></g><g fill="#000000" fill-opacity="1"><g transform="translate(108.066932, 199.449177)"><g><path d="M 0 -3.96875 L 0 -31.765625 L 7.9375 -31.765625 L 7.9375 -23.828125 L 23.828125 -23.828125 L 23.828125 -19.859375 L 27.796875 -19.859375 L 27.796875 -3.96875 L 19.859375 -3.96875 L 19.859375 -19.859375 L 7.9375 -19.859375 L 7.9375 -3.96875 Z M 0 -3.96875 "/></g></g></g><g fill="#000000" fill-opacity="1"><g transform="translate(139.835367, 199.449177)"><g><path d="M 3.96875 -15.890625 L 3.96875 -19.859375 L 27.796875 -19.859375 L 27.796875 -15.890625 Z M 3.96875 -15.890625 "/></g></g></g><g fill="#000000" fill-opacity="1"><g transform="translate(171.603802, 199.449177)"><g><path d="M 3.96875 -3.96875 L 3.96875 -7.9375 L 11.90625 -7.9375 L 11.90625 -27.796875 L 7.9375 -27.796875 L 7.9375 -31.765625 L 19.859375 -31.765625 L 19.859375 -7.9375 L 27.796875 -7.9375 L 27.796875 -3.96875 Z M 3.96875 -3.96875 "/></g></g></g><g fill="#000000" fill-opacity="1"><g transform="translate(203.372238, 199.449177)"><g><path d="M 3.96875 -3.96875 L 3.96875 -7.9375 L 0 -7.9375 L 0 -19.859375 L 3.96875 -19.859375 L 3.96875 -23.828125 L 23.828125 -23.828125 L 23.828125 -19.859375 L 27.796875 -19.859375 L 27.796875 -11.90625 L 7.9375 -11.90625 L 7.9375 -7.9375 L 23.828125 -7.9375 L 23.828125 -3.96875 Z M 7.9375 -15.890625 L 19.859375 -15.890625 L 19.859375 -19.859375 L 7.9375 -19.859375 Z M 7.9375 -15.890625 "/></g></g></g><g fill="#000000" fill-opacity="1"><g transform="translate(235.140673, 199.449177)"><g><path d="M 3.96875 0 L 3.96875 -3.96875 L 19.859375 -3.96875 L 19.859375 -7.9375 L 3.96875 -7.9375 L 3.96875 -11.90625 L 0 -11.90625 L 0 -19.859375 L 3.96875 -19.859375 L 3.96875 -23.828125 L 27.796875 -23.828125 L 27.796875 -3.96875 L 23.828125 -3.96875 L 23.828125 0 Z M 7.9375 -11.90625 L 19.859375 -11.90625 L 19.859375 -19.859375 L 7.9375 -19.859375 Z M 7.9375 -11.90625 "/></g></g></g><g fill="#000000" fill-opacity="1"><g transform="translate(266.909108, 199.449177)"><g><path d="M 3.96875 -3.96875 L 3.96875 -7.9375 L 0 -7.9375 L 0 -11.90625 L 3.96875 -11.90625 L 3.96875 -15.890625 L 19.859375 -15.890625 L 19.859375 -19.859375 L 3.96875 -19.859375 L 3.96875 -23.828125 L 23.828125 -23.828125 L 23.828125 -19.859375 L 27.796875 -19.859375 L 27.796875 -3.96875 Z M 7.9375 -7.9375 L 19.859375 -7.9375 L 19.859375 -11.90625 L 7.9375 -11.90625 Z M 7.9375 -7.9375 "/></g></g></g><g fill="#000000" fill-opacity="1"><g transform="translate(298.677544, 199.449177)"><g><path d="M 3.96875 -3.96875 L 3.96875 -7.9375 L 0 -7.9375 L 0 -19.859375 L 3.96875 -19.859375 L 3.96875 -23.828125 L 27.796875 -23.828125 L 27.796875 -19.859375 L 7.9375 -19.859375 L 7.9375 -7.9375 L 27.796875 -7.9375 L 27.796875 -3.96875 Z M 3.96875 -3.96875 "/></g></g></g><g fill="#000000" fill-opacity="1"><g transform="translate(330.445979, 199.449177)"><g><path d="M 3.96875 0 L 3.96875 -3.96875 L 19.859375 -3.96875 L 19.859375 -7.9375 L 3.96875 -7.9375 L 3.96875 -11.90625 L 0 -11.90625 L 0 -23.828125 L 7.9375 -23.828125 L 7.9375 -11.90625 L 19.859375 -11.90625 L 19.859375 -23.828125 L 27.796875 -23.828125 L 27.796875 -3.96875 L 23.828125 -3.96875 L 23.828125 0 Z M 3.96875 0 "/></g></g></g><g clip-path="url(#0a2e7629bf)"><path fill="#c5030e" d="M 204.457031 139.753906 C 204.425781 139.765625 204.398438 139.777344 204.367188 139.785156 C 204.289062 140.613281 203.96875 141.410156 203.441406 142.078125 C 202.914062 142.746094 202.183594 143.289062 201.304688 143.597656 C 201.234375 143.625 199.96875 144.078125 198.691406 144.503906 C 197.417969 144.933594 196.132812 145.335938 196.0625 145.355469 C 194.824219 145.734375 193.554688 145.585938 192.527344 145.035156 C 191.5 144.488281 190.722656 143.546875 190.410156 142.363281 C 190.097656 141.179688 190.300781 139.980469 190.855469 138.996094 C 191.410156 138.011719 192.316406 137.234375 193.46875 136.878906 C 193.535156 136.859375 194.734375 136.488281 195.925781 136.09375 C 197.117188 135.699219 198.300781 135.28125 198.363281 135.253906 C 199.191406 134.964844 200.042969 134.929688 200.84375 135.105469 C 201.644531 135.285156 202.394531 135.675781 203 136.246094 L 203.074219 136.214844 C 203.871094 135.898438 204.664062 135.582031 205.453125 135.253906 C 204.5625 134.046875 203.394531 133.164062 202.144531 132.691406 C 200.898438 132.21875 199.574219 132.152344 198.328125 132.601562 C 198.242188 132.636719 196.683594 133.203125 195.105469 133.722656 C 193.527344 134.25 191.9375 134.726562 191.851562 134.753906 C 190.324219 135.207031 189.148438 136.332031 188.441406 137.808594 C 187.738281 139.285156 187.503906 141.113281 187.910156 142.988281 C 188.324219 144.859375 189.429688 146.390625 190.875 147.316406 C 192.316406 148.246094 194.097656 148.566406 195.808594 148.058594 C 195.90625 148.027344 197.679688 147.488281 199.429688 146.894531 C 201.1875 146.308594 202.925781 145.671875 203.019531 145.632812 C 204.410156 145.132812 205.5 144.152344 206.175781 142.929688 C 206.851562 141.707031 207.117188 140.242188 206.90625 138.761719 C 206.09375 139.105469 205.277344 139.429688 204.457031 139.753906 " fill-opacity="1" fill-rule="nonzero"/></g><path fill="#c5030e" d="M 214.398438 134.59375 L 214.996094 134.277344 C 215.394531 134.070312 215.789062 133.851562 216.183594 133.640625 L 216.257812 133.601562 C 216.414062 133.515625 216.542969 133.390625 216.640625 133.253906 C 216.910156 132.871094 216.945312 132.339844 216.6875 131.890625 C 216.433594 131.441406 215.964844 131.195312 215.507812 131.21875 C 215.339844 131.226562 215.175781 131.273438 215.019531 131.355469 L 214.953125 131.394531 C 214.570312 131.601562 214.191406 131.8125 213.800781 132.011719 L 213.222656 132.320312 L 212.640625 132.617188 C 212.464844 132.707031 212.292969 132.796875 212.121094 132.882812 C 210 133.949219 207.832031 134.929688 205.636719 135.847656 L 205.097656 136.070312 C 204.3125 136.390625 203.523438 136.707031 202.730469 137.011719 L 202.582031 137.070312 C 202.441406 137.125 202.320312 137.199219 202.214844 137.296875 C 201.863281 137.628906 201.726562 138.175781 201.917969 138.691406 C 202.105469 139.199219 202.566406 139.523438 203.058594 139.535156 C 203.203125 139.539062 203.355469 139.515625 203.5 139.460938 L 203.640625 139.40625 C 204.453125 139.09375 205.257812 138.769531 206.0625 138.441406 L 206.613281 138.214844 C 208.863281 137.273438 211.085938 136.269531 213.265625 135.171875 C 213.445312 135.082031 213.621094 134.992188 213.800781 134.902344 L 214.398438 134.59375 " fill-opacity="1" fill-rule="nonzero"/><path fill="#c5030e" d="M 247.894531 124.625 C 247.832031 123.292969 247.367188 122.050781 246.457031 121.085938 C 246.394531 121.019531 245.253906 119.816406 244.148438 118.574219 C 243.039062 117.335938 241.964844 116.070312 241.910156 116 C 240.882812 114.777344 239.386719 114.148438 237.75 114.089844 C 236.117188 114.03125 234.34375 114.542969 232.789062 115.660156 C 231.234375 116.785156 230.269531 118.40625 229.992188 120.101562 C 229.953125 120.351562 229.925781 120.605469 229.914062 120.859375 C 230.1875 120.710938 230.457031 120.558594 230.722656 120.40625 C 230.894531 120.3125 231.066406 120.214844 231.226562 120.121094 L 231.789062 119.796875 L 232.351562 119.464844 C 232.628906 119.304688 232.90625 119.132812 233.175781 118.96875 C 233.222656 118.941406 233.273438 118.910156 233.320312 118.878906 C 233.582031 118.4375 233.929688 118.039062 234.351562 117.703125 C 235.316406 116.949219 236.496094 116.65625 237.617188 116.773438 C 238.746094 116.890625 239.816406 117.414062 240.601562 118.332031 C 240.644531 118.382812 241.460938 119.335938 242.300781 120.269531 C 243.136719 121.207031 243.992188 122.125 244.039062 122.175781 C 244.632812 122.820312 245.007812 123.585938 245.160156 124.390625 C 245.316406 125.195312 245.257812 126.039062 244.972656 126.824219 L 245.03125 126.878906 C 245.636719 127.484375 246.242188 128.085938 246.859375 128.679688 C 247.613281 127.382812 247.957031 125.957031 247.894531 124.625 " fill-opacity="1" fill-rule="nonzero"/><path fill="#c5030e" d="M 242.480469 129.199219 C 241.695312 129.457031 240.832031 129.480469 240.011719 129.261719 C 239.1875 129.046875 238.398438 128.589844 237.765625 127.90625 C 237.714844 127.851562 236.796875 126.871094 235.894531 125.871094 C 234.996094 124.871094 234.117188 123.855469 234.070312 123.796875 C 233.820312 123.503906 233.613281 123.191406 233.449219 122.867188 L 233.242188 122.984375 C 233.085938 123.078125 232.898438 123.183594 232.714844 123.285156 C 232.195312 123.578125 231.667969 123.871094 231.128906 124.160156 C 231.242188 124.324219 231.359375 124.484375 231.488281 124.636719 C 231.554688 124.714844 232.753906 126.125 233.996094 127.5 C 235.234375 128.875 236.511719 130.21875 236.582031 130.292969 C 237.59375 131.363281 238.925781 131.972656 240.320312 132.109375 C 241.710938 132.246094 243.160156 131.902344 244.429688 131.121094 C 243.792969 130.511719 243.167969 129.890625 242.546875 129.269531 C 242.523438 129.246094 242.503906 129.222656 242.480469 129.199219 " fill-opacity="1" fill-rule="nonzero"/><path fill="#c5030e" d="M 232.976562 122.523438 L 233.230469 122.375 L 233.558594 122.1875 L 233.703125 122.101562 L 234.140625 121.84375 C 234.527344 121.617188 234.910156 121.378906 235.296875 121.144531 L 235.367188 121.105469 C 235.519531 121.011719 235.644531 120.882812 235.734375 120.738281 C 235.984375 120.34375 235.992188 119.8125 235.714844 119.375 C 235.4375 118.941406 234.957031 118.714844 234.503906 118.761719 C 234.335938 118.777344 234.171875 118.832031 234.023438 118.921875 L 233.960938 118.960938 C 233.949219 118.96875 233.9375 118.976562 233.929688 118.980469 C 233.667969 119.136719 233.410156 119.296875 233.152344 119.453125 C 233.046875 119.515625 232.941406 119.578125 232.835938 119.640625 L 232.273438 119.972656 L 231.707031 120.300781 C 231.539062 120.394531 231.367188 120.492188 231.199219 120.585938 C 230.84375 120.785156 230.488281 120.984375 230.132812 121.179688 C 229.960938 121.273438 229.792969 121.367188 229.621094 121.457031 C 228.058594 122.300781 226.472656 123.101562 224.867188 123.863281 L 224.339844 124.113281 C 223.570312 124.472656 222.800781 124.828125 222.023438 125.167969 L 221.875 125.234375 C 221.738281 125.292969 221.621094 125.378906 221.523438 125.476562 C 221.183594 125.824219 221.074219 126.382812 221.289062 126.882812 C 221.503906 127.382812 221.980469 127.683594 222.46875 127.671875 C 222.617188 127.671875 222.765625 127.640625 222.90625 127.578125 L 223.046875 127.515625 C 223.84375 127.164062 224.632812 126.800781 225.417969 126.4375 L 225.960938 126.179688 C 227.449219 125.472656 228.925781 124.734375 230.382812 123.957031 C 230.539062 123.871094 230.695312 123.789062 230.851562 123.703125 C 231.386719 123.414062 231.921875 123.121094 232.457031 122.820312 C 232.628906 122.722656 232.804688 122.621094 232.976562 122.523438 " fill-opacity="1" fill-rule="nonzero"/><path fill="#c5030e" d="M 297.957031 122.578125 C 298.019531 121.242188 298.484375 120 299.394531 119.035156 C 299.457031 118.972656 300.597656 117.765625 301.703125 116.523438 C 302.8125 115.289062 303.882812 114.019531 303.941406 113.949219 C 304.96875 112.726562 306.464844 112.097656 308.101562 112.035156 C 309.734375 111.980469 311.507812 112.492188 313.0625 113.609375 C 314.617188 114.734375 315.582031 116.355469 315.855469 118.050781 C 315.898438 118.300781 315.925781 118.554688 315.9375 118.804688 C 315.664062 118.65625 315.394531 118.507812 315.128906 118.355469 C 314.957031 118.261719 314.785156 118.160156 314.625 118.070312 L 314.058594 117.746094 L 313.5 117.414062 C 313.222656 117.25 312.945312 117.082031 312.675781 116.917969 C 312.628906 116.886719 312.578125 116.859375 312.527344 116.828125 C 312.269531 116.386719 311.921875 115.988281 311.496094 115.652344 C 310.535156 114.898438 309.355469 114.605469 308.230469 114.722656 C 307.105469 114.839844 306.035156 115.363281 305.25 116.28125 C 305.207031 116.332031 304.386719 117.285156 303.550781 118.222656 C 302.714844 119.15625 301.859375 120.078125 301.8125 120.125 C 301.21875 120.769531 300.84375 121.535156 300.691406 122.34375 C 300.535156 123.148438 300.59375 123.988281 300.878906 124.773438 L 300.820312 124.828125 C 300.214844 125.433594 299.609375 126.035156 298.992188 126.628906 C 298.238281 125.332031 297.894531 123.90625 297.957031 122.578125 " fill-opacity="1" fill-rule="nonzero"/><path fill="#c5030e" d="M 303.371094 127.148438 C 304.15625 127.40625 305.019531 127.429688 305.839844 127.210938 C 306.664062 126.996094 307.453125 126.539062 308.085938 125.855469 C 308.136719 125.800781 309.058594 124.820312 309.957031 123.820312 C 310.855469 122.820312 311.734375 121.800781 311.78125 121.746094 C 312.03125 121.453125 312.238281 121.140625 312.402344 120.816406 L 312.609375 120.933594 C 312.765625 121.027344 312.949219 121.128906 313.136719 121.234375 C 313.65625 121.527344 314.183594 121.820312 314.722656 122.109375 C 314.609375 122.273438 314.492188 122.433594 314.363281 122.585938 C 314.296875 122.664062 313.09375 124.074219 311.855469 125.449219 C 310.617188 126.824219 309.339844 128.167969 309.269531 128.242188 C 308.257812 129.316406 306.925781 129.925781 305.535156 130.058594 C 304.140625 130.195312 302.691406 129.851562 301.421875 129.070312 C 302.058594 128.464844 302.683594 127.84375 303.304688 127.21875 C 303.328125 127.195312 303.347656 127.171875 303.371094 127.148438 " fill-opacity="1" fill-rule="nonzero"/><path fill="#c5030e" d="M 312.761719 120.390625 L 312.523438 120.21875 L 312.214844 119.996094 L 312.082031 119.898438 L 311.675781 119.59375 C 311.3125 119.328125 310.957031 119.050781 310.597656 118.777344 L 310.535156 118.730469 C 310.390625 118.621094 310.28125 118.480469 310.203125 118.328125 C 309.996094 117.90625 310.046875 117.378906 310.371094 116.972656 C 310.691406 116.570312 311.191406 116.398438 311.636719 116.488281 C 311.800781 116.523438 311.957031 116.59375 312.097656 116.703125 L 312.15625 116.746094 C 312.167969 116.753906 312.175781 116.761719 312.1875 116.769531 C 312.425781 116.953125 312.667969 117.136719 312.910156 117.320312 C 313.003906 117.390625 313.105469 117.464844 313.203125 117.539062 L 313.726562 117.929688 L 314.257812 118.3125 C 314.414062 118.425781 314.574219 118.542969 314.730469 118.652344 C 315.0625 118.890625 315.394531 119.125 315.730469 119.355469 C 315.890625 119.464844 316.046875 119.578125 316.207031 119.6875 C 317.675781 120.6875 319.167969 121.648438 320.683594 122.578125 L 321.179688 122.878906 C 321.910156 123.316406 322.640625 123.75 323.375 124.171875 L 323.515625 124.253906 C 323.644531 124.328125 323.753906 124.421875 323.839844 124.535156 C 324.140625 124.914062 324.191406 125.480469 323.925781 125.957031 C 323.660156 126.429688 323.152344 126.679688 322.667969 126.617188 C 322.519531 126.597656 322.375 126.554688 322.242188 126.476562 L 322.109375 126.398438 C 321.355469 125.96875 320.609375 125.523438 319.863281 125.078125 L 319.355469 124.765625 C 317.949219 123.90625 316.558594 123.015625 315.191406 122.089844 C 315.042969 121.988281 314.894531 121.890625 314.75 121.789062 C 314.246094 121.445312 313.746094 121.097656 313.246094 120.742188 C 313.082031 120.625 312.921875 120.507812 312.761719 120.390625 " fill-opacity="1" fill-rule="nonzero"/><path fill="#c5030e" d="M 230.464844 127.386719 L 230.457031 127.320312 C 230.453125 127.300781 230.441406 127.285156 230.433594 127.269531 C 230.351562 127.144531 230.285156 127.003906 230.214844 126.855469 C 229.933594 126.269531 229.648438 125.585938 229.324219 124.871094 L 228.980469 125.203125 C 228.921875 125.257812 228.863281 125.3125 228.804688 125.367188 L 228.589844 125.566406 C 228.25 125.882812 227.898438 126.179688 227.550781 126.488281 C 227.667969 126.902344 227.714844 127.332031 227.695312 127.765625 C 227.675781 128.203125 227.589844 128.644531 227.433594 129.0625 C 227.355469 129.277344 227.261719 129.484375 227.152344 129.6875 C 227.042969 129.890625 226.914062 130.085938 226.769531 130.273438 C 226.488281 130.65625 226.140625 131 225.734375 131.296875 C 225.675781 131.34375 224.546875 132.171875 223.390625 132.949219 C 223.101562 133.144531 222.816406 133.339844 222.539062 133.515625 C 222.265625 133.695312 222.011719 133.859375 221.789062 134.003906 C 221.339844 134.285156 221.03125 134.476562 221 134.496094 C 220.589844 134.75 220.15625 134.929688 219.71875 135.050781 C 219.28125 135.164062 218.839844 135.214844 218.40625 135.203125 C 217.972656 135.191406 217.546875 135.117188 217.148438 134.988281 C 216.746094 134.855469 216.367188 134.664062 216.027344 134.421875 C 215.980469 134.453125 215.933594 134.480469 215.886719 134.507812 C 215.496094 134.71875 215.101562 134.925781 214.707031 135.132812 C 214.3125 135.335938 213.917969 135.539062 213.519531 135.738281 C 214.011719 136.308594 214.578125 136.78125 215.199219 137.148438 C 215.820312 137.519531 216.492188 137.773438 217.1875 137.914062 C 218.578125 138.191406 220.070312 137.976562 221.390625 137.195312 C 221.480469 137.140625 223.128906 136.152344 224.742188 135.058594 C 225.144531 134.792969 225.542969 134.507812 225.921875 134.246094 C 226.296875 133.980469 226.648438 133.722656 226.953125 133.503906 C 227.554688 133.054688 227.972656 132.746094 228.015625 132.707031 C 228.332031 132.464844 228.625 132.199219 228.886719 131.914062 C 229.144531 131.621094 229.375 131.3125 229.574219 130.992188 C 229.773438 130.664062 229.9375 130.324219 230.074219 129.976562 C 230.207031 129.628906 230.304688 129.265625 230.375 128.902344 C 230.410156 128.722656 230.433594 128.539062 230.453125 128.355469 C 230.46875 128.171875 230.476562 127.988281 230.476562 127.804688 C 230.476562 127.710938 230.476562 127.617188 230.472656 127.527344 L 230.464844 127.386719 " fill-opacity="1" fill-rule="nonzero"/><path fill="#c5030e" d="M 212.957031 131.757812 C 213.332031 131.558594 213.707031 131.363281 214.082031 131.160156 C 214.128906 131.136719 214.179688 131.113281 214.230469 131.09375 C 214.207031 130.679688 214.242188 130.265625 214.328125 129.867188 C 214.410156 129.46875 214.546875 129.082031 214.730469 128.722656 C 214.914062 128.363281 215.140625 128.023438 215.417969 127.726562 C 215.691406 127.421875 216.011719 127.160156 216.375 126.9375 C 216.402344 126.917969 216.675781 126.75 217.070312 126.503906 C 217.269531 126.375 217.492188 126.230469 217.734375 126.078125 C 217.976562 125.921875 218.226562 125.75 218.480469 125.582031 C 219.488281 124.90625 220.464844 124.199219 220.515625 124.15625 C 220.839844 123.914062 221.195312 123.730469 221.558594 123.59375 C 221.738281 123.523438 221.925781 123.46875 222.113281 123.429688 C 222.300781 123.382812 222.492188 123.351562 222.683594 123.332031 C 222.875 123.3125 223.070312 123.308594 223.265625 123.316406 C 223.457031 123.320312 223.652344 123.335938 223.84375 123.363281 C 224.230469 123.421875 224.617188 123.527344 224.988281 123.679688 C 225.3125 123.390625 225.648438 123.113281 225.964844 122.8125 L 226.21875 122.578125 C 226.328125 122.480469 226.429688 122.386719 226.53125 122.289062 L 227.132812 121.695312 C 226.847656 121.480469 226.535156 121.304688 226.195312 121.175781 C 225.855469 121.046875 225.496094 120.976562 225.097656 120.9375 C 225 120.929688 224.898438 120.925781 224.792969 120.925781 C 224.738281 120.925781 224.683594 120.925781 224.632812 120.925781 L 224.589844 120.925781 L 224.558594 120.917969 L 224.5 120.902344 C 224.335938 120.863281 224.175781 120.828125 224.015625 120.800781 C 223.695312 120.742188 223.371094 120.703125 223.058594 120.6875 C 221.800781 120.632812 220.632812 120.929688 219.664062 121.660156 C 219.632812 121.6875 219.304688 121.929688 218.828125 122.28125 C 218.585938 122.453125 218.308594 122.652344 218.011719 122.867188 C 217.703125 123.074219 217.386719 123.300781 217.058594 123.519531 C 215.753906 124.394531 214.382812 125.214844 214.304688 125.257812 C 213.214844 125.90625 212.445312 126.9375 212.011719 128.183594 C 211.796875 128.804688 211.667969 129.480469 211.628906 130.179688 C 211.59375 130.882812 211.65625 131.609375 211.820312 132.339844 C 212.199219 132.148438 212.578125 131.953125 212.957031 131.757812 " fill-opacity="1" fill-rule="nonzero"/><path fill="#c5030e" d="M 252.339844 134.953125 C 252.546875 135.050781 252.75 135.15625 252.957031 135.246094 L 254.199219 135.808594 L 254.832031 136.070312 L 254.90625 136.101562 C 255.074219 136.171875 255.25 136.199219 255.421875 136.191406 C 255.539062 136.1875 255.652344 136.164062 255.761719 136.125 C 255.875 136.082031 255.980469 136.023438 256.074219 135.953125 C 256.265625 135.808594 256.421875 135.609375 256.511719 135.367188 C 256.605469 135.125 256.625 134.878906 256.585938 134.648438 C 256.566406 134.53125 256.53125 134.421875 256.480469 134.320312 C 256.433594 134.21875 256.371094 134.117188 256.296875 134.035156 C 256.1875 133.90625 256.050781 133.804688 255.886719 133.738281 L 255.820312 133.707031 L 255.222656 133.460938 L 254.632812 133.195312 L 254.039062 132.925781 C 253.84375 132.839844 253.652344 132.742188 253.457031 132.648438 L 252.9375 132.394531 C 252.671875 132.269531 252.414062 132.132812 252.152344 131.996094 L 251.371094 131.585938 L 250.601562 131.160156 L 250.214844 130.945312 L 249.835938 130.722656 L 249.074219 130.273438 L 248.324219 129.808594 C 247.820312 129.503906 247.332031 129.171875 246.839844 128.851562 C 246.679688 128.746094 246.519531 128.636719 246.359375 128.527344 C 246.015625 128.289062 245.664062 128.054688 245.328125 127.804688 C 244.984375 127.558594 244.640625 127.316406 244.304688 127.0625 L 244.179688 126.964844 C 244.0625 126.878906 243.929688 126.816406 243.792969 126.78125 C 243.328125 126.660156 242.792969 126.828125 242.457031 127.261719 C 242.125 127.691406 242.089844 128.257812 242.339844 128.679688 C 242.417969 128.808594 242.519531 128.921875 242.644531 129.015625 L 242.769531 129.109375 C 243.117188 129.375 243.476562 129.628906 243.832031 129.882812 C 244.1875 130.140625 244.546875 130.390625 244.910156 130.636719 C 245.078125 130.75 245.242188 130.867188 245.410156 130.976562 L 246.179688 131.480469 C 246.308594 131.566406 246.4375 131.652344 246.566406 131.734375 L 246.960938 131.976562 L 247.746094 132.464844 L 248.539062 132.933594 L 248.9375 133.167969 L 249.34375 133.390625 L 250.152344 133.839844 L 250.972656 134.269531 C 251.246094 134.410156 251.515625 134.554688 251.796875 134.6875 L 252.339844 134.953125 " fill-opacity="1" fill-rule="nonzero"/><path fill="#c5030e" d="M 269.441406 140.484375 L 269.265625 140.472656 L 268.917969 140.441406 L 268.222656 140.382812 C 267.992188 140.359375 267.757812 140.347656 267.527344 140.3125 C 267.300781 140.675781 267.015625 141.003906 266.675781 141.285156 C 266.507812 141.421875 266.324219 141.550781 266.132812 141.667969 C 266.035156 141.726562 265.9375 141.78125 265.835938 141.832031 C 265.734375 141.878906 265.628906 141.921875 265.523438 141.964844 C 265.097656 142.128906 264.636719 142.238281 264.152344 142.28125 C 264.089844 142.285156 264.03125 142.292969 263.96875 142.296875 C 263.90625 142.296875 263.847656 142.296875 263.785156 142.296875 C 263.664062 142.296875 263.539062 142.289062 263.414062 142.28125 C 263.164062 142.261719 262.914062 142.226562 262.660156 142.171875 C 262.621094 142.160156 262.246094 142.089844 261.714844 141.953125 C 261.445312 141.886719 261.136719 141.808594 260.808594 141.726562 C 260.726562 141.707031 260.644531 141.6875 260.558594 141.664062 C 260.476562 141.640625 260.390625 141.617188 260.304688 141.59375 C 260.132812 141.542969 259.960938 141.496094 259.789062 141.445312 C 259.445312 141.34375 259.09375 141.25 258.773438 141.144531 C 258.453125 141.042969 258.152344 140.945312 257.890625 140.859375 C 257.632812 140.773438 257.410156 140.703125 257.253906 140.648438 C 257.09375 140.589844 256.996094 140.554688 256.980469 140.546875 C 256.511719 140.371094 256.082031 140.148438 255.703125 139.871094 C 255.332031 139.585938 255.007812 139.261719 254.738281 138.910156 C 254.605469 138.734375 254.488281 138.546875 254.386719 138.355469 C 254.285156 138.160156 254.199219 137.964844 254.128906 137.761719 C 253.984375 137.359375 253.90625 136.941406 253.890625 136.527344 C 253.839844 136.507812 253.789062 136.484375 253.738281 136.460938 L 252.519531 135.871094 L 251.316406 135.246094 C 250.964844 136.703125 251.105469 138.222656 251.761719 139.523438 C 252.078125 140.183594 252.53125 140.773438 253.085938 141.289062 C 253.359375 141.550781 253.671875 141.777344 254.003906 141.980469 C 254.167969 142.085938 254.339844 142.179688 254.515625 142.269531 C 254.691406 142.359375 254.875 142.445312 255.0625 142.515625 C 255.117188 142.535156 255.621094 142.71875 256.347656 142.984375 C 256.714844 143.113281 257.144531 143.246094 257.601562 143.398438 C 257.828125 143.46875 258.0625 143.550781 258.304688 143.621094 C 258.546875 143.691406 258.792969 143.761719 259.039062 143.832031 C 259.285156 143.902344 259.53125 143.972656 259.773438 144.042969 C 260.015625 144.113281 260.261719 144.167969 260.496094 144.226562 C 260.964844 144.339844 261.402344 144.453125 261.785156 144.539062 C 262.558594 144.699219 263.089844 144.8125 263.144531 144.824219 C 263.25 144.84375 263.351562 144.863281 263.453125 144.878906 C 263.554688 144.894531 263.65625 144.90625 263.757812 144.914062 C 263.964844 144.933594 264.167969 144.945312 264.367188 144.945312 C 264.570312 144.945312 264.769531 144.941406 264.96875 144.925781 C 265.164062 144.910156 265.359375 144.890625 265.554688 144.847656 C 265.941406 144.773438 266.316406 144.667969 266.671875 144.53125 C 267.027344 144.394531 267.367188 144.234375 267.6875 144.027344 C 268.324219 143.625 268.878906 143.121094 269.320312 142.535156 C 269.765625 141.933594 270.097656 141.253906 270.3125 140.523438 L 269.613281 140.492188 L 269.441406 140.484375 " fill-opacity="1" fill-rule="nonzero"/><path fill="#c5030e" d="M 255.351562 133.019531 C 255.398438 133.042969 255.445312 133.070312 255.492188 133.09375 C 255.808594 132.828125 256.15625 132.605469 256.519531 132.429688 C 256.699219 132.339844 256.886719 132.265625 257.074219 132.203125 C 257.261719 132.140625 257.453125 132.09375 257.648438 132.050781 C 258.035156 131.96875 258.429688 131.9375 258.820312 131.96875 C 259.210938 131.996094 259.605469 132.0625 259.988281 132.207031 C 260.003906 132.214844 260.082031 132.246094 260.210938 132.292969 C 260.339844 132.339844 260.523438 132.394531 260.734375 132.464844 C 260.945312 132.535156 261.191406 132.617188 261.453125 132.703125 C 261.714844 132.789062 261.996094 132.863281 262.273438 132.945312 C 262.414062 132.988281 262.554688 133.027344 262.691406 133.066406 C 262.761719 133.085938 262.828125 133.109375 262.898438 133.128906 C 262.964844 133.144531 263.03125 133.160156 263.097656 133.179688 C 263.363281 133.246094 263.613281 133.308594 263.828125 133.359375 C 264.257812 133.476562 264.558594 133.53125 264.589844 133.539062 C 264.972656 133.617188 265.328125 133.761719 265.660156 133.941406 C 265.992188 134.113281 266.300781 134.335938 266.578125 134.597656 C 266.851562 134.863281 267.101562 135.148438 267.316406 135.46875 C 267.53125 135.792969 267.710938 136.144531 267.84375 136.523438 L 268.164062 136.566406 L 268.488281 136.589844 L 269.132812 136.644531 C 269.347656 136.664062 269.5625 136.6875 269.777344 136.699219 L 270.421875 136.722656 C 270.269531 136.003906 270.039062 135.339844 269.746094 134.726562 C 269.457031 134.105469 269.109375 133.546875 268.714844 133.078125 C 268.667969 133.019531 268.617188 132.960938 268.566406 132.90625 C 268.515625 132.847656 268.464844 132.789062 268.414062 132.734375 C 268.308594 132.621094 268.203125 132.515625 268.09375 132.414062 C 267.878906 132.214844 267.652344 132.035156 267.414062 131.886719 C 267.175781 131.730469 266.925781 131.589844 266.667969 131.484375 C 266.539062 131.429688 266.40625 131.382812 266.273438 131.347656 C 266.207031 131.328125 266.136719 131.308594 266.070312 131.292969 C 266 131.273438 265.929688 131.257812 265.859375 131.242188 C 265.820312 131.234375 265.445312 131.152344 264.902344 131.039062 C 264.628906 130.980469 264.320312 130.894531 263.984375 130.8125 C 263.816406 130.769531 263.644531 130.734375 263.472656 130.683594 C 263.296875 130.632812 263.121094 130.582031 262.945312 130.527344 C 262.765625 130.476562 262.589844 130.429688 262.417969 130.378906 C 262.242188 130.328125 262.074219 130.265625 261.90625 130.210938 C 261.578125 130.101562 261.265625 130.007812 261 129.910156 C 260.464844 129.714844 260.097656 129.578125 260.058594 129.566406 C 259.921875 129.515625 259.78125 129.464844 259.640625 129.425781 C 259.5 129.386719 259.359375 129.351562 259.214844 129.328125 C 258.925781 129.277344 258.632812 129.265625 258.335938 129.261719 C 257.746094 129.265625 257.132812 129.390625 256.53125 129.585938 C 255.316406 130.003906 254.105469 130.773438 253.109375 131.894531 L 254.222656 132.472656 L 255.351562 133.019531 " fill-opacity="1" fill-rule="nonzero"/><path fill="#c5030e" d="M 232.273438 127.285156 L 232.277344 127.28125 C 232.277344 127.28125 232.277344 127.285156 232.273438 127.277344 C 232.269531 127.285156 232.269531 127.289062 232.269531 127.289062 C 232.269531 127.289062 232.269531 127.285156 232.273438 127.285156 " fill-opacity="1" fill-rule="nonzero"/><path fill="#c5030e" d="M 232.273438 127.277344 C 232.273438 127.277344 232.273438 127.277344 232.269531 127.273438 C 232.273438 127.277344 232.273438 127.277344 232.273438 127.277344 " fill-opacity="1" fill-rule="nonzero"/><path fill="#c5030e" d="M 278.042969 139.472656 L 278.210938 139.449219 L 278.378906 139.417969 L 279.054688 139.296875 L 279.726562 139.167969 C 279.839844 139.148438 279.953125 139.128906 280.0625 139.105469 L 280.394531 139.027344 L 280.476562 139.007812 C 280.65625 138.96875 280.816406 138.886719 280.949219 138.78125 C 281.320312 138.488281 281.496094 137.988281 281.367188 137.484375 C 281.242188 136.984375 280.859375 136.621094 280.421875 136.511719 C 280.261719 136.472656 280.09375 136.46875 279.925781 136.507812 L 279.851562 136.527344 L 279.542969 136.597656 C 279.4375 136.621094 279.332031 136.636719 279.226562 136.660156 L 278.597656 136.773438 L 277.964844 136.890625 L 277.808594 136.921875 L 277.648438 136.941406 L 277.332031 136.984375 L 276.765625 137.066406 C 274.464844 137.371094 272.136719 137.453125 269.820312 137.316406 C 269.628906 137.3125 269.441406 137.289062 269.253906 137.273438 C 268.839844 137.238281 268.429688 137.207031 268.015625 137.164062 L 266.78125 137.003906 L 266.628906 136.984375 C 266.484375 136.964844 266.34375 136.96875 266.210938 137 C 265.75 137.105469 265.355469 137.511719 265.257812 138.050781 C 265.160156 138.585938 265.394531 139.097656 265.820312 139.359375 C 265.949219 139.4375 266.09375 139.496094 266.25 139.519531 L 266.40625 139.539062 L 267.726562 139.707031 C 268.164062 139.753906 268.609375 139.789062 269.050781 139.828125 C 269.25 139.84375 269.453125 139.867188 269.65625 139.871094 C 272.136719 140.019531 274.636719 139.929688 277.097656 139.605469 L 277.703125 139.519531 L 278.042969 139.472656 " fill-opacity="1" fill-rule="nonzero"/><path fill="#c5030e" d="M 294.320312 133.921875 C 293.925781 134.15625 293.539062 134.398438 293.128906 134.613281 C 293.191406 135.464844 292.976562 136.335938 292.511719 137.117188 C 292.277344 137.496094 291.972656 137.847656 291.617188 138.164062 C 291.4375 138.320312 291.246094 138.46875 291.042969 138.601562 C 290.941406 138.671875 290.835938 138.738281 290.730469 138.796875 C 290.617188 138.855469 290.503906 138.910156 290.386719 138.960938 C 290.351562 138.976562 290.007812 139.128906 289.511719 139.347656 C 289.265625 139.457031 288.976562 139.582031 288.667969 139.71875 C 288.355469 139.839844 288.023438 139.972656 287.691406 140.101562 C 287.359375 140.230469 287.027344 140.359375 286.714844 140.480469 C 286.394531 140.59375 286.09375 140.695312 285.835938 140.78125 C 285.316406 140.957031 284.957031 141.078125 284.921875 141.089844 C 284.6875 141.175781 284.441406 141.222656 284.203125 141.257812 C 283.960938 141.292969 283.722656 141.3125 283.488281 141.316406 C 283.015625 141.320312 282.5625 141.277344 282.128906 141.140625 C 281.699219 141.007812 281.300781 140.824219 280.941406 140.589844 C 280.765625 140.472656 280.597656 140.34375 280.441406 140.203125 C 280.363281 140.132812 280.289062 140.058594 280.21875 139.984375 C 280.144531 139.902344 280.078125 139.824219 280.011719 139.738281 C 279.957031 139.753906 279.902344 139.765625 279.847656 139.777344 L 278.503906 140.027344 C 278.28125 140.070312 278.054688 140.09375 277.828125 140.128906 L 277.152344 140.222656 C 277.433594 140.917969 277.828125 141.550781 278.320312 142.097656 C 278.445312 142.234375 278.574219 142.367188 278.710938 142.492188 C 278.84375 142.613281 278.984375 142.730469 279.128906 142.839844 C 279.421875 143.058594 279.734375 143.25 280.0625 143.417969 C 280.394531 143.582031 280.746094 143.726562 281.109375 143.832031 C 281.46875 143.929688 281.839844 144 282.226562 144.035156 C 282.605469 144.070312 283.003906 144.082031 283.398438 144.042969 C 283.789062 144 284.183594 143.921875 284.578125 143.8125 C 284.605469 143.804688 284.746094 143.761719 284.976562 143.695312 C 285.09375 143.660156 285.230469 143.621094 285.386719 143.578125 C 285.539062 143.527344 285.707031 143.46875 285.894531 143.40625 C 286.261719 143.28125 286.6875 143.136719 287.144531 142.980469 C 287.257812 142.941406 287.371094 142.902344 287.488281 142.863281 C 287.605469 142.820312 287.71875 142.773438 287.835938 142.730469 C 288.070312 142.640625 288.304688 142.546875 288.542969 142.457031 C 288.777344 142.363281 289.015625 142.269531 289.246094 142.179688 C 289.363281 142.132812 289.480469 142.085938 289.59375 142.042969 C 289.707031 141.996094 289.816406 141.945312 289.925781 141.898438 C 290.359375 141.707031 290.765625 141.527344 291.117188 141.371094 C 291.828125 141.066406 292.292969 140.820312 292.34375 140.800781 C 292.707031 140.621094 293.046875 140.417969 293.367188 140.1875 C 293.523438 140.074219 293.675781 139.953125 293.820312 139.832031 C 293.960938 139.699219 294.097656 139.5625 294.226562 139.421875 C 294.734375 138.863281 295.136719 138.230469 295.410156 137.554688 C 295.941406 136.175781 295.972656 134.652344 295.496094 133.214844 L 294.320312 133.921875 " fill-opacity="1" fill-rule="nonzero"/><path fill="#c5030e" d="M 277.882812 136.277344 L 279.101562 136.050781 C 279.152344 136.042969 279.203125 136.035156 279.257812 136.03125 C 279.28125 135.929688 279.304688 135.835938 279.335938 135.734375 C 279.367188 135.636719 279.398438 135.539062 279.433594 135.441406 C 279.503906 135.25 279.582031 135.0625 279.675781 134.882812 C 279.855469 134.527344 280.078125 134.195312 280.335938 133.90625 C 280.59375 133.628906 280.882812 133.347656 281.203125 133.136719 C 281.367188 133.027344 281.535156 132.929688 281.714844 132.851562 C 281.890625 132.765625 282.078125 132.703125 282.265625 132.632812 C 282.296875 132.621094 282.589844 132.527344 283.007812 132.382812 C 283.21875 132.3125 283.460938 132.234375 283.722656 132.144531 C 283.976562 132.046875 284.25 131.9375 284.523438 131.832031 C 284.792969 131.730469 285.066406 131.625 285.320312 131.523438 C 285.574219 131.414062 285.8125 131.308594 286.015625 131.21875 C 286.425781 131.039062 286.710938 130.917969 286.738281 130.902344 C 286.832031 130.863281 286.921875 130.828125 287.015625 130.796875 C 287.105469 130.761719 287.199219 130.726562 287.292969 130.699219 C 287.476562 130.640625 287.664062 130.597656 287.851562 130.570312 C 288.230469 130.511719 288.617188 130.507812 289 130.554688 C 289.757812 130.625 290.515625 130.898438 291.179688 131.347656 C 291.367188 131.242188 291.5625 131.144531 291.75 131.03125 L 292.308594 130.695312 L 293.433594 130.023438 C 292.363281 129.007812 291.109375 128.328125 289.890625 128.039062 C 289.273438 127.878906 288.664062 127.8125 288.078125 127.859375 C 287.933594 127.871094 287.789062 127.894531 287.648438 127.914062 C 287.5 127.933594 287.355469 127.960938 287.21875 127.996094 C 286.933594 128.0625 286.660156 128.160156 286.394531 128.292969 C 286.355469 128.308594 286.007812 128.496094 285.480469 128.714844 C 285.222656 128.828125 284.921875 128.960938 284.601562 129.101562 C 284.519531 129.136719 284.4375 129.175781 284.355469 129.210938 C 284.273438 129.242188 284.1875 129.273438 284.105469 129.304688 C 283.933594 129.371094 283.761719 129.4375 283.589844 129.503906 C 283.417969 129.570312 283.246094 129.640625 283.078125 129.703125 C 282.992188 129.738281 282.90625 129.773438 282.824219 129.800781 C 282.738281 129.832031 282.65625 129.859375 282.574219 129.886719 C 282.25 129.996094 281.941406 130.097656 281.675781 130.1875 C 281.542969 130.234375 281.421875 130.273438 281.3125 130.3125 C 281.203125 130.34375 281.105469 130.371094 281.023438 130.394531 C 280.859375 130.441406 280.753906 130.46875 280.738281 130.472656 C 280.457031 130.550781 280.195312 130.660156 279.941406 130.800781 C 279.882812 130.835938 279.820312 130.871094 279.757812 130.902344 C 279.695312 130.9375 279.636719 130.972656 279.574219 131.011719 C 279.457031 131.085938 279.339844 131.171875 279.226562 131.257812 C 279 131.4375 278.789062 131.640625 278.589844 131.867188 C 278.386719 132.089844 278.199219 132.324219 278.023438 132.585938 C 277.847656 132.847656 277.683594 133.125 277.539062 133.425781 C 277.464844 133.574219 277.394531 133.726562 277.328125 133.886719 C 277.261719 134.039062 277.199219 134.195312 277.140625 134.359375 C 276.90625 135.003906 276.738281 135.710938 276.660156 136.453125 L 277.273438 136.367188 C 277.476562 136.339844 277.679688 136.320312 277.882812 136.277344 " fill-opacity="1" fill-rule="nonzero"/><path fill="#c5030e" d="M 326.066406 134.886719 C 325.175781 134.804688 324.285156 134.445312 323.519531 133.820312 C 323.492188 133.796875 323.210938 133.566406 322.804688 133.230469 C 322.601562 133.0625 322.371094 132.867188 322.121094 132.65625 C 321.878906 132.445312 321.617188 132.21875 321.359375 131.996094 C 320.324219 131.09375 319.328125 130.152344 319.273438 130.101562 C 318.582031 129.441406 318.128906 128.632812 317.929688 127.792969 C 317.828125 127.371094 317.792969 126.945312 317.816406 126.523438 C 317.839844 126.105469 317.925781 125.691406 318.070312 125.300781 C 318.03125 125.261719 317.992188 125.226562 317.953125 125.1875 C 317.34375 124.542969 316.742188 123.890625 316.152344 123.230469 C 315.3125 124.472656 314.910156 125.917969 315.003906 127.332031 C 315.097656 128.746094 315.6875 130.125 316.777344 131.183594 C 316.851562 131.257812 318.222656 132.578125 319.664062 133.835938 C 320.027344 134.152344 320.386719 134.464844 320.734375 134.757812 C 320.90625 134.902344 321.074219 135.042969 321.234375 135.175781 C 321.394531 135.308594 321.546875 135.433594 321.691406 135.550781 C 321.832031 135.667969 321.964844 135.773438 322.082031 135.871094 C 322.199219 135.96875 322.304688 136.050781 322.394531 136.121094 C 322.570312 136.261719 322.683594 136.347656 322.703125 136.363281 C 323.925781 137.34375 325.425781 137.773438 326.878906 137.675781 C 327.242188 137.652344 327.601562 137.597656 327.953125 137.507812 C 328.308594 137.421875 328.65625 137.300781 328.988281 137.152344 C 329.65625 136.855469 330.285156 136.433594 330.835938 135.910156 C 330.066406 135.417969 329.316406 134.898438 328.574219 134.371094 C 327.828125 134.792969 326.949219 134.976562 326.066406 134.886719 " fill-opacity="1" fill-rule="nonzero"/><path fill="#c5030e" d="M 320.816406 122.695312 C 321.207031 122.566406 321.617188 122.488281 322.023438 122.464844 C 322.429688 122.445312 322.835938 122.472656 323.230469 122.554688 C 324.019531 122.722656 324.765625 123.089844 325.382812 123.679688 C 325.429688 123.722656 326.316406 124.566406 327.234375 125.371094 C 327.460938 125.570312 327.691406 125.769531 327.90625 125.957031 C 328.125 126.140625 328.332031 126.316406 328.507812 126.464844 C 328.863281 126.761719 329.109375 126.964844 329.136719 126.984375 C 329.453125 127.246094 329.722656 127.539062 329.945312 127.863281 C 330.167969 128.179688 330.34375 128.53125 330.476562 128.894531 C 330.609375 129.257812 330.691406 129.644531 330.730469 130.035156 C 330.769531 130.421875 330.757812 130.820312 330.695312 131.214844 C 330.871094 131.347656 331.050781 131.46875 331.230469 131.59375 C 331.410156 131.71875 331.585938 131.847656 331.769531 131.96875 C 332.128906 132.210938 332.488281 132.457031 332.855469 132.691406 C 333.089844 131.996094 333.226562 131.296875 333.273438 130.613281 C 333.296875 130.269531 333.296875 129.933594 333.277344 129.605469 C 333.257812 129.273438 333.214844 128.953125 333.152344 128.640625 C 332.898438 127.394531 332.3125 126.316406 331.351562 125.546875 C 331.28125 125.496094 330.054688 124.519531 328.867188 123.46875 C 327.675781 122.421875 326.527344 121.304688 326.464844 121.246094 C 325.554688 120.359375 324.359375 119.886719 323.046875 119.796875 C 321.738281 119.710938 320.316406 120.003906 318.992188 120.703125 C 319.554688 121.335938 320.128906 121.957031 320.710938 122.570312 C 320.75 122.609375 320.785156 122.652344 320.816406 122.695312 " fill-opacity="1" fill-rule="nonzero"/><path fill="#c5030e" d="M 303.246094 126.851562 L 303.304688 126.796875 C 303.441406 126.675781 303.542969 126.53125 303.605469 126.375 C 303.789062 125.941406 303.710938 125.417969 303.367188 125.03125 C 303.023438 124.644531 302.515625 124.5 302.078125 124.617188 C 301.917969 124.660156 301.765625 124.738281 301.636719 124.855469 L 301.578125 124.90625 L 299.574219 126.566406 L 299.117188 126.917969 L 297.714844 127.996094 L 296.277344 129.015625 C 295.804688 129.367188 295.308594 129.679688 294.816406 130 L 294.078125 130.480469 L 293.894531 130.601562 L 293.707031 130.714844 L 293.328125 130.941406 L 292.835938 131.234375 L 292.296875 131.558594 L 292.027344 131.71875 L 291.753906 131.867188 L 290.652344 132.464844 L 290.511719 132.539062 C 290.382812 132.609375 290.277344 132.703125 290.1875 132.808594 C 289.875 133.167969 289.796875 133.722656 290.039062 134.214844 C 290.28125 134.703125 290.773438 134.976562 291.273438 134.941406 C 291.417969 134.925781 291.566406 134.882812 291.703125 134.808594 L 291.839844 134.734375 L 293 134.105469 L 293.289062 133.949219 L 293.570312 133.78125 L 294.136719 133.441406 L 294.652344 133.132812 L 295.050781 132.894531 L 295.246094 132.777344 L 295.4375 132.652344 L 296.210938 132.148438 C 296.722656 131.8125 297.242188 131.484375 297.738281 131.121094 L 299.234375 130.054688 L 300.691406 128.9375 L 301.167969 128.570312 L 303.246094 126.851562 " fill-opacity="1" fill-rule="nonzero"/><path fill="#c5030e" d="M 356.550781 139.992188 C 356.347656 139.058594 355.988281 138.199219 355.5625 137.433594 C 355.34375 137.054688 355.113281 136.699219 354.867188 136.371094 C 354.625 136.039062 354.363281 135.726562 354.101562 135.449219 C 353.96875 135.3125 353.835938 135.179688 353.703125 135.058594 C 353.566406 134.933594 353.429688 134.8125 353.292969 134.699219 C 353.015625 134.480469 352.738281 134.300781 352.453125 134.136719 C 352.3125 134.058594 352.167969 133.988281 352.027344 133.933594 L 351.808594 133.847656 C 351.738281 133.820312 351.664062 133.796875 351.589844 133.777344 C 351.445312 133.734375 351.296875 133.703125 351.148438 133.683594 C 350.996094 133.660156 350.847656 133.640625 350.691406 133.640625 C 350.621094 133.648438 349.34375 133.628906 348.035156 133.453125 C 346.730469 133.277344 345.40625 132.941406 345.332031 132.914062 C 344.808594 132.777344 344.269531 132.746094 343.714844 132.820312 C 343.4375 132.851562 343.15625 132.917969 342.875 133.003906 C 342.59375 133.082031 342.308594 133.191406 342.027344 133.320312 C 341.742188 133.457031 341.460938 133.601562 341.183594 133.773438 C 340.902344 133.945312 340.628906 134.140625 340.355469 134.355469 C 339.820312 134.777344 339.304688 135.289062 338.851562 135.875 C 338.984375 135.9375 339.121094 135.996094 339.261719 136.054688 C 339.410156 136.125 339.5625 136.191406 339.714844 136.253906 C 339.808594 136.292969 339.898438 136.332031 339.992188 136.367188 L 340.078125 136.402344 C 340.15625 136.433594 340.238281 136.46875 340.320312 136.5 L 340.539062 136.589844 L 340.886719 136.722656 L 341.109375 136.804688 C 341.136719 136.816406 341.164062 136.824219 341.191406 136.839844 L 341.195312 136.835938 C 341.339844 136.691406 341.492188 136.558594 341.648438 136.4375 C 341.808594 136.3125 341.972656 136.199219 342.140625 136.09375 C 342.308594 135.992188 342.484375 135.898438 342.660156 135.820312 C 342.75 135.78125 342.835938 135.746094 342.925781 135.710938 C 343.015625 135.675781 343.105469 135.640625 343.199219 135.613281 C 343.5625 135.488281 343.929688 135.433594 344.304688 135.40625 C 344.492188 135.394531 344.679688 135.398438 344.863281 135.417969 C 345.050781 135.4375 345.238281 135.460938 345.425781 135.507812 C 345.484375 135.523438 346.558594 135.769531 347.636719 135.921875 C 348.710938 136.078125 349.785156 136.121094 349.84375 136.125 C 349.96875 136.132812 350.097656 136.144531 350.222656 136.167969 C 350.347656 136.1875 350.46875 136.210938 350.589844 136.242188 C 350.710938 136.273438 350.832031 136.308594 350.949219 136.355469 C 351.007812 136.378906 351.066406 136.402344 351.125 136.429688 C 351.179688 136.453125 351.238281 136.476562 351.292969 136.503906 C 351.519531 136.609375 351.738281 136.742188 351.949219 136.894531 C 352.160156 137.050781 352.359375 137.210938 352.550781 137.402344 C 352.742188 137.589844 352.921875 137.796875 353.085938 138.023438 C 353.25 138.242188 353.402344 138.480469 353.53125 138.730469 C 353.796875 139.238281 353.988281 139.800781 354.058594 140.410156 C 354.128906 141.015625 354.070312 141.609375 353.886719 142.164062 C 353.796875 142.441406 353.671875 142.707031 353.519531 142.960938 C 353.363281 143.210938 353.179688 143.441406 352.96875 143.65625 C 352.753906 143.871094 352.515625 144.074219 352.25 144.238281 C 351.988281 144.40625 351.699219 144.550781 351.390625 144.671875 C 351.316406 144.699219 351.238281 144.726562 351.15625 144.753906 C 351.082031 144.777344 351 144.800781 350.917969 144.820312 C 350.757812 144.863281 350.589844 144.894531 350.421875 144.921875 C 350.253906 144.949219 350.078125 144.96875 349.902344 144.980469 C 349.730469 144.988281 349.554688 144.984375 349.375 144.976562 C 349.292969 144.972656 347.800781 144.90625 346.339844 144.679688 C 344.875 144.46875 343.445312 144.132812 343.371094 144.109375 C 343.121094 144.050781 342.882812 143.980469 342.652344 143.886719 C 342.425781 143.792969 342.207031 143.683594 342 143.5625 C 341.585938 143.332031 341.230469 143.023438 340.925781 142.699219 C 340.851562 142.617188 340.777344 142.53125 340.707031 142.445312 C 340.640625 142.359375 340.578125 142.269531 340.519531 142.175781 C 340.398438 141.992188 340.292969 141.804688 340.203125 141.609375 C 340.113281 141.417969 340.039062 141.21875 339.980469 141.015625 C 339.925781 140.8125 339.882812 140.605469 339.863281 140.394531 C 339.835938 140.386719 339.808594 140.375 339.785156 140.367188 L 339.332031 140.195312 L 339.214844 140.152344 C 339.152344 140.128906 339.085938 140.101562 339.019531 140.074219 L 338.578125 139.894531 C 338.136719 139.71875 337.707031 139.527344 337.277344 139.335938 C 337.148438 140.074219 337.148438 140.816406 337.273438 141.539062 C 337.339844 141.898438 337.4375 142.25 337.570312 142.589844 C 337.699219 142.929688 337.855469 143.269531 338.050781 143.578125 C 338.246094 143.890625 338.46875 144.191406 338.722656 144.476562 C 338.976562 144.75 339.265625 145.007812 339.574219 145.242188 C 340.199219 145.707031 340.929688 146.074219 341.746094 146.289062 C 341.851562 146.324219 343.894531 146.871094 346.023438 147.167969 C 346.292969 147.203125 346.558594 147.238281 346.820312 147.273438 C 346.953125 147.289062 347.082031 147.308594 347.210938 147.320312 C 347.34375 147.332031 347.46875 147.34375 347.597656 147.359375 C 347.851562 147.378906 348.097656 147.402344 348.328125 147.425781 C 348.5625 147.449219 348.785156 147.453125 348.992188 147.464844 C 349.199219 147.476562 349.390625 147.484375 349.5625 147.496094 C 349.648438 147.5 349.726562 147.503906 349.800781 147.507812 C 349.878906 147.507812 349.949219 147.511719 350.011719 147.511719 C 350.265625 147.515625 350.425781 147.519531 350.457031 147.519531 C 350.71875 147.519531 350.976562 147.515625 351.234375 147.492188 C 351.488281 147.460938 351.738281 147.421875 351.984375 147.367188 C 352.472656 147.269531 352.941406 147.097656 353.378906 146.894531 C 353.8125 146.695312 354.214844 146.429688 354.574219 146.140625 C 354.757812 145.992188 354.925781 145.839844 355.085938 145.679688 C 355.246094 145.511719 355.394531 145.339844 355.53125 145.160156 C 355.804688 144.800781 356.035156 144.421875 356.214844 144.011719 C 356.398438 143.601562 356.527344 143.171875 356.613281 142.734375 C 356.78125 141.855469 356.753906 140.929688 356.550781 139.992188 " fill-opacity="1" fill-rule="nonzero"/><path fill="#c5030e" d="M 337.664062 138.832031 L 338.265625 139.097656 C 338.46875 139.183594 338.671875 139.261719 338.875 139.347656 C 339.078125 139.429688 339.28125 139.515625 339.484375 139.59375 L 340.101562 139.824219 L 340.257812 139.882812 C 340.402344 139.9375 340.550781 139.957031 340.695312 139.949219 C 341.195312 139.929688 341.648438 139.589844 341.816406 139.070312 C 341.984375 138.550781 341.839844 138.011719 341.496094 137.695312 C 341.394531 137.601562 341.269531 137.53125 341.132812 137.476562 L 341 137.425781 L 340.421875 137.210938 C 340.230469 137.136719 340.042969 137.054688 339.851562 136.980469 C 339.660156 136.902344 339.472656 136.828125 339.28125 136.742188 L 338.714844 136.496094 L 338.457031 136.382812 L 338.203125 136.261719 C 337.199219 135.800781 336.214844 135.289062 335.25 134.75 C 334.28125 134.203125 333.328125 133.628906 332.398438 133.019531 C 332.3125 132.960938 332.222656 132.90625 332.136719 132.847656 L 331.917969 132.703125 L 331.664062 132.527344 C 331.050781 132.117188 330.453125 131.691406 329.855469 131.257812 C 329.757812 131.183594 329.660156 131.109375 329.558594 131.035156 L 329.5 130.988281 C 329.457031 130.957031 329.410156 130.929688 329.367188 130.902344 C 329.265625 130.847656 329.15625 130.8125 329.042969 130.789062 C 328.597656 130.707031 328.101562 130.882812 327.785156 131.292969 C 327.464844 131.699219 327.417969 132.230469 327.628906 132.640625 C 327.695312 132.773438 327.789062 132.890625 327.902344 132.988281 C 327.921875 133.007812 327.945312 133.023438 327.964844 133.039062 L 328.027344 133.085938 C 328.148438 133.179688 328.273438 133.269531 328.398438 133.363281 C 329 133.800781 329.605469 134.230469 330.222656 134.648438 L 330.523438 134.851562 L 330.722656 134.980469 C 330.820312 135.050781 330.921875 135.113281 331.023438 135.179688 C 331.992188 135.816406 332.992188 136.417969 334.003906 136.988281 C 335.019531 137.554688 336.054688 138.09375 337.117188 138.582031 L 337.390625 138.710938 L 337.664062 138.832031 " fill-opacity="1" fill-rule="nonzero"/><g clip-path="url(#b26613e3a2)"><path fill="#c5030e" d="M 29.621094 217.570312 C 29.589844 217.558594 29.558594 217.546875 29.527344 217.539062 C 29.453125 216.714844 29.128906 215.914062 28.605469 215.246094 C 28.078125 214.578125 27.347656 214.035156 26.464844 213.726562 C 26.398438 213.703125 25.128906 213.25 23.855469 212.820312 C 22.582031 212.390625 21.296875 211.988281 21.226562 211.96875 C 19.988281 211.589844 18.71875 211.742188 17.691406 212.289062 C 16.664062 212.835938 15.882812 213.777344 15.574219 214.960938 C 15.261719 216.144531 15.464844 217.34375 16.015625 218.328125 C 16.570312 219.316406 17.480469 220.089844 18.632812 220.445312 C 18.699219 220.464844 19.898438 220.835938 21.089844 221.230469 C 22.28125 221.628906 23.464844 222.046875 23.527344 222.070312 C 24.351562 222.359375 25.207031 222.398438 26.007812 222.21875 C 26.808594 222.042969 27.558594 221.652344 28.164062 221.082031 L 28.234375 221.109375 C 29.03125 221.425781 29.828125 221.742188 30.617188 222.074219 C 29.726562 223.28125 28.554688 224.160156 27.308594 224.632812 C 26.0625 225.105469 24.738281 225.171875 23.488281 224.722656 C 23.40625 224.6875 21.84375 224.125 20.265625 223.601562 C 18.691406 223.078125 17.101562 222.597656 17.011719 222.574219 C 15.484375 222.117188 14.3125 220.996094 13.605469 219.515625 C 12.902344 218.039062 12.667969 216.210938 13.074219 214.339844 C 13.488281 212.464844 14.59375 210.9375 16.039062 210.007812 C 17.480469 209.082031 19.261719 208.757812 20.972656 209.269531 C 21.070312 209.296875 22.839844 209.839844 24.59375 210.429688 C 26.347656 211.019531 28.089844 211.65625 28.183594 211.691406 C 29.570312 212.191406 30.660156 213.175781 31.335938 214.398438 C 32.015625 215.621094 32.277344 217.085938 32.066406 218.5625 C 31.253906 218.21875 30.4375 217.894531 29.621094 217.570312 " fill-opacity="1" fill-rule="nonzero"/></g><path fill="#c5030e" d="M 39.5625 222.734375 L 40.160156 223.046875 C 40.558594 223.253906 40.953125 223.472656 41.347656 223.6875 L 41.417969 223.726562 C 41.578125 223.8125 41.707031 223.933594 41.804688 224.074219 C 42.074219 224.457031 42.109375 224.984375 41.851562 225.4375 C 41.59375 225.882812 41.125 226.128906 40.671875 226.109375 C 40.503906 226.101562 40.339844 226.054688 40.183594 225.96875 L 40.117188 225.933594 C 39.734375 225.726562 39.351562 225.511719 38.964844 225.3125 L 38.386719 225.007812 L 37.800781 224.707031 C 37.628906 224.617188 37.457031 224.53125 37.28125 224.445312 C 35.160156 223.375 32.992188 222.394531 30.800781 221.480469 L 30.261719 221.253906 C 29.472656 220.933594 28.6875 220.617188 27.894531 220.3125 L 27.742188 220.257812 C 27.605469 220.203125 27.484375 220.125 27.378906 220.027344 C 27.023438 219.699219 26.890625 219.148438 27.078125 218.636719 C 27.269531 218.125 27.730469 217.804688 28.21875 217.789062 C 28.367188 217.785156 28.515625 217.808594 28.660156 217.863281 L 28.804688 217.921875 C 29.617188 218.230469 30.421875 218.554688 31.226562 218.882812 L 31.777344 219.113281 C 34.023438 220.050781 36.246094 221.054688 38.429688 222.152344 C 38.609375 222.242188 38.785156 222.332031 38.960938 222.425781 L 39.5625 222.734375 " fill-opacity="1" fill-rule="nonzero"/><path fill="#c5030e" d="M 73.058594 232.699219 C 72.996094 234.03125 72.527344 235.273438 71.621094 236.242188 C 71.554688 236.304688 70.417969 237.511719 69.308594 238.75 C 68.199219 239.988281 67.128906 241.257812 67.070312 241.324219 C 66.046875 242.546875 64.546875 243.175781 62.914062 243.238281 C 61.277344 243.296875 59.503906 242.785156 57.949219 241.664062 C 56.398438 240.542969 55.429688 238.917969 55.15625 237.222656 C 55.113281 236.972656 55.089844 236.71875 55.078125 236.46875 C 55.347656 236.617188 55.617188 236.765625 55.886719 236.917969 C 56.058594 237.015625 56.226562 237.109375 56.386719 237.203125 L 56.953125 237.53125 L 57.515625 237.863281 C 57.792969 238.023438 58.070312 238.191406 58.335938 238.355469 C 58.386719 238.386719 58.4375 238.417969 58.484375 238.445312 C 58.746094 238.886719 59.089844 239.289062 59.515625 239.621094 C 60.476562 240.378906 61.65625 240.667969 62.78125 240.554688 C 63.90625 240.4375 64.980469 239.914062 65.765625 238.996094 C 65.808594 238.941406 66.625 237.988281 67.460938 237.054688 C 68.300781 236.117188 69.152344 235.199219 69.199219 235.148438 C 69.796875 234.507812 70.167969 233.738281 70.324219 232.933594 C 70.480469 232.128906 70.417969 231.285156 70.136719 230.503906 L 70.191406 230.449219 C 70.796875 229.84375 71.40625 229.238281 72.023438 228.648438 C 72.777344 229.945312 73.117188 231.367188 73.058594 232.699219 " fill-opacity="1" fill-rule="nonzero"/><path fill="#c5030e" d="M 67.644531 228.125 C 66.855469 227.867188 65.996094 227.84375 65.171875 228.0625 C 64.351562 228.28125 63.5625 228.734375 62.929688 229.417969 C 62.878906 229.472656 61.957031 230.453125 61.058594 231.453125 C 60.15625 232.453125 59.277344 233.472656 59.230469 233.527344 C 58.984375 233.820312 58.777344 234.132812 58.609375 234.457031 L 58.40625 234.339844 C 58.246094 234.25 58.0625 234.144531 57.878906 234.039062 C 57.355469 233.746094 56.828125 233.453125 56.292969 233.164062 C 56.402344 233 56.523438 232.839844 56.652344 232.6875 C 56.71875 232.609375 57.917969 231.199219 59.160156 229.824219 C 60.394531 228.449219 61.671875 227.109375 61.746094 227.035156 C 62.757812 225.960938 64.089844 225.351562 65.480469 225.21875 C 66.871094 225.082031 68.320312 225.421875 69.59375 226.203125 C 68.957031 226.8125 68.332031 227.433594 67.710938 228.054688 C 67.6875 228.078125 67.664062 228.101562 67.644531 228.125 " fill-opacity="1" fill-rule="nonzero"/><path fill="#c5030e" d="M 58.136719 234.800781 L 58.394531 234.949219 L 58.863281 235.222656 L 59.304688 235.484375 C 59.691406 235.710938 60.074219 235.945312 60.460938 236.179688 L 60.527344 236.222656 C 60.683594 236.316406 60.804688 236.441406 60.898438 236.585938 C 61.148438 236.984375 61.15625 237.511719 60.875 237.949219 C 60.597656 238.382812 60.117188 238.609375 59.667969 238.566406 C 59.5 238.546875 59.335938 238.496094 59.1875 238.402344 L 59.121094 238.363281 C 59.113281 238.355469 59.101562 238.351562 59.089844 238.34375 C 58.832031 238.1875 58.574219 238.03125 58.3125 237.875 C 58.210938 237.8125 58.105469 237.75 58 237.6875 L 57.4375 237.355469 L 56.867188 237.027344 C 56.699219 236.929688 56.53125 236.832031 56.363281 236.738281 C 56.007812 236.539062 55.652344 236.339844 55.296875 236.144531 C 55.125 236.054688 54.957031 235.960938 54.785156 235.867188 C 53.222656 235.023438 51.632812 234.226562 50.03125 233.460938 L 49.503906 233.210938 C 48.734375 232.855469 47.960938 232.5 47.183594 232.15625 L 47.039062 232.09375 C 46.902344 232.03125 46.785156 231.949219 46.683594 231.847656 C 46.347656 231.5 46.238281 230.945312 46.453125 230.441406 C 46.667969 229.941406 47.144531 229.640625 47.632812 229.652344 C 47.78125 229.65625 47.929688 229.683594 48.070312 229.75 L 48.210938 229.8125 C 49.003906 230.160156 49.792969 230.523438 50.582031 230.890625 L 51.121094 231.144531 C 52.609375 231.855469 54.085938 232.59375 55.542969 233.371094 C 55.699219 233.453125 55.859375 233.535156 56.015625 233.621094 C 56.550781 233.910156 57.085938 234.207031 57.617188 234.507812 C 57.792969 234.601562 57.964844 234.703125 58.136719 234.800781 " fill-opacity="1" fill-rule="nonzero"/><g clip-path="url(#326514744a)"><path fill="#c5030e" d="M 123.117188 234.75 C 123.179688 236.082031 123.648438 237.324219 124.558594 238.289062 C 124.621094 238.355469 125.761719 239.5625 126.867188 240.800781 C 127.976562 242.039062 129.046875 243.308594 129.105469 243.375 C 130.128906 244.597656 131.628906 245.226562 133.261719 245.289062 C 134.898438 245.347656 136.671875 244.835938 138.226562 243.71875 C 139.777344 242.59375 140.742188 240.96875 141.019531 239.277344 C 141.0625 239.023438 141.085938 238.773438 141.097656 238.519531 C 140.828125 238.667969 140.558594 238.820312 140.289062 238.96875 C 140.117188 239.066406 139.949219 239.164062 139.789062 239.253906 L 139.222656 239.582031 L 138.660156 239.914062 C 138.382812 240.074219 138.105469 240.246094 137.839844 240.40625 C 137.789062 240.4375 137.742188 240.464844 137.691406 240.496094 C 137.429688 240.9375 137.085938 241.339844 136.660156 241.671875 C 135.699219 242.429688 134.519531 242.71875 133.394531 242.605469 C 132.269531 242.488281 131.195312 241.960938 130.414062 241.046875 C 130.367188 240.992188 129.550781 240.039062 128.714844 239.105469 C 127.878906 238.167969 127.023438 237.25 126.976562 237.199219 C 126.382812 236.558594 126.007812 235.789062 125.851562 234.984375 C 125.699219 234.179688 125.757812 233.335938 126.039062 232.554688 L 125.984375 232.5 C 125.378906 231.894531 124.769531 231.289062 124.152344 230.699219 C 123.398438 231.996094 123.058594 233.417969 123.117188 234.75 " fill-opacity="1" fill-rule="nonzero"/></g><path fill="#c5030e" d="M 128.53125 230.175781 C 129.320312 229.917969 130.179688 229.894531 131.003906 230.113281 C 131.824219 230.332031 132.613281 230.785156 133.25 231.472656 C 133.300781 231.523438 134.21875 232.507812 135.117188 233.507812 C 136.019531 234.503906 136.898438 235.523438 136.945312 235.578125 C 137.195312 235.871094 137.398438 236.183594 137.566406 236.511719 L 137.773438 236.390625 C 137.929688 236.300781 138.113281 236.195312 138.300781 236.089844 C 138.820312 235.796875 139.347656 235.503906 139.882812 235.21875 C 139.773438 235.054688 139.652344 234.894531 139.523438 234.738281 C 139.457031 234.660156 138.257812 233.25 137.019531 231.875 C 135.78125 230.5 134.503906 229.15625 134.433594 229.085938 C 133.421875 228.011719 132.085938 227.402344 130.695312 227.269531 C 129.304688 227.132812 127.855469 227.472656 126.585938 228.253906 C 127.222656 228.863281 127.84375 229.484375 128.46875 230.105469 C 128.488281 230.128906 128.511719 230.152344 128.53125 230.175781 " fill-opacity="1" fill-rule="nonzero"/><path fill="#c5030e" d="M 137.921875 236.933594 L 137.6875 237.105469 L 137.378906 237.332031 L 137.246094 237.429688 L 136.835938 237.730469 C 136.472656 238 136.117188 238.273438 135.761719 238.546875 L 135.695312 238.597656 C 135.550781 238.707031 135.445312 238.84375 135.367188 239 C 135.160156 239.417969 135.207031 239.945312 135.53125 240.351562 C 135.851562 240.753906 136.355469 240.925781 136.800781 240.835938 C 136.964844 240.800781 137.121094 240.730469 137.261719 240.625 L 137.320312 240.578125 C 137.328125 240.570312 137.339844 240.5625 137.347656 240.554688 C 137.589844 240.371094 137.832031 240.1875 138.070312 240.007812 C 138.167969 239.933594 138.265625 239.859375 138.363281 239.789062 L 138.890625 239.398438 L 139.421875 239.011719 C 139.578125 238.898438 139.734375 238.785156 139.894531 238.671875 C 140.226562 238.4375 140.558594 238.203125 140.890625 237.972656 C 141.050781 237.859375 141.210938 237.75 141.371094 237.640625 C 142.835938 236.636719 144.332031 235.675781 145.847656 234.75 L 146.34375 234.445312 C 147.070312 234.007812 147.800781 233.574219 148.539062 233.152344 L 148.679688 233.070312 C 148.804688 232.996094 148.914062 232.902344 149.003906 232.789062 C 149.300781 232.410156 149.351562 231.847656 149.085938 231.367188 C 148.820312 230.894531 148.316406 230.648438 147.832031 230.707031 C 147.683594 230.726562 147.539062 230.773438 147.40625 230.851562 L 147.273438 230.925781 C 146.519531 231.355469 145.773438 231.800781 145.027344 232.25 L 144.515625 232.558594 C 143.109375 233.421875 141.722656 234.3125 140.351562 235.238281 C 140.207031 235.335938 140.058594 235.433594 139.914062 235.535156 C 139.410156 235.878906 138.90625 236.230469 138.410156 236.585938 C 138.246094 236.699219 138.085938 236.816406 137.921875 236.933594 " fill-opacity="1" fill-rule="nonzero"/><path fill="#c5030e" d="M 55.625 229.9375 L 55.621094 230.007812 C 55.617188 230.027344 55.601562 230.039062 55.59375 230.054688 C 55.515625 230.183594 55.449219 230.324219 55.378906 230.46875 C 55.09375 231.058594 54.8125 231.742188 54.488281 232.453125 L 54.140625 232.121094 C 54.085938 232.066406 54.027344 232.011719 53.964844 231.960938 L 53.75 231.761719 C 53.410156 231.445312 53.0625 231.144531 52.714844 230.839844 C 52.832031 230.421875 52.875 229.992188 52.855469 229.558594 C 52.835938 229.125 52.75 228.683594 52.59375 228.261719 C 52.515625 228.050781 52.421875 227.839844 52.3125 227.636719 C 52.203125 227.433594 52.078125 227.242188 51.933594 227.050781 C 51.652344 226.667969 51.300781 226.328125 50.898438 226.03125 C 50.839844 225.980469 49.707031 225.152344 48.554688 224.375 C 48.265625 224.183594 47.976562 223.984375 47.703125 223.808594 C 47.429688 223.632812 47.171875 223.464844 46.953125 223.320312 C 46.503906 223.042969 46.195312 222.847656 46.164062 222.828125 C 45.753906 222.574219 45.316406 222.398438 44.882812 222.277344 C 44.441406 222.164062 44 222.109375 43.566406 222.121094 C 43.132812 222.132812 42.710938 222.207031 42.308594 222.339844 C 41.910156 222.472656 41.53125 222.660156 41.1875 222.902344 C 41.144531 222.875 41.097656 222.84375 41.046875 222.820312 C 40.65625 222.605469 40.261719 222.402344 39.871094 222.195312 C 39.472656 221.992188 39.078125 221.785156 38.683594 221.585938 C 39.175781 221.019531 39.742188 220.542969 40.363281 220.175781 C 40.984375 219.808594 41.652344 219.550781 42.351562 219.410156 C 43.742188 219.136719 45.234375 219.347656 46.554688 220.132812 C 46.644531 220.183594 48.289062 221.171875 49.902344 222.265625 C 50.308594 222.535156 50.707031 222.820312 51.085938 223.082031 C 51.460938 223.347656 51.8125 223.601562 52.113281 223.820312 C 52.71875 224.269531 53.136719 224.582031 53.179688 224.617188 C 53.496094 224.863281 53.789062 225.125 54.046875 225.414062 C 54.308594 225.703125 54.539062 226.011719 54.738281 226.332031 C 54.933594 226.660156 55.101562 227 55.234375 227.347656 C 55.371094 227.695312 55.46875 228.058594 55.539062 228.421875 C 55.570312 228.605469 55.597656 228.785156 55.613281 228.96875 C 55.632812 229.152344 55.640625 229.339844 55.640625 229.523438 C 55.640625 229.617188 55.636719 229.707031 55.632812 229.800781 L 55.625 229.9375 " fill-opacity="1" fill-rule="nonzero"/><path fill="#c5030e" d="M 38.117188 225.566406 C 38.492188 225.765625 38.871094 225.960938 39.246094 226.164062 C 39.292969 226.191406 39.339844 226.214844 39.390625 226.234375 C 39.367188 226.648438 39.402344 227.058594 39.488281 227.457031 C 39.574219 227.855469 39.707031 228.242188 39.894531 228.601562 C 40.074219 228.964844 40.304688 229.300781 40.582031 229.601562 C 40.851562 229.90625 41.175781 230.167969 41.535156 230.390625 C 41.566406 230.40625 41.839844 230.578125 42.234375 230.824219 C 42.429688 230.949219 42.65625 231.09375 42.898438 231.25 C 43.140625 231.40625 43.390625 231.574219 43.644531 231.742188 C 44.652344 232.417969 45.628906 233.128906 45.675781 233.167969 C 46.003906 233.410156 46.359375 233.59375 46.71875 233.734375 C 46.902344 233.800781 47.085938 233.855469 47.277344 233.898438 C 47.464844 233.941406 47.652344 233.972656 47.847656 233.992188 C 48.039062 234.011719 48.234375 234.015625 48.429688 234.011719 C 48.621094 234.007812 48.816406 233.992188 49.007812 233.960938 C 49.394531 233.902344 49.78125 233.796875 50.148438 233.644531 C 50.476562 233.933594 50.808594 234.214844 51.128906 234.511719 L 51.382812 234.746094 C 51.492188 234.84375 51.589844 234.9375 51.695312 235.035156 L 52.296875 235.628906 C 52.011719 235.847656 51.699219 236.023438 51.359375 236.148438 C 51.019531 236.277344 50.660156 236.351562 50.261719 236.386719 C 50.164062 236.394531 50.0625 236.402344 49.953125 236.402344 C 49.902344 236.402344 49.847656 236.402344 49.792969 236.398438 L 49.753906 236.398438 L 49.722656 236.40625 L 49.664062 236.421875 C 49.5 236.460938 49.335938 236.496094 49.175781 236.527344 C 48.855469 236.582031 48.535156 236.621094 48.21875 236.636719 C 46.964844 236.691406 45.796875 236.394531 44.828125 235.664062 C 44.796875 235.640625 44.464844 235.398438 43.992188 235.042969 C 43.75 234.871094 43.46875 234.671875 43.171875 234.457031 C 42.867188 234.253906 42.550781 234.023438 42.21875 233.808594 C 40.917969 232.929688 39.542969 232.109375 39.46875 232.066406 C 38.375 231.417969 37.605469 230.386719 37.175781 229.140625 C 36.957031 228.519531 36.828125 227.84375 36.792969 227.148438 C 36.757812 226.445312 36.816406 225.714844 36.980469 224.988281 C 37.363281 225.175781 37.738281 225.375 38.117188 225.566406 " fill-opacity="1" fill-rule="nonzero"/><path fill="#c5030e" d="M 77.503906 222.371094 C 77.707031 222.273438 77.910156 222.171875 78.117188 222.078125 L 78.742188 221.796875 L 79.363281 221.515625 L 79.992188 221.253906 L 80.070312 221.222656 C 80.238281 221.152344 80.414062 221.125 80.585938 221.132812 C 80.703125 221.140625 80.816406 221.164062 80.925781 221.203125 C 81.035156 221.246094 81.140625 221.304688 81.238281 221.375 C 81.429688 221.515625 81.582031 221.714844 81.675781 221.957031 C 81.769531 222.199219 81.789062 222.449219 81.746094 222.679688 C 81.726562 222.792969 81.691406 222.902344 81.644531 223.003906 C 81.59375 223.109375 81.53125 223.207031 81.457031 223.292969 C 81.347656 223.417969 81.210938 223.519531 81.050781 223.589844 L 80.984375 223.617188 L 80.382812 223.863281 L 79.792969 224.132812 L 79.203125 224.398438 C 79.007812 224.484375 78.8125 224.585938 78.617188 224.679688 L 78.101562 224.929688 C 77.835938 225.054688 77.574219 225.195312 77.316406 225.328125 L 76.535156 225.738281 L 75.761719 226.167969 L 75.378906 226.378906 L 74.996094 226.605469 L 74.238281 227.050781 L 73.484375 227.515625 C 72.980469 227.824219 72.496094 228.15625 72 228.472656 C 71.839844 228.582031 71.683594 228.691406 71.523438 228.800781 C 71.175781 229.039062 70.828125 229.273438 70.488281 229.523438 C 70.148438 229.765625 69.804688 230.011719 69.46875 230.265625 L 69.339844 230.359375 C 69.222656 230.449219 69.09375 230.507812 68.957031 230.542969 C 68.492188 230.664062 67.957031 230.496094 67.617188 230.0625 C 67.285156 229.636719 67.25 229.066406 67.503906 228.644531 C 67.582031 228.519531 67.679688 228.402344 67.808594 228.308594 L 67.929688 228.214844 C 68.28125 227.949219 68.636719 227.695312 68.992188 227.441406 C 69.347656 227.183594 69.710938 226.9375 70.074219 226.6875 C 70.238281 226.578125 70.402344 226.460938 70.570312 226.347656 L 71.34375 225.84375 C 71.472656 225.761719 71.597656 225.671875 71.730469 225.59375 L 72.121094 225.347656 L 72.90625 224.863281 L 74.101562 224.160156 L 74.503906 223.933594 L 75.316406 223.484375 L 76.132812 223.058594 C 76.410156 222.914062 76.679688 222.769531 76.960938 222.636719 L 77.503906 222.371094 " fill-opacity="1" fill-rule="nonzero"/><path fill="#c5030e" d="M 94.601562 216.839844 L 94.429688 216.855469 L 94.082031 216.882812 L 93.386719 216.941406 C 93.152344 216.964844 92.921875 216.980469 92.691406 217.011719 C 92.464844 216.648438 92.175781 216.324219 91.839844 216.042969 C 91.667969 215.902344 91.488281 215.773438 91.296875 215.660156 C 91.199219 215.601562 91.097656 215.546875 90.996094 215.496094 C 90.894531 215.445312 90.792969 215.402344 90.6875 215.359375 C 90.261719 215.195312 89.796875 215.089844 89.3125 215.042969 C 89.253906 215.039062 89.191406 215.035156 89.132812 215.03125 C 89.070312 215.027344 89.007812 215.027344 88.949219 215.027344 C 88.824219 215.03125 88.703125 215.035156 88.578125 215.046875 C 88.328125 215.066406 88.078125 215.101562 87.824219 215.15625 C 87.785156 215.164062 87.410156 215.234375 86.875 215.375 C 86.609375 215.4375 86.300781 215.515625 85.972656 215.597656 C 85.890625 215.617188 85.804688 215.640625 85.722656 215.660156 C 85.636719 215.683594 85.550781 215.707031 85.46875 215.734375 C 85.296875 215.78125 85.125 215.832031 84.953125 215.882812 C 84.605469 215.980469 84.257812 216.074219 83.9375 216.179688 C 83.617188 216.285156 83.316406 216.382812 83.054688 216.46875 C 82.792969 216.550781 82.574219 216.621094 82.414062 216.679688 C 82.257812 216.734375 82.160156 216.773438 82.140625 216.777344 C 81.675781 216.953125 81.242188 217.175781 80.867188 217.457031 C 80.492188 217.738281 80.167969 218.0625 79.902344 218.417969 C 79.769531 218.589844 79.652344 218.777344 79.550781 218.972656 C 79.449219 219.164062 79.359375 219.363281 79.289062 219.5625 C 79.148438 219.964844 79.066406 220.382812 79.054688 220.800781 C 79.003906 220.816406 78.953125 220.839844 78.902344 220.863281 L 77.679688 221.453125 L 76.476562 222.078125 C 76.125 220.625 76.269531 219.105469 76.921875 217.800781 C 77.242188 217.140625 77.695312 216.550781 78.25 216.035156 C 78.523438 215.773438 78.835938 215.550781 79.164062 215.34375 C 79.332031 215.242188 79.5 215.144531 79.679688 215.054688 C 79.855469 214.964844 80.035156 214.878906 80.226562 214.8125 C 80.277344 214.792969 80.78125 214.609375 81.511719 214.34375 C 81.875 214.214844 82.308594 214.078125 82.761719 213.929688 C 82.992188 213.855469 83.222656 213.773438 83.46875 213.707031 C 83.710938 213.632812 83.953125 213.5625 84.203125 213.492188 C 84.449219 213.421875 84.695312 213.351562 84.9375 213.285156 C 85.179688 213.214844 85.421875 213.160156 85.65625 213.097656 C 86.125 212.984375 86.566406 212.871094 86.949219 212.785156 C 87.71875 212.625 88.253906 212.515625 88.308594 212.503906 C 88.410156 212.480469 88.511719 212.460938 88.613281 212.445312 C 88.714844 212.429688 88.820312 212.421875 88.921875 212.410156 C 89.125 212.390625 89.328125 212.382812 89.53125 212.378906 C 89.734375 212.378906 89.933594 212.386719 90.132812 212.402344 C 90.328125 212.417969 90.523438 212.4375 90.714844 212.476562 C 91.101562 212.554688 91.476562 212.660156 91.832031 212.796875 C 92.191406 212.929688 92.527344 213.089844 92.847656 213.296875 C 93.488281 213.699219 94.039062 214.207031 94.484375 214.792969 C 94.925781 215.394531 95.261719 216.070312 95.476562 216.800781 L 94.777344 216.832031 L 94.601562 216.839844 " fill-opacity="1" fill-rule="nonzero"/><path fill="#c5030e" d="M 80.511719 224.304688 C 80.5625 224.28125 80.609375 224.253906 80.65625 224.230469 C 80.972656 224.5 81.316406 224.722656 81.679688 224.898438 C 81.863281 224.984375 82.046875 225.058594 82.238281 225.121094 C 82.425781 225.183594 82.617188 225.230469 82.8125 225.277344 C 83.199219 225.359375 83.59375 225.386719 83.984375 225.355469 C 84.375 225.332031 84.769531 225.261719 85.152344 225.117188 C 85.164062 225.109375 85.246094 225.082031 85.375 225.035156 C 85.503906 224.988281 85.683594 224.929688 85.894531 224.859375 C 86.109375 224.789062 86.351562 224.710938 86.613281 224.621094 C 86.875 224.539062 87.15625 224.464844 87.4375 224.378906 C 87.578125 224.339844 87.71875 224.296875 87.855469 224.257812 C 87.921875 224.238281 87.992188 224.21875 88.058594 224.199219 C 88.128906 224.179688 88.195312 224.164062 88.261719 224.148438 C 88.527344 224.082031 88.773438 224.019531 88.992188 223.964844 C 89.421875 223.851562 89.71875 223.796875 89.75 223.789062 C 90.132812 223.707031 90.492188 223.5625 90.824219 223.382812 C 91.15625 223.210938 91.460938 222.992188 91.738281 222.730469 C 92.015625 222.460938 92.265625 222.179688 92.480469 221.855469 C 92.691406 221.535156 92.871094 221.179688 93.007812 220.800781 L 93.328125 220.761719 L 93.652344 220.734375 L 94.292969 220.679688 C 94.507812 220.664062 94.722656 220.640625 94.9375 220.628906 L 95.582031 220.601562 C 95.433594 221.320312 95.199219 221.988281 94.910156 222.597656 C 94.621094 223.21875 94.269531 223.777344 93.878906 224.25 C 93.828125 224.308594 93.78125 224.367188 93.730469 224.421875 C 93.679688 224.476562 93.628906 224.539062 93.574219 224.59375 C 93.472656 224.707031 93.367188 224.8125 93.257812 224.910156 C 93.042969 225.113281 92.8125 225.289062 92.574219 225.441406 C 92.335938 225.59375 92.089844 225.734375 91.832031 225.839844 C 91.703125 225.894531 91.570312 225.941406 91.433594 225.980469 C 91.367188 226 91.300781 226.015625 91.230469 226.03125 C 91.164062 226.050781 91.09375 226.070312 91.023438 226.085938 C 90.984375 226.09375 90.609375 226.171875 90.066406 226.285156 C 89.792969 226.347656 89.480469 226.429688 89.148438 226.511719 C 88.980469 226.554688 88.808594 226.589844 88.632812 226.644531 C 88.460938 226.691406 88.28125 226.746094 88.105469 226.796875 C 87.929688 226.847656 87.753906 226.898438 87.578125 226.949219 C 87.40625 227 87.234375 227.058594 87.070312 227.113281 C 86.742188 227.222656 86.429688 227.320312 86.164062 227.414062 C 85.628906 227.613281 85.261719 227.746094 85.222656 227.761719 C 85.082031 227.808594 84.945312 227.859375 84.804688 227.898438 C 84.664062 227.941406 84.519531 227.972656 84.375 227.996094 C 84.089844 228.046875 83.792969 228.058594 83.5 228.0625 C 82.910156 228.058594 82.296875 227.933594 81.691406 227.738281 C 80.480469 227.320312 79.269531 226.550781 78.269531 225.429688 L 79.386719 224.851562 L 80.511719 224.304688 " fill-opacity="1" fill-rule="nonzero"/><path fill="#c5030e" d="M 57.4375 230.042969 C 57.4375 230.046875 57.441406 230.042969 57.4375 230.046875 C 57.433594 230.039062 57.429688 230.035156 57.429688 230.035156 C 57.429688 230.035156 57.433594 230.039062 57.4375 230.042969 " fill-opacity="1" fill-rule="nonzero"/><path fill="#c5030e" d="M 57.4375 230.046875 C 57.4375 230.046875 57.433594 230.050781 57.433594 230.050781 C 57.433594 230.046875 57.4375 230.046875 57.4375 230.046875 " fill-opacity="1" fill-rule="nonzero"/><path fill="#c5030e" d="M 103.203125 217.851562 L 103.375 217.875 L 104.214844 218.03125 L 104.890625 218.15625 C 105 218.175781 105.113281 218.195312 105.226562 218.21875 L 105.558594 218.296875 L 105.640625 218.316406 C 105.816406 218.359375 105.976562 218.4375 106.113281 218.546875 C 106.484375 218.839844 106.660156 219.339844 106.53125 219.839844 C 106.402344 220.339844 106.019531 220.707031 105.585938 220.8125 C 105.425781 220.851562 105.257812 220.855469 105.085938 220.816406 L 105.015625 220.800781 L 104.703125 220.726562 C 104.601562 220.707031 104.496094 220.6875 104.390625 220.667969 L 103.757812 220.550781 L 103.128906 220.433594 L 102.96875 220.40625 L 102.8125 220.382812 L 102.492188 220.339844 L 101.929688 220.261719 C 99.628906 219.957031 97.300781 219.871094 94.984375 220.007812 C 94.792969 220.011719 94.605469 220.035156 94.414062 220.050781 C 94.003906 220.089844 93.589844 220.121094 93.179688 220.160156 L 91.945312 220.320312 L 91.789062 220.339844 C 91.648438 220.359375 91.507812 220.359375 91.371094 220.324219 C 90.910156 220.21875 90.519531 219.8125 90.417969 219.273438 C 90.320312 218.738281 90.558594 218.230469 90.984375 217.964844 C 91.113281 217.890625 91.257812 217.828125 91.414062 217.808594 L 91.570312 217.789062 L 92.886719 217.617188 C 93.328125 217.570312 93.769531 217.539062 94.210938 217.496094 C 94.414062 217.484375 94.617188 217.457031 94.820312 217.453125 C 97.300781 217.304688 99.796875 217.394531 102.261719 217.722656 L 102.863281 217.804688 L 103.203125 217.851562 " fill-opacity="1" fill-rule="nonzero"/><path fill="#c5030e" d="M 119.480469 223.402344 C 119.085938 223.167969 118.699219 222.925781 118.292969 222.714844 C 118.355469 221.859375 118.140625 220.992188 117.675781 220.210938 C 117.4375 219.828125 117.136719 219.476562 116.78125 219.164062 C 116.601562 219.003906 116.410156 218.859375 116.207031 218.722656 C 116.105469 218.652344 116 218.589844 115.890625 218.527344 C 115.78125 218.46875 115.667969 218.414062 115.550781 218.363281 C 115.515625 218.347656 115.171875 218.199219 114.675781 217.976562 C 114.425781 217.867188 114.140625 217.742188 113.832031 217.605469 C 113.519531 217.484375 113.1875 217.355469 112.855469 217.222656 C 112.519531 217.097656 112.1875 216.964844 111.875 216.84375 C 111.558594 216.730469 111.257812 216.632812 111 216.542969 C 110.480469 216.367188 110.121094 216.246094 110.082031 216.234375 C 109.847656 216.152344 109.605469 216.105469 109.363281 216.066406 C 109.125 216.03125 108.886719 216.011719 108.648438 216.011719 C 108.179688 216.003906 107.726562 216.050781 107.292969 216.1875 C 106.863281 216.316406 106.460938 216.5 106.105469 216.734375 C 105.925781 216.851562 105.757812 216.984375 105.605469 217.125 C 105.527344 217.195312 105.453125 217.265625 105.382812 217.34375 C 105.308594 217.421875 105.238281 217.503906 105.175781 217.585938 C 105.121094 217.570312 105.066406 217.558594 105.011719 217.546875 L 103.667969 217.300781 C 103.445312 217.253906 103.214844 217.230469 102.992188 217.195312 L 102.3125 217.105469 C 102.597656 216.40625 102.992188 215.773438 103.484375 215.226562 C 103.609375 215.089844 103.738281 214.960938 103.871094 214.832031 C 104.007812 214.710938 104.148438 214.597656 104.292969 214.488281 C 104.582031 214.269531 104.894531 214.074219 105.226562 213.910156 C 105.558594 213.742188 105.910156 213.597656 106.269531 213.496094 C 106.628906 213.394531 107.003906 213.328125 107.386719 213.292969 C 107.769531 213.257812 108.167969 213.246094 108.558594 213.28125 C 108.949219 213.324219 109.347656 213.402344 109.738281 213.515625 C 109.765625 213.523438 109.910156 213.5625 110.140625 213.628906 C 110.257812 213.664062 110.394531 213.703125 110.546875 213.75 C 110.703125 213.800781 110.871094 213.859375 111.058594 213.917969 C 111.425781 214.042969 111.851562 214.191406 112.304688 214.34375 C 112.421875 214.382812 112.535156 214.421875 112.652344 214.460938 C 112.765625 214.503906 112.882812 214.550781 113 214.597656 C 113.230469 214.6875 113.46875 214.777344 113.707031 214.871094 C 113.941406 214.964844 114.175781 215.054688 114.410156 215.148438 C 114.527344 215.191406 114.640625 215.238281 114.753906 215.285156 C 114.867188 215.328125 114.976562 215.378906 115.085938 215.425781 C 115.519531 215.617188 115.925781 215.796875 116.28125 215.953125 C 116.988281 216.257812 117.453125 216.503906 117.503906 216.527344 C 117.871094 216.703125 118.210938 216.910156 118.527344 217.136719 C 118.6875 217.25 118.839844 217.371094 118.984375 217.496094 C 119.125 217.625 119.257812 217.761719 119.386719 217.902344 C 119.898438 218.464844 120.300781 219.09375 120.574219 219.769531 C 121.101562 221.152344 121.136719 222.671875 120.65625 224.109375 L 119.480469 223.402344 " fill-opacity="1" fill-rule="nonzero"/><path fill="#c5030e" d="M 103.046875 221.050781 L 104.261719 221.273438 C 104.316406 221.285156 104.367188 221.289062 104.417969 221.292969 C 104.441406 221.394531 104.46875 221.492188 104.5 221.589844 C 104.527344 221.6875 104.5625 221.785156 104.59375 221.882812 C 104.664062 222.074219 104.746094 222.261719 104.835938 222.441406 C 105.019531 222.800781 105.242188 223.128906 105.5 223.417969 C 105.757812 223.699219 106.046875 223.976562 106.367188 224.191406 C 106.527344 224.296875 106.699219 224.394531 106.875 224.476562 C 107.054688 224.558594 107.238281 224.625 107.429688 224.691406 C 107.460938 224.703125 107.75 224.800781 108.171875 224.941406 C 108.382812 225.011719 108.625 225.09375 108.882812 225.179688 C 109.140625 225.28125 109.414062 225.386719 109.683594 225.492188 C 109.957031 225.597656 110.226562 225.703125 110.484375 225.800781 C 110.738281 225.914062 110.972656 226.015625 111.179688 226.105469 C 111.589844 226.285156 111.871094 226.410156 111.902344 226.421875 C 111.992188 226.460938 112.085938 226.496094 112.175781 226.53125 C 112.269531 226.566406 112.359375 226.597656 112.453125 226.628906 C 112.636719 226.683594 112.824219 226.726562 113.015625 226.757812 C 113.394531 226.816406 113.777344 226.820312 114.164062 226.769531 C 114.921875 226.699219 115.675781 226.429688 116.339844 225.976562 C 116.53125 226.082031 116.722656 226.179688 116.910156 226.292969 L 117.472656 226.628906 L 118.59375 227.304688 C 117.527344 228.320312 116.273438 229 115.054688 229.285156 C 114.4375 229.449219 113.828125 229.511719 113.242188 229.464844 C 113.097656 229.453125 112.953125 229.433594 112.808594 229.410156 C 112.664062 229.390625 112.519531 229.363281 112.378906 229.328125 C 112.097656 229.261719 111.824219 229.164062 111.558594 229.035156 C 111.519531 229.019531 111.167969 228.828125 110.644531 228.609375 C 110.382812 228.496094 110.082031 228.363281 109.761719 228.222656 C 109.683594 228.1875 109.601562 228.148438 109.519531 228.117188 C 109.4375 228.085938 109.351562 228.050781 109.265625 228.019531 C 109.097656 227.953125 108.925781 227.886719 108.753906 227.820312 C 108.582031 227.753906 108.410156 227.6875 108.238281 227.621094 C 108.152344 227.589844 108.070312 227.554688 107.988281 227.523438 C 107.902344 227.496094 107.820312 227.46875 107.738281 227.441406 C 107.410156 227.328125 107.105469 227.226562 106.839844 227.136719 C 106.707031 227.09375 106.582031 227.050781 106.476562 227.015625 C 106.363281 226.984375 106.265625 226.957031 106.183594 226.933594 C 106.019531 226.886719 105.917969 226.859375 105.898438 226.851562 C 105.621094 226.773438 105.355469 226.664062 105.105469 226.527344 C 105.042969 226.488281 104.980469 226.457031 104.921875 226.421875 C 104.859375 226.386719 104.796875 226.351562 104.738281 226.3125 C 104.617188 226.238281 104.503906 226.15625 104.390625 226.066406 C 104.164062 225.890625 103.949219 225.683594 103.75 225.457031 C 103.550781 225.234375 103.359375 225 103.183594 224.738281 C 103.011719 224.480469 102.847656 224.199219 102.699219 223.902344 C 102.628906 223.75 102.558594 223.597656 102.492188 223.441406 C 102.425781 223.285156 102.363281 223.128906 102.304688 222.96875 C 102.070312 222.324219 101.902344 221.617188 101.824219 220.871094 L 102.4375 220.957031 C 102.640625 220.988281 102.84375 221.007812 103.046875 221.050781 " fill-opacity="1" fill-rule="nonzero"/><path fill="#c5030e" d="M 151.226562 222.4375 C 150.339844 222.523438 149.445312 222.878906 148.683594 223.503906 C 148.652344 223.53125 148.375 223.761719 147.964844 224.09375 C 147.765625 224.265625 147.53125 224.460938 147.285156 224.667969 C 147.039062 224.882812 146.78125 225.105469 146.519531 225.332031 C 145.484375 226.234375 144.492188 227.171875 144.4375 227.222656 C 143.746094 227.882812 143.292969 228.691406 143.09375 229.535156 C 142.992188 229.953125 142.953125 230.378906 142.980469 230.800781 C 143.003906 231.222656 143.085938 231.632812 143.234375 232.027344 C 143.191406 232.0625 143.152344 232.101562 143.117188 232.140625 C 142.507812 232.78125 141.90625 233.433594 141.316406 234.097656 C 140.472656 232.851562 140.074219 231.40625 140.167969 229.992188 C 140.261719 228.578125 140.851562 227.199219 141.941406 226.140625 C 142.015625 226.066406 143.382812 224.75 144.828125 223.488281 C 145.191406 223.175781 145.550781 222.859375 145.898438 222.570312 C 146.070312 222.421875 146.238281 222.28125 146.398438 222.148438 C 146.558594 222.015625 146.710938 221.890625 146.851562 221.773438 C 146.996094 221.65625 147.128906 221.550781 147.242188 221.453125 C 147.363281 221.359375 147.46875 221.277344 147.558594 221.207031 C 147.734375 221.066406 147.84375 220.976562 147.863281 220.960938 C 149.085938 219.980469 150.589844 219.550781 152.039062 219.648438 C 152.40625 219.671875 152.761719 219.726562 153.117188 219.816406 C 153.472656 219.90625 153.820312 220.023438 154.152344 220.175781 C 154.820312 220.46875 155.449219 220.890625 156 221.414062 C 155.230469 221.90625 154.480469 222.425781 153.734375 222.953125 C 152.992188 222.535156 152.113281 222.347656 151.226562 222.4375 " fill-opacity="1" fill-rule="nonzero"/><path fill="#c5030e" d="M 145.980469 234.632812 C 146.371094 234.761719 146.777344 234.835938 147.183594 234.859375 C 147.589844 234.882812 148 234.851562 148.394531 234.769531 C 149.183594 234.605469 149.929688 234.234375 150.542969 233.648438 C 150.59375 233.601562 151.480469 232.757812 152.394531 231.957031 C 152.625 231.753906 152.855469 231.554688 153.070312 231.367188 C 153.289062 231.183594 153.492188 231.011719 153.667969 230.859375 C 154.027344 230.566406 154.273438 230.363281 154.296875 230.339844 C 154.613281 230.082031 154.882812 229.789062 155.105469 229.464844 C 155.332031 229.144531 155.507812 228.792969 155.640625 228.429688 C 155.773438 228.066406 155.855469 227.679688 155.894531 227.292969 C 155.929688 226.902344 155.921875 226.503906 155.859375 226.109375 C 156.035156 225.980469 156.214844 225.855469 156.394531 225.730469 C 156.574219 225.605469 156.75 225.480469 156.929688 225.359375 C 157.292969 225.117188 157.652344 224.867188 158.019531 224.632812 C 158.253906 225.328125 158.386719 226.027344 158.4375 226.714844 C 158.460938 227.058594 158.460938 227.394531 158.4375 227.71875 C 158.421875 228.050781 158.378906 228.375 158.316406 228.683594 C 158.0625 229.929688 157.476562 231.007812 156.511719 231.777344 C 156.445312 231.832031 155.21875 232.804688 154.03125 233.859375 C 152.839844 234.90625 151.691406 236.019531 151.625 236.082031 C 150.714844 236.96875 149.519531 237.4375 148.210938 237.527344 C 146.902344 237.617188 145.476562 237.320312 144.15625 236.625 C 144.71875 235.992188 145.292969 235.367188 145.875 234.753906 C 145.910156 234.714844 145.945312 234.671875 145.980469 234.632812 " fill-opacity="1" fill-rule="nonzero"/><path fill="#c5030e" d="M 128.40625 230.476562 L 128.46875 230.527344 C 128.601562 230.648438 128.703125 230.792969 128.769531 230.949219 C 128.953125 231.382812 128.871094 231.910156 128.527344 232.296875 C 128.183594 232.679688 127.679688 232.824219 127.242188 232.707031 C 127.082031 232.664062 126.929688 232.585938 126.796875 232.46875 L 126.742188 232.421875 L 124.734375 230.757812 L 124.277344 230.40625 L 122.878906 229.332031 L 121.441406 228.308594 C 120.964844 227.960938 120.46875 227.648438 119.980469 227.324219 L 119.242188 226.84375 L 119.058594 226.722656 L 118.871094 226.609375 L 118.492188 226.386719 L 118 226.089844 L 117.191406 225.609375 L 116.917969 225.457031 L 115.816406 224.859375 L 115.675781 224.785156 C 115.546875 224.714844 115.4375 224.621094 115.347656 224.515625 C 115.039062 224.160156 114.960938 223.601562 115.203125 223.109375 C 115.441406 222.621094 115.9375 222.347656 116.433594 222.382812 C 116.582031 222.398438 116.726562 222.445312 116.867188 222.519531 L 117.003906 222.59375 L 118.160156 223.21875 L 118.453125 223.378906 L 119.296875 223.882812 L 119.816406 224.191406 L 120.210938 224.429688 L 120.410156 224.546875 L 120.601562 224.671875 L 121.375 225.175781 C 121.886719 225.511719 122.40625 225.839844 122.898438 226.203125 L 124.398438 227.269531 L 125.855469 228.386719 L 126.328125 228.753906 L 128.40625 230.476562 " fill-opacity="1" fill-rule="nonzero"/><path fill="#c5030e" d="M 181.714844 217.332031 C 181.507812 218.269531 181.152344 219.128906 180.722656 219.890625 C 180.507812 220.273438 180.273438 220.628906 180.03125 220.957031 C 179.785156 221.285156 179.527344 221.601562 179.265625 221.875 C 179.132812 222.015625 179 222.144531 178.863281 222.265625 C 178.730469 222.394531 178.59375 222.515625 178.453125 222.625 C 178.179688 222.847656 177.902344 223.027344 177.617188 223.1875 C 177.476562 223.269531 177.332031 223.335938 177.1875 223.394531 L 176.972656 223.476562 C 176.898438 223.503906 176.828125 223.527344 176.753906 223.550781 C 176.609375 223.59375 176.460938 223.625 176.308594 223.644531 C 176.160156 223.667969 176.007812 223.683594 175.855469 223.6875 C 175.785156 223.675781 174.503906 223.695312 173.199219 223.875 C 171.894531 224.046875 170.566406 224.382812 170.496094 224.414062 C 169.972656 224.550781 169.429688 224.578125 168.875 224.503906 C 168.601562 224.472656 168.320312 224.410156 168.035156 224.324219 C 167.757812 224.242188 167.472656 224.132812 167.191406 224.003906 C 166.90625 223.871094 166.625 223.726562 166.34375 223.554688 C 166.066406 223.382812 165.789062 223.183594 165.519531 222.972656 C 164.980469 222.546875 164.46875 222.039062 164.011719 221.449219 C 164.148438 221.390625 164.285156 221.328125 164.421875 221.269531 C 164.574219 221.203125 164.722656 221.136719 164.878906 221.070312 C 164.96875 221.035156 165.0625 220.996094 165.152344 220.960938 L 165.238281 220.925781 C 165.320312 220.890625 165.402344 220.859375 165.484375 220.824219 L 165.703125 220.734375 L 166.050781 220.605469 L 166.273438 220.519531 C 166.300781 220.511719 166.328125 220.5 166.355469 220.488281 C 166.5 220.632812 166.652344 220.765625 166.8125 220.890625 C 166.96875 221.011719 167.136719 221.128906 167.304688 221.230469 C 167.472656 221.335938 167.648438 221.425781 167.824219 221.503906 C 167.910156 221.542969 168 221.582031 168.089844 221.617188 C 168.179688 221.652344 168.269531 221.683594 168.359375 221.714844 C 168.726562 221.835938 169.09375 221.890625 169.46875 221.917969 C 169.65625 221.929688 169.839844 221.925781 170.027344 221.90625 C 170.214844 221.886719 170.402344 221.863281 170.585938 221.816406 C 170.644531 221.800781 171.722656 221.554688 172.796875 221.402344 C 173.875 221.246094 174.945312 221.207031 175.003906 221.203125 C 175.132812 221.195312 175.261719 221.179688 175.386719 221.15625 C 175.511719 221.140625 175.632812 221.117188 175.753906 221.085938 C 175.875 221.054688 175.992188 221.015625 176.109375 220.96875 C 176.167969 220.949219 176.226562 220.925781 176.285156 220.898438 C 176.34375 220.875 176.398438 220.847656 176.457031 220.824219 C 176.683594 220.71875 176.902344 220.585938 177.113281 220.429688 C 177.324219 220.273438 177.523438 220.113281 177.714844 219.925781 C 177.902344 219.738281 178.085938 219.527344 178.25 219.300781 C 178.414062 219.082031 178.5625 218.847656 178.695312 218.59375 C 178.957031 218.089844 179.148438 217.523438 179.222656 216.914062 C 179.292969 216.308594 179.234375 215.714844 179.050781 215.164062 C 178.957031 214.886719 178.835938 214.617188 178.679688 214.367188 C 178.527344 214.117188 178.339844 213.886719 178.128906 213.667969 C 177.917969 213.457031 177.675781 213.253906 177.414062 213.085938 C 177.148438 212.917969 176.863281 212.773438 176.554688 212.65625 C 176.476562 212.625 176.398438 212.597656 176.320312 212.570312 C 176.242188 212.546875 176.164062 212.523438 176.082031 212.503906 C 175.921875 212.464844 175.753906 212.429688 175.585938 212.402344 C 175.414062 212.375 175.242188 212.355469 175.066406 212.34375 C 174.894531 212.339844 174.714844 212.339844 174.535156 212.351562 C 174.457031 212.355469 172.964844 212.421875 171.5 212.644531 C 170.039062 212.855469 168.609375 213.191406 168.535156 213.214844 C 168.285156 213.277344 168.042969 213.347656 167.8125 213.441406 C 167.585938 213.535156 167.371094 213.640625 167.164062 213.761719 C 166.75 213.996094 166.394531 214.300781 166.089844 214.628906 C 166.011719 214.707031 165.941406 214.792969 165.871094 214.878906 C 165.804688 214.96875 165.738281 215.058594 165.679688 215.148438 C 165.558594 215.332031 165.453125 215.519531 165.363281 215.714844 C 165.273438 215.910156 165.199219 216.105469 165.144531 216.308594 C 165.085938 216.515625 165.046875 216.722656 165.023438 216.929688 L 165.023438 216.933594 C 164.996094 216.941406 164.972656 216.949219 164.949219 216.960938 L 164.492188 217.128906 L 164.378906 217.171875 C 164.3125 217.199219 164.25 217.226562 164.183594 217.25 L 163.742188 217.429688 C 163.300781 217.605469 162.871094 217.800781 162.4375 217.988281 C 162.3125 217.25 162.3125 216.507812 162.4375 215.785156 C 162.503906 215.425781 162.601562 215.078125 162.730469 214.734375 C 162.859375 214.394531 163.019531 214.058594 163.214844 213.746094 C 163.410156 213.433594 163.632812 213.132812 163.886719 212.851562 C 164.140625 212.574219 164.425781 212.316406 164.734375 212.082031 C 165.359375 211.617188 166.09375 211.25 166.90625 211.035156 C 167.015625 211 169.054688 210.453125 171.1875 210.15625 C 171.453125 210.121094 171.71875 210.085938 171.984375 210.054688 C 172.117188 210.035156 172.246094 210.019531 172.375 210.003906 C 172.503906 209.992188 172.632812 209.980469 172.761719 209.96875 C 173.011719 209.945312 173.257812 209.921875 173.492188 209.902344 C 173.726562 209.878906 173.949219 209.871094 174.15625 209.859375 C 174.363281 209.847656 174.554688 209.839844 174.722656 209.832031 C 174.808594 209.824219 174.890625 209.820312 174.964844 209.816406 C 175.042969 209.816406 175.109375 209.816406 175.171875 209.8125 C 175.429688 209.808594 175.589844 209.808594 175.617188 209.808594 C 175.878906 209.804688 176.140625 209.808594 176.394531 209.835938 C 176.652344 209.863281 176.902344 209.90625 177.148438 209.957031 C 177.636719 210.054688 178.105469 210.226562 178.539062 210.433594 C 178.976562 210.632812 179.378906 210.898438 179.738281 211.1875 C 179.917969 211.332031 180.089844 211.484375 180.25 211.648438 C 180.410156 211.8125 180.558594 211.988281 180.695312 212.167969 C 180.96875 212.527344 181.199219 212.90625 181.378906 213.3125 C 181.558594 213.722656 181.691406 214.152344 181.777344 214.59375 C 181.945312 215.472656 181.917969 216.394531 181.714844 217.332031 " fill-opacity="1" fill-rule="nonzero"/><path fill="#c5030e" d="M 162.828125 218.496094 L 163.429688 218.230469 C 163.628906 218.140625 163.835938 218.0625 164.039062 217.980469 C 164.242188 217.898438 164.441406 217.808594 164.648438 217.734375 L 165.265625 217.5 L 165.421875 217.441406 C 165.566406 217.386719 165.714844 217.371094 165.859375 217.375 C 166.359375 217.398438 166.8125 217.734375 166.980469 218.257812 C 167.148438 218.773438 167 219.316406 166.660156 219.628906 C 166.558594 219.722656 166.433594 219.796875 166.296875 219.847656 L 166.160156 219.902344 L 165.585938 220.117188 C 165.394531 220.1875 165.203125 220.269531 165.015625 220.347656 C 164.824219 220.425781 164.632812 220.5 164.445312 220.582031 L 163.878906 220.832031 L 163.621094 220.941406 L 163.363281 221.0625 C 162.363281 221.523438 161.378906 222.035156 160.410156 222.578125 C 159.445312 223.121094 158.492188 223.695312 157.558594 224.308594 C 157.472656 224.363281 157.386719 224.417969 157.300781 224.476562 L 157.082031 224.625 L 156.824219 224.796875 C 156.214844 225.207031 155.617188 225.636719 155.019531 226.070312 C 154.917969 226.140625 154.820312 226.214844 154.722656 226.289062 L 154.660156 226.335938 C 154.617188 226.371094 154.574219 226.398438 154.527344 226.421875 C 154.425781 226.476562 154.316406 226.515625 154.203125 226.535156 C 153.761719 226.617188 153.265625 226.441406 152.945312 226.035156 C 152.628906 225.628906 152.582031 225.097656 152.792969 224.683594 C 152.859375 224.554688 152.953125 224.433594 153.066406 224.335938 C 153.085938 224.316406 153.109375 224.300781 153.128906 224.285156 L 153.1875 224.238281 C 153.3125 224.144531 153.4375 224.054688 153.5625 223.964844 C 154.164062 223.523438 154.769531 223.09375 155.386719 222.679688 L 155.6875 222.476562 L 155.882812 222.34375 C 155.984375 222.277344 156.085938 222.210938 156.1875 222.144531 C 157.15625 221.507812 158.152344 220.90625 159.167969 220.339844 C 160.183594 219.769531 161.21875 219.230469 162.28125 218.746094 L 162.550781 218.617188 L 162.828125 218.496094 " fill-opacity="1" fill-rule="nonzero"/></svg>